G75*
G70*
%OFA0B0*%
%FSLAX24Y24*%
%IPPOS*%
%LPD*%
%AMOC8*
5,1,8,0,0,1.08239X$1,22.5*
%
%ADD10R,0.0315X0.0315*%
%ADD11R,0.0394X0.0433*%
%ADD12R,0.0472X0.0217*%
%ADD13C,0.0515*%
%ADD14R,0.0515X0.0515*%
%ADD15R,0.0236X0.0669*%
%ADD16R,0.0197X0.0669*%
%ADD17C,0.0740*%
%ADD18R,0.0500X0.0579*%
%ADD19C,0.0100*%
%ADD20C,0.0360*%
%ADD21C,0.0160*%
D10*
X014700Y004880D03*
X014700Y005470D03*
D11*
X014700Y005990D03*
X014700Y006660D03*
X014700Y004410D03*
X014700Y003740D03*
X009850Y009140D03*
X009850Y009810D03*
D12*
X009012Y009449D03*
X009012Y008701D03*
X007988Y008701D03*
X007988Y009075D03*
X007988Y009449D03*
D13*
X007919Y007705D03*
X007132Y007705D03*
X006344Y007705D03*
X005557Y007705D03*
X008707Y007705D03*
X009494Y007705D03*
X010281Y007705D03*
X011069Y007705D03*
X011856Y007705D03*
X012644Y007705D03*
X013037Y002745D03*
X012250Y002745D03*
X011463Y002745D03*
X010675Y002745D03*
X009888Y002745D03*
X009100Y002745D03*
X008313Y002745D03*
X007526Y002745D03*
X006738Y002745D03*
D14*
X005951Y002745D03*
D15*
X011974Y003475D03*
X012526Y003475D03*
D16*
X012250Y003475D03*
D17*
X002400Y003725D03*
X002400Y002725D03*
X002400Y001725D03*
X002400Y000725D03*
X002400Y004725D03*
X002400Y005725D03*
X002400Y006725D03*
X002400Y007725D03*
X002400Y008725D03*
X002400Y009725D03*
D18*
X005604Y009325D03*
X007296Y009325D03*
D19*
X000325Y010050D02*
X000325Y000400D01*
X002018Y000400D01*
X001976Y000442D01*
X001900Y000626D01*
X001900Y000824D01*
X001976Y001008D01*
X002117Y001149D01*
X002301Y001225D01*
X002499Y001225D01*
X002683Y001301D01*
X002824Y001442D01*
X002900Y001626D01*
X002900Y001824D01*
X002824Y002008D01*
X002787Y002045D01*
X008225Y002045D01*
X008425Y002245D01*
X008530Y002350D01*
X008530Y002415D01*
X008532Y002416D01*
X008641Y002525D01*
X008700Y002668D01*
X008700Y002822D01*
X008641Y002964D01*
X008561Y003045D01*
X008853Y003045D01*
X008772Y002964D01*
X008713Y002822D01*
X008713Y002668D01*
X008772Y002525D01*
X008881Y002416D01*
X009023Y002357D01*
X009177Y002357D01*
X009320Y002416D01*
X009429Y002525D01*
X009488Y002668D01*
X009488Y002822D01*
X009429Y002964D01*
X009348Y003045D01*
X009640Y003045D01*
X009559Y002964D01*
X009500Y002822D01*
X009500Y002668D01*
X009559Y002525D01*
X009668Y002416D01*
X009811Y002357D01*
X009965Y002357D01*
X010107Y002416D01*
X010216Y002525D01*
X010275Y002668D01*
X010275Y002822D01*
X010216Y002964D01*
X010135Y003045D01*
X010425Y003045D01*
X010426Y003044D01*
X010347Y002964D01*
X010288Y002822D01*
X010288Y002668D01*
X010347Y002525D01*
X010456Y002416D01*
X010598Y002357D01*
X010752Y002357D01*
X010895Y002416D01*
X011004Y002525D01*
X011063Y002668D01*
X011063Y002822D01*
X011004Y002964D01*
X010895Y003073D01*
X010880Y003079D01*
X010880Y003100D01*
X010775Y003205D01*
X010680Y003300D01*
X010575Y003405D01*
X007252Y003405D01*
X007215Y003495D01*
X007940Y003495D01*
X007952Y003486D01*
X008013Y003495D01*
X008075Y003495D01*
X008085Y003505D01*
X008099Y003507D01*
X008136Y003557D01*
X008180Y003600D01*
X008180Y003615D01*
X008436Y003957D01*
X008480Y004000D01*
X008480Y004015D01*
X008489Y004027D01*
X008480Y004088D01*
X008480Y004467D01*
X008563Y004549D01*
X008610Y004663D01*
X008610Y004787D01*
X008563Y004901D01*
X008476Y004988D01*
X008362Y005035D01*
X008238Y005035D01*
X008124Y004988D01*
X008037Y004901D01*
X007990Y004787D01*
X007990Y004663D01*
X008037Y004549D01*
X008120Y004467D01*
X008120Y004135D01*
X007910Y003855D01*
X005680Y003855D01*
X005680Y004967D01*
X005763Y005049D01*
X005810Y005163D01*
X005810Y005287D01*
X005763Y005401D01*
X005676Y005488D01*
X005562Y005535D01*
X005438Y005535D01*
X005324Y005488D01*
X005237Y005401D01*
X005190Y005287D01*
X005190Y005163D01*
X005237Y005049D01*
X005320Y004967D01*
X005320Y003855D01*
X004535Y003855D01*
X004630Y003950D01*
X004630Y004967D01*
X004713Y005049D01*
X004760Y005163D01*
X004760Y005287D01*
X004713Y005401D01*
X004626Y005488D01*
X004512Y005535D01*
X004388Y005535D01*
X004274Y005488D01*
X004187Y005401D01*
X004140Y005287D01*
X004140Y005163D01*
X004187Y005049D01*
X004270Y004967D01*
X004270Y004105D01*
X003475Y004105D01*
X002832Y003462D01*
X002900Y003626D01*
X002900Y003824D01*
X002824Y004008D01*
X002756Y004076D01*
X003245Y004565D01*
X003362Y004565D01*
X003476Y004612D01*
X003563Y004699D01*
X003610Y004813D01*
X003610Y004937D01*
X003563Y005051D01*
X003476Y005138D01*
X003362Y005185D01*
X003238Y005185D01*
X003124Y005138D01*
X003037Y005051D01*
X002990Y004937D01*
X002990Y004820D01*
X002900Y004730D01*
X002900Y004824D01*
X002824Y005008D01*
X002683Y005149D01*
X002499Y005225D01*
X002683Y005301D01*
X002824Y005442D01*
X002900Y005626D01*
X002900Y005824D01*
X002824Y006008D01*
X002683Y006149D01*
X002499Y006225D01*
X002301Y006225D01*
X002117Y006149D01*
X001976Y006008D01*
X001933Y005905D01*
X001725Y005905D01*
X001620Y005800D01*
X001520Y005700D01*
X001520Y004383D01*
X001437Y004301D01*
X001390Y004187D01*
X001390Y004063D01*
X001437Y003949D01*
X001524Y003862D01*
X001638Y003815D01*
X001762Y003815D01*
X001876Y003862D01*
X001944Y003931D01*
X001900Y003824D01*
X001900Y003626D01*
X001976Y003442D01*
X002044Y003374D01*
X001775Y003105D01*
X001670Y003000D01*
X001670Y002450D01*
X001970Y002150D01*
X002044Y002076D01*
X001976Y002008D01*
X001900Y001824D01*
X001900Y001626D01*
X001976Y001442D01*
X002117Y001301D01*
X002301Y001225D01*
X002499Y001225D01*
X002683Y001149D01*
X002824Y001008D01*
X002900Y000824D01*
X002900Y000626D01*
X002824Y000442D01*
X002782Y000400D01*
X014975Y000400D01*
X014975Y003396D01*
X014955Y003384D01*
X014917Y003374D01*
X014748Y003374D01*
X014748Y003692D01*
X014652Y003692D01*
X014652Y003374D01*
X014483Y003374D01*
X014445Y003384D01*
X014411Y003404D01*
X014383Y003432D01*
X014363Y003466D01*
X014353Y003504D01*
X014353Y003692D01*
X014652Y003692D01*
X014652Y003789D01*
X014353Y003789D01*
X014353Y003977D01*
X014363Y004015D01*
X014383Y004049D01*
X014411Y004077D01*
X014427Y004086D01*
X014373Y004139D01*
X014373Y004680D01*
X014388Y004695D01*
X014325Y004695D01*
X014220Y004800D01*
X014070Y004950D01*
X014070Y007095D01*
X011925Y007095D01*
X011850Y007170D01*
X011775Y007095D01*
X009875Y007095D01*
X009770Y007200D01*
X009629Y007342D01*
X009571Y007318D01*
X009417Y007318D01*
X009275Y007377D01*
X009166Y007486D01*
X009107Y007627D01*
X009104Y007610D01*
X009084Y007549D01*
X009055Y007492D01*
X009018Y007440D01*
X008972Y007395D01*
X008920Y007357D01*
X008863Y007328D01*
X008802Y007308D01*
X008739Y007298D01*
X008735Y007298D01*
X008735Y007677D01*
X008678Y007677D01*
X008307Y007677D01*
X008307Y007734D01*
X008678Y007734D01*
X008678Y007677D01*
X008678Y007298D01*
X008675Y007298D01*
X008611Y007308D01*
X008550Y007328D01*
X008493Y007357D01*
X008441Y007395D01*
X008396Y007440D01*
X008358Y007492D01*
X008329Y007549D01*
X008309Y007610D01*
X008306Y007627D01*
X008248Y007486D01*
X008139Y007377D01*
X007996Y007318D01*
X007842Y007318D01*
X007833Y007322D01*
X007660Y007149D01*
X007660Y007138D01*
X007537Y007015D01*
X006760Y007015D01*
X006760Y006603D01*
X006763Y006601D01*
X006810Y006487D01*
X006810Y006363D01*
X006763Y006249D01*
X006680Y006167D01*
X006680Y004733D01*
X006713Y004701D01*
X006760Y004587D01*
X006760Y004463D01*
X006713Y004349D01*
X006626Y004262D01*
X006512Y004215D01*
X006388Y004215D01*
X006274Y004262D01*
X006187Y004349D01*
X006140Y004463D01*
X006140Y004587D01*
X006187Y004701D01*
X006274Y004788D01*
X006320Y004807D01*
X006320Y006167D01*
X006237Y006249D01*
X006190Y006363D01*
X006190Y006487D01*
X006237Y006601D01*
X006324Y006688D01*
X006340Y006694D01*
X006340Y007212D01*
X006435Y007307D01*
X006377Y007298D01*
X006373Y007298D01*
X006373Y007677D01*
X006744Y007677D01*
X006744Y007734D01*
X006373Y007734D01*
X006316Y007734D01*
X006316Y008113D01*
X006312Y008113D01*
X006249Y008103D01*
X006188Y008083D01*
X006131Y008054D01*
X006079Y008016D01*
X006034Y007971D01*
X005996Y007919D01*
X005967Y007862D01*
X005947Y007801D01*
X005944Y007783D01*
X005886Y007925D01*
X005777Y008034D01*
X005634Y008093D01*
X005480Y008093D01*
X005338Y008034D01*
X005229Y007925D01*
X005170Y007782D01*
X005170Y007628D01*
X005229Y007486D01*
X005338Y007377D01*
X005480Y007318D01*
X005634Y007318D01*
X005777Y007377D01*
X005886Y007486D01*
X005944Y007627D01*
X005947Y007610D01*
X005967Y007549D01*
X005996Y007492D01*
X006034Y007440D01*
X006079Y007395D01*
X006131Y007357D01*
X006188Y007328D01*
X006249Y007308D01*
X006312Y007298D01*
X006316Y007298D01*
X006316Y007677D01*
X005945Y007677D01*
X005945Y007734D01*
X006316Y007734D01*
X006316Y007677D01*
X006373Y007677D01*
X006373Y007734D01*
X006373Y008113D01*
X006377Y008113D01*
X006440Y008103D01*
X006501Y008083D01*
X006558Y008054D01*
X006610Y008016D01*
X006655Y007971D01*
X006693Y007919D01*
X006722Y007862D01*
X006742Y007801D01*
X006745Y007783D01*
X006803Y007925D01*
X006912Y008034D01*
X007055Y008093D01*
X007209Y008093D01*
X007351Y008034D01*
X007460Y007925D01*
X007519Y007782D01*
X007519Y007628D01*
X007501Y007584D01*
X007536Y007619D01*
X007532Y007628D01*
X007532Y007782D01*
X007591Y007925D01*
X007700Y008034D01*
X007740Y008050D01*
X007740Y008112D01*
X008026Y008398D01*
X008802Y008398D01*
X008802Y008463D01*
X008722Y008463D01*
X008646Y008539D01*
X008646Y008863D01*
X008722Y008939D01*
X009302Y008939D01*
X009378Y008863D01*
X009378Y008539D01*
X009302Y008463D01*
X009222Y008463D01*
X009222Y008398D01*
X009424Y008398D01*
X009587Y008235D01*
X009710Y008112D01*
X009710Y008035D01*
X009714Y008034D01*
X009823Y007925D01*
X009882Y007782D01*
X009882Y007628D01*
X009873Y007607D01*
X009924Y007555D01*
X009894Y007628D01*
X009894Y007782D01*
X009953Y007925D01*
X010062Y008034D01*
X010204Y008093D01*
X010359Y008093D01*
X010501Y008034D01*
X010610Y007925D01*
X010669Y007782D01*
X010669Y007628D01*
X010610Y007486D01*
X010579Y007455D01*
X010771Y007455D01*
X010740Y007486D01*
X010681Y007628D01*
X010681Y007782D01*
X010740Y007925D01*
X010849Y008034D01*
X010992Y008093D01*
X011146Y008093D01*
X011288Y008034D01*
X011397Y007925D01*
X011456Y007782D01*
X011456Y007628D01*
X011397Y007486D01*
X011367Y007455D01*
X011559Y007455D01*
X011528Y007486D01*
X011469Y007628D01*
X011469Y007782D01*
X011528Y007925D01*
X011637Y008034D01*
X011779Y008093D01*
X011933Y008093D01*
X012076Y008034D01*
X012185Y007925D01*
X012244Y007782D01*
X012244Y007628D01*
X012185Y007486D01*
X012154Y007455D01*
X012346Y007455D01*
X012315Y007486D01*
X012256Y007628D01*
X012256Y007782D01*
X012315Y007925D01*
X012424Y008034D01*
X012567Y008093D01*
X012721Y008093D01*
X012863Y008034D01*
X012972Y007925D01*
X013031Y007782D01*
X013031Y007628D01*
X012972Y007486D01*
X012941Y007455D01*
X014225Y007455D01*
X014325Y007355D01*
X014430Y007250D01*
X014430Y007007D01*
X014445Y007016D01*
X014483Y007026D01*
X014652Y007026D01*
X014652Y006708D01*
X014748Y006708D01*
X014748Y007026D01*
X014917Y007026D01*
X014955Y007016D01*
X014975Y007004D01*
X014975Y010050D01*
X010177Y010050D01*
X010177Y009539D01*
X010123Y009486D01*
X010139Y009477D01*
X010167Y009449D01*
X010187Y009415D01*
X010197Y009377D01*
X010197Y009189D01*
X009898Y009189D01*
X009898Y009092D01*
X009898Y008774D01*
X010067Y008774D01*
X010105Y008784D01*
X010139Y008804D01*
X010167Y008832D01*
X010187Y008866D01*
X010197Y008904D01*
X010197Y009092D01*
X009898Y009092D01*
X009802Y009092D01*
X009802Y008774D01*
X009633Y008774D01*
X009595Y008784D01*
X009561Y008804D01*
X009533Y008832D01*
X009513Y008866D01*
X009503Y008904D01*
X009503Y009092D01*
X009802Y009092D01*
X009802Y009189D01*
X009503Y009189D01*
X009503Y009377D01*
X009513Y009415D01*
X009533Y009449D01*
X009561Y009477D01*
X009577Y009486D01*
X009523Y009539D01*
X009523Y009715D01*
X008237Y009715D01*
X008209Y009687D01*
X008278Y009687D01*
X008354Y009611D01*
X008354Y009287D01*
X008646Y009287D01*
X008722Y009211D01*
X009302Y009211D01*
X009378Y009287D01*
X009503Y009287D01*
X009506Y009386D02*
X009378Y009386D01*
X009378Y009484D02*
X009573Y009484D01*
X009523Y009583D02*
X009378Y009583D01*
X009378Y009611D02*
X009302Y009687D01*
X008722Y009687D01*
X008646Y009611D01*
X008646Y009287D01*
X008646Y009386D02*
X008354Y009386D01*
X008354Y009484D02*
X008646Y009484D01*
X008646Y009583D02*
X008354Y009583D01*
X008284Y009681D02*
X008716Y009681D01*
X008354Y009287D02*
X008344Y009276D01*
X008344Y009275D01*
X008364Y009241D01*
X008374Y009203D01*
X008374Y009079D01*
X007992Y009079D01*
X007992Y009071D01*
X008374Y009071D01*
X008374Y008947D01*
X008364Y008909D01*
X008344Y008875D01*
X008344Y008874D01*
X008354Y008863D01*
X008354Y008539D01*
X008278Y008463D01*
X007698Y008463D01*
X007670Y008491D01*
X007387Y008491D01*
X007163Y008715D01*
X007040Y008838D01*
X007040Y008906D01*
X006993Y008906D01*
X006916Y008982D01*
X006916Y009668D01*
X006993Y009744D01*
X007086Y009744D01*
X007086Y009958D01*
X007178Y010050D01*
X002807Y010050D01*
X002845Y009998D01*
X002882Y009925D01*
X002907Y009847D01*
X002919Y009775D01*
X002450Y009775D01*
X002450Y009675D01*
X002919Y009675D01*
X002907Y009603D01*
X002882Y009525D01*
X002845Y009452D01*
X002797Y009386D01*
X002739Y009328D01*
X002673Y009280D01*
X002600Y009243D01*
X002522Y009218D01*
X002518Y009217D01*
X002683Y009149D01*
X002824Y009008D01*
X002900Y008824D01*
X002900Y008822D01*
X003537Y008185D01*
X004663Y008185D01*
X005384Y008906D01*
X005300Y008906D01*
X005224Y008982D01*
X005224Y009668D01*
X005300Y009744D01*
X005907Y009744D01*
X005984Y009668D01*
X005984Y008982D01*
X005907Y008906D01*
X005810Y008906D01*
X005810Y008738D01*
X005687Y008615D01*
X004837Y007765D01*
X003363Y007765D01*
X003240Y007888D01*
X002755Y008373D01*
X002683Y008301D01*
X002499Y008225D01*
X002301Y008225D01*
X002117Y008149D01*
X001976Y008008D01*
X001900Y007824D01*
X001900Y007626D01*
X001976Y007442D01*
X002117Y007301D01*
X002301Y007225D01*
X002117Y007149D01*
X001976Y007008D01*
X001900Y006824D01*
X001900Y006626D01*
X001976Y006442D01*
X002117Y006301D01*
X002301Y006225D01*
X002499Y006225D01*
X002683Y006301D01*
X002824Y006442D01*
X002900Y006626D01*
X002900Y006824D01*
X002824Y007008D01*
X002683Y007149D01*
X002499Y007225D01*
X002301Y007225D01*
X002499Y007225D01*
X002683Y007301D01*
X002824Y007442D01*
X002900Y007626D01*
X002900Y007824D01*
X002824Y008008D01*
X002683Y008149D01*
X002499Y008225D01*
X002301Y008225D01*
X002117Y008301D01*
X001976Y008442D01*
X001900Y008626D01*
X001900Y008824D01*
X001976Y009008D01*
X002117Y009149D01*
X002282Y009217D01*
X002278Y009218D01*
X002200Y009243D01*
X002127Y009280D01*
X002061Y009328D01*
X002003Y009386D01*
X001955Y009452D01*
X001918Y009525D01*
X001893Y009603D01*
X001881Y009675D01*
X002350Y009675D01*
X002350Y009775D01*
X001881Y009775D01*
X001893Y009847D01*
X001918Y009925D01*
X001955Y009998D01*
X001993Y010050D01*
X000325Y010050D01*
X000325Y009977D02*
X001945Y009977D01*
X001903Y009878D02*
X000325Y009878D01*
X000325Y009780D02*
X001882Y009780D01*
X001900Y009583D02*
X000325Y009583D01*
X000325Y009681D02*
X002350Y009681D01*
X002450Y009681D02*
X003451Y009681D01*
X003455Y009689D02*
X003330Y009388D01*
X003330Y009062D01*
X003455Y008761D01*
X003455Y008761D01*
X003686Y008530D01*
X003987Y008405D01*
X004187Y008405D01*
X004313Y008405D01*
X004313Y008405D01*
X004614Y008530D01*
X004614Y008530D01*
X004845Y008761D01*
X004970Y009062D01*
X004970Y009388D01*
X004845Y009689D01*
X004845Y009689D01*
X004614Y009920D01*
X004313Y010045D01*
X003987Y010045D01*
X003686Y009920D01*
X003686Y009920D01*
X003455Y009689D01*
X003455Y009689D01*
X003411Y009583D02*
X002900Y009583D01*
X002861Y009484D02*
X003370Y009484D01*
X003330Y009386D02*
X002796Y009386D01*
X002682Y009287D02*
X003330Y009287D01*
X003330Y009189D02*
X002588Y009189D01*
X002742Y009090D02*
X003330Y009090D01*
X003359Y008992D02*
X002831Y008992D01*
X002872Y008893D02*
X003400Y008893D01*
X003441Y008795D02*
X002927Y008795D01*
X003026Y008696D02*
X003519Y008696D01*
X003618Y008598D02*
X003124Y008598D01*
X003223Y008499D02*
X003760Y008499D01*
X003686Y008530D02*
X003686Y008530D01*
X003420Y008302D02*
X004780Y008302D01*
X004682Y008204D02*
X003518Y008204D01*
X003321Y008401D02*
X004879Y008401D01*
X004977Y008499D02*
X004540Y008499D01*
X004682Y008598D02*
X005076Y008598D01*
X005174Y008696D02*
X004781Y008696D01*
X004845Y008761D02*
X004845Y008761D01*
X004859Y008795D02*
X005273Y008795D01*
X005371Y008893D02*
X004900Y008893D01*
X004941Y008992D02*
X005224Y008992D01*
X005224Y009090D02*
X004970Y009090D01*
X004970Y009189D02*
X005224Y009189D01*
X005224Y009287D02*
X004970Y009287D01*
X004970Y009386D02*
X005224Y009386D01*
X005224Y009484D02*
X004930Y009484D01*
X004889Y009583D02*
X005224Y009583D01*
X005236Y009681D02*
X004849Y009681D01*
X004755Y009780D02*
X007086Y009780D01*
X007086Y009878D02*
X004657Y009878D01*
X004614Y009920D02*
X004614Y009920D01*
X004478Y009977D02*
X007105Y009977D01*
X006929Y009681D02*
X005971Y009681D01*
X005984Y009583D02*
X006916Y009583D01*
X006916Y009484D02*
X005984Y009484D01*
X005984Y009386D02*
X006916Y009386D01*
X006916Y009287D02*
X005984Y009287D01*
X005984Y009189D02*
X006916Y009189D01*
X006916Y009090D02*
X005984Y009090D01*
X005984Y008992D02*
X006916Y008992D01*
X007040Y008893D02*
X005810Y008893D01*
X005810Y008795D02*
X007083Y008795D01*
X007182Y008696D02*
X005768Y008696D01*
X005670Y008598D02*
X007280Y008598D01*
X007379Y008499D02*
X005571Y008499D01*
X005473Y008401D02*
X008802Y008401D01*
X008685Y008499D02*
X008315Y008499D01*
X008350Y008425D02*
X008450Y008525D01*
X008450Y008825D01*
X008200Y009075D01*
X007988Y009075D01*
X009785Y009075D01*
X009850Y009140D01*
X009898Y009189D02*
X010870Y009189D01*
X010911Y009229D02*
X010758Y009076D01*
X010675Y008876D01*
X010675Y008660D01*
X010758Y008460D01*
X010911Y008307D01*
X011110Y008225D01*
X011327Y008225D01*
X011526Y008307D01*
X011679Y008460D01*
X011762Y008660D01*
X011762Y008876D01*
X011679Y009076D01*
X011526Y009229D01*
X011327Y009312D01*
X011110Y009312D01*
X010911Y009229D01*
X011050Y009287D02*
X010197Y009287D01*
X010194Y009386D02*
X013330Y009386D01*
X013330Y009388D02*
X013330Y009062D01*
X013455Y008761D01*
X013455Y008761D01*
X013686Y008530D01*
X013987Y008405D01*
X014187Y008405D01*
X014313Y008405D01*
X014313Y008405D01*
X014614Y008530D01*
X014614Y008530D01*
X014845Y008761D01*
X014970Y009062D01*
X014970Y009388D01*
X014845Y009689D01*
X014845Y009689D01*
X014614Y009920D01*
X014313Y010045D01*
X013987Y010045D01*
X013686Y009920D01*
X013686Y009920D01*
X013455Y009689D01*
X013330Y009388D01*
X013330Y009287D02*
X011387Y009287D01*
X011567Y009189D02*
X013330Y009189D01*
X013330Y009090D02*
X011666Y009090D01*
X011715Y008992D02*
X013359Y008992D01*
X013400Y008893D02*
X011755Y008893D01*
X011762Y008795D02*
X013441Y008795D01*
X013519Y008696D02*
X011762Y008696D01*
X011736Y008598D02*
X013618Y008598D01*
X013686Y008530D02*
X013686Y008530D01*
X013760Y008499D02*
X011695Y008499D01*
X011620Y008401D02*
X014975Y008401D01*
X014975Y008499D02*
X014540Y008499D01*
X014682Y008598D02*
X014975Y008598D01*
X014975Y008696D02*
X014781Y008696D01*
X014845Y008761D02*
X014845Y008761D01*
X014859Y008795D02*
X014975Y008795D01*
X014975Y008893D02*
X014900Y008893D01*
X014941Y008992D02*
X014975Y008992D01*
X014970Y009090D02*
X014975Y009090D01*
X014970Y009189D02*
X014975Y009189D01*
X014970Y009287D02*
X014975Y009287D01*
X014970Y009386D02*
X014975Y009386D01*
X014975Y009484D02*
X014930Y009484D01*
X014889Y009583D02*
X014975Y009583D01*
X014975Y009681D02*
X014849Y009681D01*
X014755Y009780D02*
X014975Y009780D01*
X014975Y009878D02*
X014657Y009878D01*
X014614Y009920D02*
X014614Y009920D01*
X014478Y009977D02*
X014975Y009977D01*
X013822Y009977D02*
X010177Y009977D01*
X010177Y009878D02*
X013643Y009878D01*
X013545Y009780D02*
X010177Y009780D01*
X010177Y009681D02*
X013451Y009681D01*
X013455Y009689D02*
X013455Y009689D01*
X013411Y009583D02*
X010177Y009583D01*
X010127Y009484D02*
X013370Y009484D01*
X014975Y008302D02*
X011514Y008302D01*
X011610Y008007D02*
X011316Y008007D01*
X011404Y007908D02*
X011521Y007908D01*
X011480Y007810D02*
X011445Y007810D01*
X011456Y007711D02*
X011469Y007711D01*
X011475Y007613D02*
X011450Y007613D01*
X011409Y007514D02*
X011516Y007514D01*
X011700Y007275D02*
X011850Y007425D01*
X012000Y007275D01*
X014150Y007275D01*
X014250Y007175D01*
X014250Y005025D01*
X014400Y004875D01*
X014695Y004875D01*
X014700Y004880D01*
X014700Y004410D01*
X014373Y004362D02*
X012335Y004362D01*
X012339Y004365D02*
X012523Y004685D01*
X012619Y005041D01*
X012619Y005409D01*
X012523Y005765D01*
X012339Y006085D01*
X012078Y006345D01*
X011759Y006530D01*
X011403Y006625D01*
X011034Y006625D01*
X010678Y006530D01*
X010359Y006345D01*
X010098Y006085D01*
X009914Y005765D01*
X009819Y005409D01*
X009819Y005041D01*
X009914Y004685D01*
X010098Y004365D01*
X010359Y004105D01*
X010678Y003920D01*
X011034Y003825D01*
X011403Y003825D01*
X011759Y003920D01*
X012078Y004105D01*
X012339Y004365D01*
X012394Y004461D02*
X014373Y004461D01*
X014373Y004559D02*
X012451Y004559D01*
X012507Y004658D02*
X014373Y004658D01*
X014264Y004756D02*
X012542Y004756D01*
X012569Y004855D02*
X014166Y004855D01*
X014070Y004953D02*
X012595Y004953D01*
X012619Y005052D02*
X014070Y005052D01*
X014070Y005150D02*
X012619Y005150D01*
X012619Y005249D02*
X014070Y005249D01*
X014070Y005347D02*
X012619Y005347D01*
X012609Y005446D02*
X014070Y005446D01*
X014070Y005544D02*
X012582Y005544D01*
X012556Y005643D02*
X014070Y005643D01*
X014070Y005741D02*
X012530Y005741D01*
X012480Y005840D02*
X014070Y005840D01*
X014070Y005938D02*
X012423Y005938D01*
X012367Y006037D02*
X014070Y006037D01*
X014070Y006135D02*
X012288Y006135D01*
X012190Y006234D02*
X014070Y006234D01*
X014070Y006332D02*
X012091Y006332D01*
X011930Y006431D02*
X014070Y006431D01*
X014070Y006529D02*
X011760Y006529D01*
X011800Y007120D02*
X011900Y007120D01*
X011700Y007275D02*
X009950Y007275D01*
X009520Y007705D01*
X009830Y007908D02*
X009946Y007908D01*
X009905Y007810D02*
X009870Y007810D01*
X009882Y007711D02*
X009894Y007711D01*
X009901Y007613D02*
X009875Y007613D01*
X009653Y007317D02*
X008830Y007317D01*
X008735Y007317D02*
X008678Y007317D01*
X008583Y007317D02*
X007828Y007317D01*
X007729Y007219D02*
X009752Y007219D01*
X009850Y007120D02*
X007642Y007120D01*
X007544Y007022D02*
X014070Y007022D01*
X014070Y006923D02*
X006760Y006923D01*
X006760Y006825D02*
X014070Y006825D01*
X014070Y006726D02*
X006760Y006726D01*
X006760Y006628D02*
X014070Y006628D01*
X014430Y007022D02*
X014466Y007022D01*
X014430Y007120D02*
X014975Y007120D01*
X014975Y007022D02*
X014934Y007022D01*
X014748Y007022D02*
X014652Y007022D01*
X014652Y006923D02*
X014748Y006923D01*
X014748Y006825D02*
X014652Y006825D01*
X014652Y006726D02*
X014748Y006726D01*
X014975Y007219D02*
X014430Y007219D01*
X014363Y007317D02*
X014975Y007317D01*
X014975Y007416D02*
X014264Y007416D01*
X014975Y007514D02*
X012984Y007514D01*
X013025Y007613D02*
X014975Y007613D01*
X014975Y007711D02*
X013031Y007711D01*
X013020Y007810D02*
X014975Y007810D01*
X014975Y007908D02*
X012979Y007908D01*
X012890Y008007D02*
X014975Y008007D01*
X014975Y008105D02*
X009710Y008105D01*
X009741Y008007D02*
X010035Y008007D01*
X009618Y008204D02*
X014975Y008204D01*
X012397Y008007D02*
X012103Y008007D01*
X012192Y007908D02*
X012308Y007908D01*
X012267Y007810D02*
X012233Y007810D01*
X012244Y007711D02*
X012256Y007711D01*
X012263Y007613D02*
X012237Y007613D01*
X012196Y007514D02*
X012304Y007514D01*
X011850Y007425D02*
X011850Y007699D01*
X011856Y007705D01*
X010923Y008302D02*
X009520Y008302D01*
X009338Y008499D02*
X010742Y008499D01*
X010701Y008598D02*
X009378Y008598D01*
X009378Y008696D02*
X010675Y008696D01*
X010675Y008795D02*
X010123Y008795D01*
X010194Y008893D02*
X010682Y008893D01*
X010722Y008992D02*
X010197Y008992D01*
X010197Y009090D02*
X010771Y009090D01*
X010817Y008401D02*
X009222Y008401D01*
X008646Y008598D02*
X008354Y008598D01*
X008354Y008696D02*
X008646Y008696D01*
X008646Y008795D02*
X008354Y008795D01*
X008355Y008893D02*
X008676Y008893D01*
X008374Y008992D02*
X009503Y008992D01*
X009503Y009090D02*
X008374Y009090D01*
X008374Y009189D02*
X009802Y009189D01*
X009802Y009090D02*
X009898Y009090D01*
X009898Y008992D02*
X009802Y008992D01*
X009802Y008893D02*
X009898Y008893D01*
X009898Y008795D02*
X009802Y008795D01*
X009577Y008795D02*
X009378Y008795D01*
X009348Y008893D02*
X009506Y008893D01*
X009378Y009287D02*
X009378Y009611D01*
X009308Y009681D02*
X009523Y009681D01*
X008350Y008425D02*
X007720Y008425D01*
X007430Y008125D01*
X006500Y008125D01*
X006350Y007975D01*
X006350Y007711D01*
X006344Y007705D01*
X006316Y007711D02*
X005945Y007711D01*
X005938Y007613D02*
X005947Y007613D01*
X005985Y007514D02*
X005897Y007514D01*
X005815Y007416D02*
X006058Y007416D01*
X006221Y007317D02*
X002699Y007317D01*
X002798Y007416D02*
X005299Y007416D01*
X005217Y007514D02*
X002854Y007514D01*
X002895Y007613D02*
X005176Y007613D01*
X005170Y007711D02*
X002900Y007711D01*
X002900Y007810D02*
X003318Y007810D01*
X003220Y007908D02*
X002865Y007908D01*
X002825Y008007D02*
X003121Y008007D01*
X003023Y008105D02*
X002727Y008105D01*
X002551Y008204D02*
X002924Y008204D01*
X002826Y008302D02*
X002684Y008302D01*
X002249Y008204D02*
X000325Y008204D01*
X000325Y008302D02*
X002116Y008302D01*
X002017Y008401D02*
X000325Y008401D01*
X000325Y008499D02*
X001952Y008499D01*
X001912Y008598D02*
X000325Y008598D01*
X000325Y008696D02*
X001900Y008696D01*
X001900Y008795D02*
X000325Y008795D01*
X000325Y008893D02*
X001928Y008893D01*
X001969Y008992D02*
X000325Y008992D01*
X000325Y009090D02*
X002058Y009090D01*
X002212Y009189D02*
X000325Y009189D01*
X000325Y009287D02*
X002118Y009287D01*
X002004Y009386D02*
X000325Y009386D01*
X000325Y009484D02*
X001939Y009484D01*
X002918Y009780D02*
X003545Y009780D01*
X003643Y009878D02*
X002897Y009878D01*
X002855Y009977D02*
X003822Y009977D01*
X005374Y008302D02*
X007930Y008302D01*
X007832Y008204D02*
X005276Y008204D01*
X005177Y008105D02*
X006263Y008105D01*
X006316Y008105D02*
X006373Y008105D01*
X006426Y008105D02*
X007740Y008105D01*
X007673Y008007D02*
X007379Y008007D01*
X007467Y007908D02*
X007584Y007908D01*
X007543Y007810D02*
X007508Y007810D01*
X007519Y007711D02*
X007532Y007711D01*
X007530Y007613D02*
X007513Y007613D01*
X006885Y008007D02*
X006620Y008007D01*
X006699Y007908D02*
X006796Y007908D01*
X006756Y007810D02*
X006739Y007810D01*
X006744Y007711D02*
X006373Y007711D01*
X006373Y007613D02*
X006316Y007613D01*
X006316Y007514D02*
X006373Y007514D01*
X006373Y007416D02*
X006316Y007416D01*
X006316Y007317D02*
X006373Y007317D01*
X006347Y007219D02*
X002515Y007219D01*
X002712Y007120D02*
X006340Y007120D01*
X006340Y007022D02*
X002811Y007022D01*
X002859Y006923D02*
X006340Y006923D01*
X006340Y006825D02*
X002900Y006825D01*
X002900Y006726D02*
X006340Y006726D01*
X006264Y006628D02*
X002900Y006628D01*
X002860Y006529D02*
X006208Y006529D01*
X006190Y006431D02*
X002813Y006431D01*
X002714Y006332D02*
X006203Y006332D01*
X006253Y006234D02*
X002520Y006234D01*
X002697Y006135D02*
X006320Y006135D01*
X006320Y006037D02*
X002796Y006037D01*
X002853Y005938D02*
X006320Y005938D01*
X006320Y005840D02*
X002894Y005840D01*
X002900Y005741D02*
X006320Y005741D01*
X006320Y005643D02*
X002900Y005643D01*
X002866Y005544D02*
X006320Y005544D01*
X006320Y005446D02*
X005718Y005446D01*
X005785Y005347D02*
X006320Y005347D01*
X006320Y005249D02*
X005810Y005249D01*
X005804Y005150D02*
X006320Y005150D01*
X006320Y005052D02*
X005764Y005052D01*
X005680Y004953D02*
X006320Y004953D01*
X006320Y004855D02*
X005680Y004855D01*
X005680Y004756D02*
X006243Y004756D01*
X006169Y004658D02*
X005680Y004658D01*
X005680Y004559D02*
X006140Y004559D01*
X006141Y004461D02*
X005680Y004461D01*
X005680Y004362D02*
X006182Y004362D01*
X006273Y004264D02*
X005680Y004264D01*
X005680Y004165D02*
X008120Y004165D01*
X008120Y004264D02*
X006627Y004264D01*
X006718Y004362D02*
X008120Y004362D01*
X008120Y004461D02*
X006759Y004461D01*
X006760Y004559D02*
X008033Y004559D01*
X007992Y004658D02*
X006731Y004658D01*
X006680Y004756D02*
X007990Y004756D01*
X008018Y004855D02*
X006680Y004855D01*
X006680Y004953D02*
X008090Y004953D01*
X008300Y004725D02*
X008300Y004075D01*
X008000Y003675D01*
X003900Y003675D01*
X002950Y002725D01*
X002400Y002725D01*
X002150Y002225D02*
X001850Y002525D01*
X001850Y002925D01*
X002150Y003225D01*
X002850Y003225D01*
X003550Y003925D01*
X004350Y003925D01*
X004450Y004025D01*
X004450Y005225D01*
X004165Y005347D02*
X002729Y005347D01*
X002825Y005446D02*
X004232Y005446D01*
X004140Y005249D02*
X002556Y005249D01*
X002499Y005225D02*
X002301Y005225D01*
X002117Y005301D01*
X001976Y005442D01*
X001933Y005545D01*
X001880Y005545D01*
X001880Y004383D01*
X001963Y004301D01*
X002010Y004187D01*
X002010Y004063D01*
X001995Y004027D01*
X002117Y004149D01*
X002301Y004225D01*
X002395Y004225D01*
X002395Y004225D01*
X002301Y004225D01*
X002117Y004301D01*
X001976Y004442D01*
X001900Y004626D01*
X001900Y004824D01*
X001976Y005008D01*
X002117Y005149D01*
X002301Y005225D01*
X002499Y005225D01*
X002680Y005150D02*
X003154Y005150D01*
X003038Y005052D02*
X002781Y005052D01*
X002847Y004953D02*
X002997Y004953D01*
X002990Y004855D02*
X002888Y004855D01*
X002900Y004756D02*
X002926Y004756D01*
X003239Y004559D02*
X004270Y004559D01*
X004270Y004461D02*
X003140Y004461D01*
X003042Y004362D02*
X004270Y004362D01*
X004270Y004264D02*
X002943Y004264D01*
X002845Y004165D02*
X004270Y004165D01*
X004549Y003870D02*
X005320Y003870D01*
X005320Y003968D02*
X004630Y003968D01*
X004630Y004067D02*
X005320Y004067D01*
X005320Y004165D02*
X004630Y004165D01*
X004630Y004264D02*
X005320Y004264D01*
X005320Y004362D02*
X004630Y004362D01*
X004630Y004461D02*
X005320Y004461D01*
X005320Y004559D02*
X004630Y004559D01*
X004630Y004658D02*
X005320Y004658D01*
X005320Y004756D02*
X004630Y004756D01*
X004630Y004855D02*
X005320Y004855D01*
X005320Y004953D02*
X004630Y004953D01*
X004714Y005052D02*
X005236Y005052D01*
X005196Y005150D02*
X004754Y005150D01*
X004760Y005249D02*
X005190Y005249D01*
X005215Y005347D02*
X004735Y005347D01*
X004668Y005446D02*
X005282Y005446D01*
X005500Y005225D02*
X005500Y003195D01*
X005490Y003185D01*
X005890Y003185D01*
X005950Y003125D01*
X005950Y002745D01*
X005951Y002745D01*
X006950Y003325D02*
X007050Y003225D01*
X010500Y003225D01*
X010700Y003025D01*
X010700Y002769D01*
X010675Y002745D01*
X010314Y002885D02*
X010249Y002885D01*
X010275Y002786D02*
X010288Y002786D01*
X010275Y002688D02*
X010288Y002688D01*
X010320Y002589D02*
X010243Y002589D01*
X010182Y002491D02*
X010381Y002491D01*
X010514Y002392D02*
X010049Y002392D01*
X009727Y002392D02*
X009261Y002392D01*
X009394Y002491D02*
X009594Y002491D01*
X009533Y002589D02*
X009455Y002589D01*
X009488Y002688D02*
X009500Y002688D01*
X009488Y002786D02*
X009500Y002786D01*
X009526Y002885D02*
X009462Y002885D01*
X009410Y002983D02*
X009578Y002983D01*
X010197Y002983D02*
X010366Y002983D01*
X010701Y003279D02*
X011523Y003279D01*
X011622Y003377D02*
X010603Y003377D01*
X010800Y003180D02*
X011425Y003180D01*
X011371Y003126D02*
X011243Y003073D01*
X011134Y002964D01*
X011075Y002822D01*
X011075Y002668D01*
X011134Y002525D01*
X011243Y002416D01*
X011386Y002357D01*
X011540Y002357D01*
X011682Y002416D01*
X011791Y002525D01*
X011850Y002667D01*
X011853Y002649D01*
X011872Y002588D01*
X011901Y002531D01*
X011939Y002479D01*
X011985Y002434D01*
X012036Y002396D01*
X012094Y002367D01*
X012155Y002347D01*
X012218Y002337D01*
X012221Y002337D01*
X012221Y002716D01*
X012279Y002716D01*
X012279Y002337D01*
X012282Y002337D01*
X012345Y002347D01*
X012406Y002367D01*
X012464Y002396D01*
X012515Y002434D01*
X012561Y002479D01*
X012599Y002531D01*
X012628Y002588D01*
X012647Y002649D01*
X012650Y002667D01*
X012709Y002525D01*
X012818Y002416D01*
X012960Y002357D01*
X013114Y002357D01*
X013257Y002416D01*
X013366Y002525D01*
X013425Y002668D01*
X013425Y002822D01*
X013366Y002964D01*
X013257Y003073D01*
X013171Y003109D01*
X013125Y003155D01*
X012774Y003506D01*
X012774Y003863D01*
X012698Y003940D01*
X012423Y003940D01*
X012406Y003949D01*
X012368Y003960D01*
X012250Y003960D01*
X012132Y003960D01*
X012094Y003949D01*
X012077Y003940D01*
X011802Y003940D01*
X011726Y003863D01*
X011726Y003481D01*
X011371Y003126D01*
X011263Y003082D02*
X010880Y003082D01*
X010985Y002983D02*
X011153Y002983D01*
X011101Y002885D02*
X011037Y002885D01*
X011063Y002786D02*
X011075Y002786D01*
X011063Y002688D02*
X011075Y002688D01*
X011108Y002589D02*
X011030Y002589D01*
X010969Y002491D02*
X011169Y002491D01*
X011302Y002392D02*
X010836Y002392D01*
X011037Y002195D02*
X008375Y002195D01*
X008473Y002294D02*
X014975Y002294D01*
X014975Y002392D02*
X013198Y002392D01*
X013331Y002491D02*
X014975Y002491D01*
X014975Y002589D02*
X013392Y002589D01*
X013425Y002688D02*
X014975Y002688D01*
X014975Y002786D02*
X013425Y002786D01*
X013399Y002885D02*
X014975Y002885D01*
X014975Y002983D02*
X013347Y002983D01*
X013237Y003082D02*
X014975Y003082D01*
X014975Y003180D02*
X013100Y003180D01*
X013001Y003279D02*
X014975Y003279D01*
X014975Y003377D02*
X014928Y003377D01*
X014748Y003377D02*
X014652Y003377D01*
X014652Y003476D02*
X014748Y003476D01*
X014748Y003574D02*
X014652Y003574D01*
X014652Y003673D02*
X014748Y003673D01*
X014652Y003771D02*
X012774Y003771D01*
X012774Y003673D02*
X014353Y003673D01*
X014353Y003574D02*
X012774Y003574D01*
X012804Y003476D02*
X014361Y003476D01*
X014471Y003377D02*
X012903Y003377D01*
X012550Y003475D02*
X013050Y002975D01*
X013050Y002757D01*
X013037Y002745D01*
X012682Y002589D02*
X012628Y002589D01*
X012569Y002491D02*
X012744Y002491D01*
X012876Y002392D02*
X012455Y002392D01*
X012279Y002392D02*
X012221Y002392D01*
X012221Y002491D02*
X012279Y002491D01*
X012279Y002589D02*
X012221Y002589D01*
X012221Y002688D02*
X012279Y002688D01*
X012279Y002773D02*
X012221Y002773D01*
X012221Y002990D01*
X012250Y002990D01*
X012250Y003475D01*
X012250Y003475D01*
X012250Y003960D01*
X012250Y003475D01*
X012250Y003475D01*
X012250Y002990D01*
X012279Y002990D01*
X012279Y002773D01*
X012279Y002786D02*
X012221Y002786D01*
X012221Y002885D02*
X012279Y002885D01*
X012279Y002983D02*
X012221Y002983D01*
X012250Y003082D02*
X012250Y003082D01*
X012250Y003180D02*
X012250Y003180D01*
X012250Y003279D02*
X012250Y003279D01*
X012250Y003377D02*
X012250Y003377D01*
X012250Y003476D02*
X012250Y003476D01*
X012250Y003574D02*
X012250Y003574D01*
X012250Y003673D02*
X012250Y003673D01*
X012250Y003771D02*
X012250Y003771D01*
X012250Y003870D02*
X012250Y003870D01*
X012012Y004067D02*
X014401Y004067D01*
X014373Y004165D02*
X012138Y004165D01*
X012237Y004264D02*
X014373Y004264D01*
X014353Y003968D02*
X011841Y003968D01*
X011732Y003870D02*
X011569Y003870D01*
X011726Y003771D02*
X008297Y003771D01*
X008223Y003673D02*
X011726Y003673D01*
X011726Y003574D02*
X008154Y003574D01*
X008371Y003870D02*
X010868Y003870D01*
X010596Y003968D02*
X008448Y003968D01*
X008483Y004067D02*
X010425Y004067D01*
X010299Y004165D02*
X008480Y004165D01*
X008480Y004264D02*
X010200Y004264D01*
X010102Y004362D02*
X008480Y004362D01*
X008480Y004461D02*
X010043Y004461D01*
X009986Y004559D02*
X008567Y004559D01*
X008608Y004658D02*
X009930Y004658D01*
X009895Y004756D02*
X008610Y004756D01*
X008582Y004855D02*
X009868Y004855D01*
X009842Y004953D02*
X008510Y004953D01*
X009819Y005052D02*
X006680Y005052D01*
X006680Y005150D02*
X009819Y005150D01*
X009819Y005249D02*
X006680Y005249D01*
X006680Y005347D02*
X009819Y005347D01*
X009828Y005446D02*
X006680Y005446D01*
X006680Y005544D02*
X009855Y005544D01*
X009881Y005643D02*
X006680Y005643D01*
X006680Y005741D02*
X009907Y005741D01*
X009957Y005840D02*
X006680Y005840D01*
X006680Y005938D02*
X010014Y005938D01*
X010070Y006037D02*
X006680Y006037D01*
X006680Y006135D02*
X010149Y006135D01*
X010247Y006234D02*
X006747Y006234D01*
X006797Y006332D02*
X010346Y006332D01*
X010507Y006431D02*
X006810Y006431D01*
X006792Y006529D02*
X010677Y006529D01*
X010622Y007514D02*
X010729Y007514D01*
X010688Y007613D02*
X010662Y007613D01*
X010669Y007711D02*
X010681Y007711D01*
X010693Y007810D02*
X010658Y007810D01*
X010617Y007908D02*
X010733Y007908D01*
X010822Y008007D02*
X010528Y008007D01*
X009236Y007416D02*
X008993Y007416D01*
X009067Y007514D02*
X009154Y007514D01*
X009113Y007613D02*
X009105Y007613D01*
X009107Y007677D02*
X008735Y007677D01*
X008735Y007734D01*
X008735Y007978D01*
X008678Y007978D01*
X008678Y007734D01*
X008735Y007734D01*
X009107Y007734D01*
X009107Y007677D01*
X009107Y007711D02*
X008735Y007711D01*
X008678Y007711D02*
X008307Y007711D01*
X008300Y007613D02*
X008309Y007613D01*
X008347Y007514D02*
X008259Y007514D01*
X008177Y007416D02*
X008420Y007416D01*
X008678Y007416D02*
X008735Y007416D01*
X008735Y007514D02*
X008678Y007514D01*
X008678Y007613D02*
X008735Y007613D01*
X008735Y007810D02*
X008678Y007810D01*
X008678Y007908D02*
X008735Y007908D01*
X006500Y006425D02*
X006500Y004575D01*
X006450Y004525D01*
X005680Y004067D02*
X008069Y004067D01*
X007995Y003968D02*
X005680Y003968D01*
X005680Y003870D02*
X007921Y003870D01*
X007223Y003476D02*
X011720Y003476D01*
X011974Y003475D02*
X011463Y002963D01*
X011463Y002745D01*
X011818Y002589D02*
X011872Y002589D01*
X011931Y002491D02*
X011756Y002491D01*
X011624Y002392D02*
X012045Y002392D01*
X011671Y001998D02*
X013873Y001998D01*
X013987Y002045D02*
X013686Y001920D01*
X013686Y001920D01*
X013455Y001689D01*
X013330Y001388D01*
X013330Y001062D01*
X013455Y000761D01*
X013455Y000761D01*
X013686Y000530D01*
X013987Y000405D01*
X014113Y000405D01*
X014313Y000405D01*
X014614Y000530D01*
X014845Y000761D01*
X014970Y001062D01*
X014970Y001388D01*
X014845Y001689D01*
X014845Y001689D01*
X014614Y001920D01*
X014313Y002045D01*
X013987Y002045D01*
X013665Y001900D02*
X011717Y001900D01*
X011679Y001990D02*
X011526Y002143D01*
X011327Y002225D01*
X011110Y002225D01*
X010911Y002143D01*
X010758Y001990D01*
X010675Y001790D01*
X010675Y001574D01*
X010758Y001374D01*
X010911Y001221D01*
X011110Y001138D01*
X011327Y001138D01*
X011526Y001221D01*
X011679Y001374D01*
X011762Y001574D01*
X011762Y001790D01*
X011679Y001990D01*
X011573Y002097D02*
X014975Y002097D01*
X014975Y002195D02*
X011400Y002195D01*
X011758Y001801D02*
X013566Y001801D01*
X013468Y001703D02*
X011762Y001703D01*
X011762Y001604D02*
X013419Y001604D01*
X013455Y001689D02*
X013455Y001689D01*
X013379Y001506D02*
X011734Y001506D01*
X011693Y001407D02*
X013338Y001407D01*
X013330Y001309D02*
X011614Y001309D01*
X011501Y001210D02*
X013330Y001210D01*
X013330Y001112D02*
X004970Y001112D01*
X004970Y001062D02*
X004970Y001388D01*
X004845Y001689D01*
X004845Y001689D01*
X004614Y001920D01*
X004313Y002045D01*
X003987Y002045D01*
X003686Y001920D01*
X003686Y001920D01*
X003455Y001689D01*
X003330Y001388D01*
X003330Y001062D01*
X003455Y000761D01*
X003455Y000761D01*
X003686Y000530D01*
X003987Y000405D01*
X004113Y000405D01*
X004313Y000405D01*
X004614Y000530D01*
X004614Y000530D01*
X004845Y000761D01*
X004970Y001062D01*
X004950Y001013D02*
X013350Y001013D01*
X013391Y000915D02*
X004909Y000915D01*
X004868Y000816D02*
X013432Y000816D01*
X013498Y000718D02*
X004802Y000718D01*
X004845Y000761D02*
X004845Y000761D01*
X004704Y000619D02*
X013596Y000619D01*
X013686Y000530D02*
X013686Y000530D01*
X013708Y000521D02*
X004592Y000521D01*
X004354Y000422D02*
X013946Y000422D01*
X014354Y000422D02*
X014975Y000422D01*
X014975Y000521D02*
X014592Y000521D01*
X014704Y000619D02*
X014975Y000619D01*
X014975Y000718D02*
X014802Y000718D01*
X014845Y000761D02*
X014845Y000761D01*
X014845Y000761D01*
X014868Y000816D02*
X014975Y000816D01*
X014975Y000915D02*
X014909Y000915D01*
X014950Y001013D02*
X014975Y001013D01*
X014970Y001112D02*
X014975Y001112D01*
X014970Y001210D02*
X014975Y001210D01*
X014970Y001309D02*
X014975Y001309D01*
X014962Y001407D02*
X014975Y001407D01*
X014975Y001506D02*
X014921Y001506D01*
X014881Y001604D02*
X014975Y001604D01*
X014975Y001703D02*
X014832Y001703D01*
X014734Y001801D02*
X014975Y001801D01*
X014975Y001900D02*
X014635Y001900D01*
X014614Y001920D02*
X014614Y001920D01*
X014427Y001998D02*
X014975Y001998D01*
X012550Y003475D02*
X012526Y003475D01*
X012768Y003870D02*
X014353Y003870D01*
X014700Y005470D02*
X014700Y005990D01*
X010864Y002097D02*
X008276Y002097D01*
X008150Y002225D02*
X008350Y002425D01*
X008350Y002708D01*
X008313Y002745D01*
X008674Y002885D02*
X008739Y002885D01*
X008713Y002786D02*
X008700Y002786D01*
X008700Y002688D02*
X008713Y002688D01*
X008745Y002589D02*
X008668Y002589D01*
X008607Y002491D02*
X008807Y002491D01*
X008939Y002392D02*
X008530Y002392D01*
X008150Y002225D02*
X002150Y002225D01*
X002024Y002097D02*
X000325Y002097D01*
X000325Y002195D02*
X001925Y002195D01*
X001827Y002294D02*
X000325Y002294D01*
X000325Y002392D02*
X001728Y002392D01*
X001670Y002491D02*
X000325Y002491D01*
X000325Y002589D02*
X001670Y002589D01*
X001670Y002688D02*
X000325Y002688D01*
X000325Y002786D02*
X001670Y002786D01*
X001670Y002885D02*
X000325Y002885D01*
X000325Y002983D02*
X001670Y002983D01*
X001752Y003082D02*
X000325Y003082D01*
X000325Y003180D02*
X001850Y003180D01*
X001949Y003279D02*
X000325Y003279D01*
X000325Y003377D02*
X002041Y003377D01*
X001962Y003476D02*
X000325Y003476D01*
X000325Y003574D02*
X001921Y003574D01*
X001900Y003673D02*
X000325Y003673D01*
X000325Y003771D02*
X001900Y003771D01*
X001883Y003870D02*
X001919Y003870D01*
X002010Y004067D02*
X002034Y004067D01*
X002010Y004165D02*
X002156Y004165D01*
X002208Y004264D02*
X001978Y004264D01*
X001901Y004362D02*
X002056Y004362D01*
X001968Y004461D02*
X001880Y004461D01*
X001880Y004559D02*
X001928Y004559D01*
X001900Y004658D02*
X001880Y004658D01*
X001880Y004756D02*
X001900Y004756D01*
X001912Y004855D02*
X001880Y004855D01*
X001880Y004953D02*
X001953Y004953D01*
X002019Y005052D02*
X001880Y005052D01*
X001880Y005150D02*
X002120Y005150D01*
X002244Y005249D02*
X001880Y005249D01*
X001880Y005347D02*
X002071Y005347D01*
X001975Y005446D02*
X001880Y005446D01*
X001880Y005544D02*
X001934Y005544D01*
X001800Y005725D02*
X002400Y005725D01*
X001947Y005938D02*
X000325Y005938D01*
X000325Y005840D02*
X001660Y005840D01*
X001561Y005741D02*
X000325Y005741D01*
X000325Y005643D02*
X001520Y005643D01*
X001520Y005544D02*
X000325Y005544D01*
X000325Y005446D02*
X001520Y005446D01*
X001520Y005347D02*
X000325Y005347D01*
X000325Y005249D02*
X001520Y005249D01*
X001520Y005150D02*
X000325Y005150D01*
X000325Y005052D02*
X001520Y005052D01*
X001520Y004953D02*
X000325Y004953D01*
X000325Y004855D02*
X001520Y004855D01*
X001520Y004756D02*
X000325Y004756D01*
X000325Y004658D02*
X001520Y004658D01*
X001520Y004559D02*
X000325Y004559D01*
X000325Y004461D02*
X001520Y004461D01*
X001499Y004362D02*
X000325Y004362D01*
X000325Y004264D02*
X001422Y004264D01*
X001390Y004165D02*
X000325Y004165D01*
X000325Y004067D02*
X001390Y004067D01*
X001429Y003968D02*
X000325Y003968D01*
X000325Y003870D02*
X001517Y003870D01*
X001700Y004125D02*
X001700Y005625D01*
X001800Y005725D01*
X002004Y006037D02*
X000325Y006037D01*
X000325Y006135D02*
X002103Y006135D01*
X002280Y006234D02*
X000325Y006234D01*
X000325Y006332D02*
X002086Y006332D01*
X001987Y006431D02*
X000325Y006431D01*
X000325Y006529D02*
X001940Y006529D01*
X001900Y006628D02*
X000325Y006628D01*
X000325Y006726D02*
X001900Y006726D01*
X001900Y006825D02*
X000325Y006825D01*
X000325Y006923D02*
X001941Y006923D01*
X001989Y007022D02*
X000325Y007022D01*
X000325Y007120D02*
X002088Y007120D01*
X002285Y007219D02*
X000325Y007219D01*
X000325Y007317D02*
X002101Y007317D01*
X002002Y007416D02*
X000325Y007416D01*
X000325Y007514D02*
X001946Y007514D01*
X001905Y007613D02*
X000325Y007613D01*
X000325Y007711D02*
X001900Y007711D01*
X001900Y007810D02*
X000325Y007810D01*
X000325Y007908D02*
X001935Y007908D01*
X001975Y008007D02*
X000325Y008007D01*
X000325Y008105D02*
X002073Y008105D01*
X004882Y007810D02*
X005181Y007810D01*
X005222Y007908D02*
X004980Y007908D01*
X005079Y008007D02*
X005310Y008007D01*
X005804Y008007D02*
X006069Y008007D01*
X005990Y007908D02*
X005893Y007908D01*
X005933Y007810D02*
X005950Y007810D01*
X006316Y007810D02*
X006373Y007810D01*
X006373Y007908D02*
X006316Y007908D01*
X006316Y008007D02*
X006373Y008007D01*
X004146Y005150D02*
X003446Y005150D01*
X003562Y005052D02*
X004186Y005052D01*
X004270Y004953D02*
X003603Y004953D01*
X003610Y004855D02*
X004270Y004855D01*
X004270Y004756D02*
X003586Y004756D01*
X003521Y004658D02*
X004270Y004658D01*
X003300Y004875D02*
X002400Y003975D01*
X002400Y003725D01*
X002766Y004067D02*
X003437Y004067D01*
X003338Y003968D02*
X002841Y003968D01*
X002881Y003870D02*
X003240Y003870D01*
X003141Y003771D02*
X002900Y003771D01*
X002900Y003673D02*
X003043Y003673D01*
X002944Y003574D02*
X002879Y003574D01*
X002846Y003476D02*
X002838Y003476D01*
X002828Y001998D02*
X003873Y001998D01*
X003665Y001900D02*
X002869Y001900D01*
X002900Y001801D02*
X003566Y001801D01*
X003468Y001703D02*
X002900Y001703D01*
X002891Y001604D02*
X003419Y001604D01*
X003455Y001689D02*
X003455Y001689D01*
X003455Y001689D01*
X003379Y001506D02*
X002850Y001506D01*
X002789Y001407D02*
X003338Y001407D01*
X003330Y001309D02*
X002691Y001309D01*
X002536Y001210D02*
X003330Y001210D01*
X003330Y001112D02*
X002721Y001112D01*
X002819Y001013D02*
X003350Y001013D01*
X003391Y000915D02*
X002863Y000915D01*
X002900Y000816D02*
X003432Y000816D01*
X003498Y000718D02*
X002900Y000718D01*
X002897Y000619D02*
X003596Y000619D01*
X003686Y000530D02*
X003686Y000530D01*
X003708Y000521D02*
X002856Y000521D01*
X002804Y000422D02*
X003946Y000422D01*
X004970Y001210D02*
X010937Y001210D01*
X010823Y001309D02*
X004970Y001309D01*
X004962Y001407D02*
X010744Y001407D01*
X010703Y001506D02*
X004921Y001506D01*
X004881Y001604D02*
X010675Y001604D01*
X010675Y001703D02*
X004832Y001703D01*
X004734Y001801D02*
X010679Y001801D01*
X010720Y001900D02*
X004635Y001900D01*
X004614Y001920D02*
X004614Y001920D01*
X004427Y001998D02*
X010766Y001998D01*
X008791Y002983D02*
X008623Y002983D01*
X002264Y001210D02*
X000325Y001210D01*
X000325Y001112D02*
X002079Y001112D01*
X001981Y001013D02*
X000325Y001013D01*
X000325Y000915D02*
X001937Y000915D01*
X001900Y000816D02*
X000325Y000816D01*
X000325Y000718D02*
X001900Y000718D01*
X001903Y000619D02*
X000325Y000619D01*
X000325Y000521D02*
X001944Y000521D01*
X001996Y000422D02*
X000325Y000422D01*
X000325Y001309D02*
X002109Y001309D01*
X002011Y001407D02*
X000325Y001407D01*
X000325Y001506D02*
X001950Y001506D01*
X001909Y001604D02*
X000325Y001604D01*
X000325Y001703D02*
X001900Y001703D01*
X001900Y001801D02*
X000325Y001801D01*
X000325Y001900D02*
X001931Y001900D01*
X001972Y001998D02*
X000325Y001998D01*
D20*
X001700Y004125D03*
X003300Y004875D03*
X004450Y005225D03*
X005500Y005225D03*
X006450Y004525D03*
X006950Y003325D03*
X005490Y003185D03*
X008300Y004725D03*
X006500Y006425D03*
D21*
X006550Y006425D01*
X006550Y007125D01*
X006650Y007225D01*
X007450Y007225D01*
X007450Y007236D01*
X007919Y007705D01*
X007950Y007736D01*
X007950Y008025D01*
X008113Y008188D01*
X009012Y008188D01*
X009337Y008188D01*
X009500Y008025D01*
X009500Y007711D01*
X009494Y007705D01*
X009520Y007705D01*
X009012Y008188D02*
X009012Y008701D01*
X007988Y008701D02*
X007474Y008701D01*
X007250Y008925D01*
X007250Y009279D01*
X007296Y009325D01*
X007296Y009871D01*
X007350Y009925D01*
X007850Y009925D01*
X007950Y009825D01*
X008050Y009825D01*
X008150Y009925D01*
X009735Y009925D01*
X009850Y009810D01*
X007988Y009449D02*
X007950Y009487D01*
X007950Y009825D01*
X005604Y009325D02*
X005600Y009321D01*
X005600Y008825D01*
X004750Y007975D01*
X003450Y007975D01*
X002700Y008725D01*
X002400Y008725D01*
M02*
