G75*
G70*
%OFA0B0*%
%FSLAX24Y24*%
%IPPOS*%
%LPD*%
%AMOC8*
5,1,8,0,0,1.08239X$1,22.5*
%
%ADD10R,0.0474X0.0513*%
%ADD11R,0.0513X0.0474*%
%ADD12C,0.0595*%
%ADD13R,0.0595X0.0595*%
%ADD14C,0.2580*%
%ADD15C,0.0867*%
%ADD16C,0.1380*%
%ADD17C,0.0820*%
%ADD18C,0.0440*%
D10*
X005000Y003840D03*
X005950Y003840D03*
X005950Y004510D03*
X005000Y004510D03*
X005000Y005290D03*
X005000Y005960D03*
X006000Y005960D03*
X006000Y005290D03*
X006950Y004510D03*
X007800Y004510D03*
X007800Y003840D03*
X006950Y003840D03*
X007450Y005290D03*
X008000Y005290D03*
X009050Y005940D03*
X008000Y005960D03*
X007450Y005960D03*
X009050Y006610D03*
D11*
X007685Y006675D03*
X007015Y006675D03*
X005835Y006675D03*
X005165Y006675D03*
D12*
X005557Y007705D03*
X006344Y007705D03*
X007132Y007705D03*
X007919Y007705D03*
X008707Y007705D03*
X009494Y007705D03*
X010281Y007705D03*
X011069Y007705D03*
X011856Y007705D03*
X012644Y007705D03*
X013037Y002745D03*
X012250Y002745D03*
X011463Y002745D03*
X010675Y002745D03*
X009888Y002745D03*
X009100Y002745D03*
X008313Y002745D03*
X007526Y002745D03*
X006738Y002745D03*
D13*
X005951Y002745D03*
D14*
X011219Y005225D03*
D15*
X011219Y008768D03*
X011219Y001682D03*
D16*
X014150Y001225D03*
X004150Y001225D03*
X004150Y009225D03*
X014150Y009225D03*
D17*
X002400Y000725D03*
X002400Y001725D03*
X002400Y002725D03*
X002400Y003725D03*
X002400Y004725D03*
X002400Y005725D03*
X002400Y006725D03*
X002400Y007725D03*
X002400Y008725D03*
X002400Y009725D03*
D18*
X006500Y006425D03*
X005500Y005225D03*
X004450Y005225D03*
X003300Y004875D03*
X001700Y004125D03*
X005490Y003185D03*
X006950Y003325D03*
X006450Y004525D03*
X008300Y004725D03*
M02*
