G75*
G70*
%OFA0B0*%
%FSLAX24Y24*%
%IPPOS*%
%LPD*%
%AMOC8*
5,1,8,0,0,1.08239X$1,22.5*
%
%ADD10R,0.0395X0.0395*%
%ADD11R,0.0474X0.0513*%
%ADD12R,0.0552X0.0297*%
%ADD13C,0.0595*%
%ADD14R,0.0595X0.0595*%
%ADD15C,0.2580*%
%ADD16C,0.0867*%
%ADD17R,0.0316X0.0749*%
%ADD18R,0.0277X0.0749*%
%ADD19C,0.1380*%
%ADD20C,0.0820*%
%ADD21R,0.0580X0.0659*%
%ADD22C,0.0440*%
D10*
X014700Y004880D03*
X014700Y005470D03*
D11*
X014700Y005990D03*
X014700Y006660D03*
X014700Y004410D03*
X014700Y003740D03*
X009850Y009140D03*
X009850Y009810D03*
D12*
X009012Y009449D03*
X009012Y008701D03*
X007988Y008701D03*
X007988Y009075D03*
X007988Y009449D03*
D13*
X007919Y007705D03*
X007132Y007705D03*
X006344Y007705D03*
X005557Y007705D03*
X008707Y007705D03*
X009494Y007705D03*
X010281Y007705D03*
X011069Y007705D03*
X011856Y007705D03*
X012644Y007705D03*
X013037Y002745D03*
X012250Y002745D03*
X011463Y002745D03*
X010675Y002745D03*
X009888Y002745D03*
X009100Y002745D03*
X008313Y002745D03*
X007526Y002745D03*
X006738Y002745D03*
D14*
X005951Y002745D03*
D15*
X011219Y005225D03*
D16*
X011219Y008768D03*
X011219Y001682D03*
D17*
X011974Y003475D03*
X012526Y003475D03*
D18*
X012250Y003475D03*
D19*
X014150Y001225D03*
X004150Y001225D03*
X004150Y009225D03*
X014150Y009225D03*
D20*
X002400Y000725D03*
X002400Y001725D03*
X002400Y002725D03*
X002400Y003725D03*
X002400Y004725D03*
X002400Y005725D03*
X002400Y006725D03*
X002400Y007725D03*
X002400Y008725D03*
X002400Y009725D03*
D21*
X005604Y009325D03*
X007296Y009325D03*
D22*
X006500Y006425D03*
X005500Y005225D03*
X004450Y005225D03*
X003300Y004875D03*
X001700Y004125D03*
X005490Y003185D03*
X006950Y003325D03*
X006450Y004525D03*
X008300Y004725D03*
M02*
