%
M48
M72
T01C0.0200
T02C0.0315
T03C0.0400
T04C0.0787
T05C0.1300
T06C0.2500
%
T01
X5490Y3185
X6950Y3325
X6450Y4525
X5500Y5225
X4450Y5225
X3300Y4875
X1700Y4125
X6500Y6425
X8300Y4725
T02
X8313Y2745
X9100Y2745
X9888Y2745
X10675Y2745
X11463Y2745
X12250Y2745
X13037Y2745
X7526Y2745
X6738Y2745
X5951Y2745
X6344Y7705
X5557Y7705
X7132Y7705
X7919Y7705
X8707Y7705
X9494Y7705
X10281Y7705
X11069Y7705
X11856Y7705
X12644Y7705
T03
X2400Y725
X2400Y1725
X2400Y2725
X2400Y3725
X2400Y4725
X2400Y5725
X2400Y6725
X2400Y7725
X2400Y8725
X2400Y9725
T04
X11219Y8768
X11219Y1682
T05
X14150Y1225
X4150Y1225
X4150Y9225
X14150Y9225
T06
X11219Y5225
M30
