G75*
%MOIN*%
%OFA0B0*%
%FSLAX24Y24*%
%IPPOS*%
%LPD*%
%AMOC8*
5,1,8,0,0,1.08239X$1,22.5*
%
%ADD10R,0.0315X0.0315*%
%ADD11R,0.0394X0.0433*%
%ADD12R,0.0433X0.0394*%
%ADD13R,0.0472X0.0217*%
%ADD14R,0.0256X0.1024*%
%ADD15R,0.0500X0.0579*%
D10*
X013630Y006580D03*
X013630Y007170D03*
D11*
X012530Y008540D03*
X012530Y009210D03*
X009980Y009160D03*
X009330Y009290D03*
X009330Y009960D03*
X009980Y008490D03*
X013030Y004960D03*
X013030Y004290D03*
X009180Y003990D03*
X009180Y004660D03*
D12*
X004145Y001875D03*
X004815Y001875D03*
X005745Y001725D03*
X006415Y001725D03*
X005265Y000725D03*
X004595Y000725D03*
X004615Y003275D03*
X003945Y003275D03*
X003945Y003875D03*
X004615Y003875D03*
X004615Y004875D03*
X003945Y004875D03*
X003945Y006875D03*
X004615Y006875D03*
X007895Y006825D03*
X008565Y006825D03*
X004865Y009925D03*
X004195Y009925D03*
D13*
X007468Y009899D03*
X008492Y009899D03*
X008492Y009525D03*
X008492Y009151D03*
X007468Y009151D03*
D14*
X011736Y002025D03*
X012130Y002025D03*
X012524Y002025D03*
D15*
X005926Y008875D03*
X004234Y008875D03*
M02*
