G75*
G70*
%OFA0B0*%
%FSLAX24Y24*%
%IPPOS*%
%LPD*%
%AMOC8*
5,1,8,0,0,1.08239X$1,22.5*
%
%ADD10C,0.0050*%
%ADD11C,0.0020*%
%ADD12R,0.0337X0.0000*%
%ADD13R,0.0337X0.0000*%
%ADD14R,0.0343X0.0000*%
%ADD15R,0.0348X0.0000*%
%ADD16R,0.0347X0.0000*%
%ADD17R,0.0350X0.0000*%
%ADD18R,0.0350X0.0000*%
%ADD19R,0.0352X0.0000*%
%ADD20R,0.0355X0.0000*%
%ADD21R,0.0354X0.0000*%
%ADD22R,0.0356X0.0000*%
%ADD23R,0.0358X0.0000*%
%ADD24R,0.0360X0.0000*%
%ADD25R,0.0361X0.0000*%
%ADD26R,0.0363X0.0000*%
%ADD27R,0.0362X0.0000*%
%ADD28R,0.0365X0.0000*%
%ADD29R,0.0364X0.0000*%
%ADD30R,0.0365X0.0000*%
%ADD31R,0.0366X0.0000*%
%ADD32R,0.0367X0.0000*%
%ADD33R,0.0368X0.0000*%
%ADD34R,0.0370X0.0000*%
%ADD35R,0.0369X0.0000*%
%ADD36R,0.0370X0.0000*%
%ADD37R,0.0371X0.0000*%
%ADD38R,0.0372X0.0000*%
%ADD39R,0.0372X0.0000*%
%ADD40R,0.0373X0.0000*%
%ADD41R,0.0374X0.0000*%
%ADD42R,0.0373X0.0000*%
%ADD43R,0.0375X0.0000*%
%ADD44R,0.0374X0.0000*%
%ADD45R,0.0375X0.0000*%
%ADD46R,0.0375X0.0000*%
%ADD47R,0.0376X0.0000*%
%ADD48R,0.0377X0.0000*%
%ADD49R,0.0377X0.0000*%
%ADD50R,0.0378X0.0000*%
%ADD51R,0.0378X0.0000*%
%ADD52R,0.0379X0.0000*%
%ADD53R,0.0380X0.0000*%
%ADD54R,0.0379X0.0000*%
%ADD55R,0.0380X0.0000*%
%ADD56R,0.0380X0.0000*%
%ADD57R,0.0381X0.0000*%
%ADD58R,0.0381X0.0000*%
%ADD59R,0.0382X0.0000*%
%ADD60R,0.0382X0.0000*%
%ADD61R,0.0382X0.0000*%
%ADD62R,0.0383X0.0000*%
%ADD63R,0.0376X0.0000*%
%ADD64R,0.0371X0.0000*%
%ADD65R,0.0370X0.0000*%
%ADD66R,0.0369X0.0000*%
%ADD67R,0.0368X0.0000*%
%ADD68R,0.0367X0.0000*%
%ADD69R,0.0366X0.0000*%
%ADD70R,0.0363X0.0000*%
%ADD71R,0.0362X0.0000*%
%ADD72R,0.0360X0.0000*%
%ADD73R,0.0359X0.0000*%
%ADD74R,0.0357X0.0000*%
%ADD75R,0.0355X0.0000*%
%ADD76R,0.0365X0.0000*%
%ADD77R,0.0353X0.0000*%
%ADD78R,0.0351X0.0000*%
%ADD79R,0.0348X0.0000*%
%ADD80R,0.0345X0.0000*%
%ADD81R,0.0340X0.0000*%
%ADD82R,0.0258X0.0000*%
%ADD83R,0.0257X0.0000*%
%ADD84R,0.0257X0.0000*%
%ADD85R,0.0338X0.0000*%
%ADD86R,0.0239X0.0000*%
%ADD87R,0.0256X0.0000*%
%ADD88R,0.0239X0.0000*%
%ADD89R,0.0256X0.0000*%
%ADD90R,0.0255X0.0000*%
%ADD91R,0.0238X0.0000*%
%ADD92R,0.0255X0.0000*%
%ADD93R,0.0238X0.0000*%
%ADD94R,0.0255X0.0000*%
%ADD95R,0.0238X0.0000*%
%ADD96R,0.0254X0.0000*%
%ADD97R,0.0237X0.0000*%
%ADD98R,0.0253X0.0000*%
%ADD99R,0.0253X0.0000*%
%ADD100R,0.0236X0.0000*%
%ADD101R,0.0253X0.0000*%
%ADD102R,0.0236X0.0000*%
%ADD103R,0.0252X0.0000*%
%ADD104R,0.0235X0.0000*%
%ADD105R,0.0251X0.0000*%
%ADD106R,0.0235X0.0000*%
%ADD107R,0.0251X0.0000*%
%ADD108R,0.0234X0.0000*%
%ADD109R,0.0250X0.0000*%
%ADD110R,0.0250X0.0000*%
%ADD111R,0.0234X0.0000*%
%ADD112R,0.0250X0.0000*%
%ADD113R,0.0233X0.0000*%
%ADD114R,0.0249X0.0000*%
%ADD115R,0.0233X0.0000*%
%ADD116R,0.0248X0.0000*%
%ADD117R,0.0232X0.0000*%
%ADD118R,0.0248X0.0000*%
%ADD119R,0.0248X0.0000*%
%ADD120R,0.0232X0.0000*%
%ADD121R,0.0247X0.0000*%
%ADD122R,0.0231X0.0000*%
%ADD123R,0.0246X0.0000*%
%ADD124R,0.0231X0.0000*%
%ADD125R,0.0246X0.0000*%
%ADD126R,0.0230X0.0000*%
%ADD127R,0.0245X0.0000*%
%ADD128R,0.0245X0.0000*%
%ADD129R,0.0230X0.0000*%
%ADD130R,0.0245X0.0000*%
%ADD131R,0.0229X0.0000*%
%ADD132R,0.0244X0.0000*%
%ADD133R,0.0229X0.0000*%
%ADD134R,0.0243X0.0000*%
%ADD135R,0.0228X0.0000*%
%ADD136R,0.0243X0.0000*%
%ADD137R,0.0243X0.0000*%
%ADD138R,0.0228X0.0000*%
%ADD139R,0.0242X0.0000*%
%ADD140R,0.0227X0.0000*%
%ADD141R,0.0241X0.0000*%
%ADD142R,0.0227X0.0000*%
%ADD143R,0.0241X0.0000*%
%ADD144R,0.0226X0.0000*%
%ADD145R,0.0240X0.0000*%
%ADD146R,0.0226X0.0000*%
%ADD147R,0.0240X0.0000*%
%ADD148R,0.0225X0.0000*%
%ADD149R,0.0240X0.0000*%
%ADD150R,0.0225X0.0000*%
%ADD151R,0.0224X0.0000*%
%ADD152R,0.0224X0.0000*%
%ADD153R,0.0223X0.0000*%
%ADD154R,0.0237X0.0000*%
%ADD155R,0.0223X0.0000*%
%ADD156R,0.0222X0.0000*%
%ADD157R,0.0222X0.0000*%
%ADD158R,0.0221X0.0000*%
%ADD159R,0.0235X0.0000*%
%ADD160R,0.0221X0.0000*%
%ADD161R,0.0220X0.0000*%
%ADD162R,0.0220X0.0000*%
%ADD163R,0.0219X0.0000*%
%ADD164R,0.0232X0.0000*%
%ADD165R,0.0219X0.0000*%
%ADD166R,0.0218X0.0000*%
%ADD167R,0.0218X0.0000*%
%ADD168R,0.0217X0.0000*%
%ADD169R,0.0230X0.0000*%
%ADD170R,0.0217X0.0000*%
%ADD171R,0.0216X0.0000*%
%ADD172R,0.0216X0.0000*%
%ADD173R,0.0215X0.0000*%
%ADD174R,0.0227X0.0000*%
%ADD175R,0.0215X0.0000*%
%ADD176R,0.0214X0.0000*%
%ADD177R,0.0214X0.0000*%
%ADD178R,0.0213X0.0000*%
%ADD179R,0.0225X0.0000*%
%ADD180R,0.0213X0.0000*%
%ADD181R,0.0213X0.0000*%
%ADD182R,0.0212X0.0000*%
%ADD183R,0.0211X0.0000*%
%ADD184R,0.0222X0.0000*%
%ADD185R,0.0211X0.0000*%
%ADD186R,0.0210X0.0000*%
%ADD187R,0.0210X0.0000*%
%ADD188R,0.0209X0.0000*%
%ADD189R,0.0220X0.0000*%
%ADD190R,0.0209X0.0000*%
%ADD191R,0.0208X0.0000*%
%ADD192R,0.0208X0.0000*%
%ADD193R,0.0208X0.0000*%
%ADD194R,0.0217X0.0000*%
%ADD195R,0.0207X0.0000*%
%ADD196R,0.0206X0.0000*%
%ADD197R,0.0206X0.0000*%
%ADD198R,0.0205X0.0000*%
%ADD199R,0.0215X0.0000*%
%ADD200R,0.0205X0.0000*%
%ADD201R,0.0204X0.0000*%
%ADD202R,0.0204X0.0000*%
%ADD203R,0.0203X0.0000*%
%ADD204R,0.0212X0.0000*%
%ADD205R,0.0203X0.0000*%
%ADD206R,0.0203X0.0000*%
%ADD207R,0.0202X0.0000*%
%ADD208R,0.0201X0.0000*%
%ADD209R,0.0210X0.0000*%
%ADD210R,0.0201X0.0000*%
%ADD211R,0.0200X0.0000*%
%ADD212R,0.0200X0.0000*%
%ADD213R,0.0199X0.0000*%
%ADD214R,0.0199X0.0000*%
%ADD215R,0.0207X0.0000*%
%ADD216R,0.0198X0.0000*%
%ADD217R,0.0198X0.0000*%
%ADD218R,0.0198X0.0000*%
%ADD219R,0.0197X0.0000*%
%ADD220R,0.0205X0.0000*%
%ADD221R,0.0196X0.0000*%
%ADD222R,0.0196X0.0000*%
%ADD223R,0.0195X0.0000*%
%ADD224R,0.0195X0.0000*%
%ADD225R,0.0202X0.0000*%
%ADD226R,0.0194X0.0000*%
%ADD227R,0.0194X0.0000*%
%ADD228R,0.0193X0.0000*%
%ADD229R,0.0193X0.0000*%
%ADD230R,0.0200X0.0000*%
%ADD231R,0.0192X0.0000*%
%ADD232R,0.0192X0.0000*%
%ADD233R,0.0191X0.0000*%
%ADD234R,0.0191X0.0000*%
%ADD235R,0.0197X0.0000*%
%ADD236R,0.0190X0.0000*%
%ADD237R,0.0190X0.0000*%
%ADD238R,0.0189X0.0000*%
%ADD239R,0.0189X0.0000*%
%ADD240R,0.0195X0.0000*%
%ADD241R,0.0188X0.0000*%
%ADD242R,0.0188X0.0000*%
%ADD243R,0.0187X0.0000*%
%ADD244R,0.0187X0.0000*%
%ADD245R,0.0192X0.0000*%
%ADD246R,0.0186X0.0000*%
%ADD247R,0.0186X0.0000*%
%ADD248R,0.0185X0.0000*%
%ADD249R,0.0185X0.0000*%
%ADD250R,0.0190X0.0000*%
%ADD251R,0.0184X0.0000*%
%ADD252R,0.0184X0.0000*%
%ADD253R,0.0183X0.0000*%
%ADD254R,0.0183X0.0000*%
%ADD255R,0.0187X0.0000*%
%ADD256R,0.0182X0.0000*%
%ADD257R,0.0182X0.0000*%
%ADD258R,0.0181X0.0000*%
%ADD259R,0.0181X0.0000*%
%ADD260R,0.0185X0.0000*%
%ADD261R,0.0180X0.0000*%
%ADD262R,0.0180X0.0000*%
%ADD263R,0.0179X0.0000*%
%ADD264R,0.0179X0.0000*%
%ADD265R,0.0182X0.0000*%
%ADD266R,0.0178X0.0000*%
%ADD267R,0.0178X0.0000*%
%ADD268R,0.0177X0.0000*%
%ADD269R,0.0177X0.0000*%
%ADD270R,0.0180X0.0000*%
%ADD271R,0.0176X0.0000*%
%ADD272R,0.0176X0.0000*%
%ADD273R,0.0175X0.0000*%
%ADD274R,0.0175X0.0000*%
%ADD275R,0.0174X0.0000*%
%ADD276R,0.0177X0.0000*%
%ADD277R,0.0174X0.0000*%
%ADD278R,0.0173X0.0000*%
%ADD279R,0.0173X0.0000*%
%ADD280R,0.0173X0.0000*%
%ADD281R,0.0175X0.0000*%
%ADD282R,0.0172X0.0000*%
%ADD283R,0.0171X0.0000*%
%ADD284R,0.0171X0.0000*%
%ADD285R,0.0170X0.0000*%
%ADD286R,0.0172X0.0000*%
%ADD287R,0.0170X0.0000*%
%ADD288R,0.0169X0.0000*%
%ADD289R,0.0169X0.0000*%
%ADD290R,0.0168X0.0000*%
%ADD291R,0.0170X0.0000*%
%ADD292R,0.0168X0.0000*%
%ADD293R,0.0168X0.0000*%
%ADD294R,0.0167X0.0000*%
%ADD295R,0.0166X0.0000*%
%ADD296R,0.0167X0.0000*%
%ADD297R,0.0166X0.0000*%
%ADD298R,0.0165X0.0000*%
%ADD299R,0.0165X0.0000*%
%ADD300R,0.0164X0.0000*%
%ADD301R,0.0165X0.0000*%
%ADD302R,0.0164X0.0000*%
%ADD303R,0.0163X0.0000*%
%ADD304R,0.0163X0.0000*%
%ADD305R,0.0163X0.0000*%
%ADD306R,0.0162X0.0000*%
%ADD307R,0.0162X0.0000*%
%ADD308R,0.0161X0.0000*%
%ADD309R,0.0161X0.0000*%
%ADD310R,0.0160X0.0000*%
%ADD311R,0.0160X0.0000*%
%ADD312R,0.0160X0.0000*%
%ADD313R,0.0159X0.0000*%
%ADD314R,0.0159X0.0000*%
%ADD315R,0.0158X0.0000*%
%ADD316R,0.0158X0.0000*%
%ADD317R,0.0158X0.0000*%
%ADD318R,0.0157X0.0000*%
%ADD319R,0.0156X0.0000*%
%ADD320R,0.0156X0.0000*%
%ADD321R,0.0157X0.0000*%
%ADD322R,0.0155X0.0000*%
%ADD323R,0.0155X0.0000*%
%ADD324R,0.0155X0.0000*%
%ADD325R,0.0154X0.0000*%
%ADD326R,0.0153X0.0000*%
%ADD327R,0.0153X0.0000*%
%ADD328R,0.0154X0.0000*%
%ADD329R,0.0152X0.0000*%
%ADD330R,0.0152X0.0000*%
%ADD331R,0.0151X0.0000*%
%ADD332R,0.0151X0.0000*%
%ADD333R,0.0150X0.0000*%
%ADD334R,0.0150X0.0000*%
%ADD335R,0.0150X0.0000*%
%ADD336R,0.0152X0.0000*%
%ADD337R,0.0149X0.0000*%
%ADD338R,0.0148X0.0000*%
%ADD339R,0.0148X0.0000*%
%ADD340R,0.0260X0.0000*%
%ADD341R,0.0259X0.0000*%
%ADD342R,0.0868X0.0000*%
%ADD343R,0.0321X0.0000*%
%ADD344R,0.0305X0.0000*%
%ADD345R,0.0867X0.0000*%
%ADD346R,0.0867X0.0000*%
%ADD347R,0.0866X0.0000*%
%ADD348R,0.0866X0.0000*%
%ADD349R,0.0865X0.0000*%
%ADD350R,0.0865X0.0000*%
%ADD351R,0.0864X0.0000*%
%ADD352R,0.0864X0.0000*%
%ADD353R,0.0863X0.0000*%
%ADD354R,0.0863X0.0000*%
%ADD355R,0.0862X0.0000*%
%ADD356R,0.0862X0.0000*%
%ADD357R,0.0861X0.0000*%
%ADD358R,0.0861X0.0000*%
%ADD359R,0.0860X0.0000*%
%ADD360R,0.0859X0.0000*%
%ADD361R,0.0858X0.0000*%
%ADD362R,0.0857X0.0000*%
%ADD363R,0.0856X0.0000*%
%ADD364R,0.0855X0.0000*%
%ADD365R,0.0855X0.0000*%
%ADD366R,0.0855X0.0000*%
%ADD367R,0.0854X0.0000*%
%ADD368R,0.0853X0.0000*%
%ADD369R,0.0853X0.0000*%
%ADD370R,0.0853X0.0000*%
%ADD371R,0.0852X0.0000*%
%ADD372R,0.0852X0.0000*%
%ADD373R,0.0851X0.0000*%
%ADD374R,0.0850X0.0000*%
%ADD375R,0.0850X0.0000*%
%ADD376R,0.0850X0.0000*%
%ADD377R,0.0849X0.0000*%
%ADD378R,0.0848X0.0000*%
%ADD379R,0.0848X0.0000*%
%ADD380R,0.0848X0.0000*%
%ADD381R,0.0847X0.0000*%
%ADD382R,0.0847X0.0000*%
%ADD383R,0.0846X0.0000*%
%ADD384R,0.0845X0.0000*%
%ADD385R,0.0845X0.0000*%
%ADD386R,0.0845X0.0000*%
%ADD387R,0.0843X0.0000*%
%ADD388R,0.0843X0.0000*%
%ADD389R,0.0841X0.0000*%
%ADD390R,0.0840X0.0000*%
%ADD391R,0.0839X0.0000*%
%ADD392R,0.0838X0.0000*%
%ADD393R,0.0837X0.0000*%
%ADD394R,0.0836X0.0000*%
%ADD395R,0.0835X0.0000*%
%ADD396R,0.0834X0.0000*%
%ADD397R,0.0833X0.0000*%
%ADD398R,0.0832X0.0000*%
%ADD399R,0.0831X0.0000*%
%ADD400R,0.0830X0.0000*%
%ADD401R,0.0829X0.0000*%
%ADD402R,0.0828X0.0000*%
%ADD403R,0.0827X0.0000*%
%ADD404R,0.0826X0.0000*%
%ADD405R,0.0825X0.0000*%
%ADD406R,0.0824X0.0000*%
%ADD407R,0.0823X0.0000*%
%ADD408R,0.0822X0.0000*%
%ADD409R,0.0821X0.0000*%
%ADD410R,0.0820X0.0000*%
%ADD411R,0.0819X0.0000*%
%ADD412R,0.0818X0.0000*%
%ADD413R,0.0817X0.0000*%
%ADD414R,0.0816X0.0000*%
%ADD415R,0.0815X0.0000*%
%ADD416R,0.0814X0.0000*%
%ADD417R,0.0813X0.0000*%
%ADD418R,0.0812X0.0000*%
%ADD419R,0.0811X0.0000*%
%ADD420R,0.0810X0.0000*%
%ADD421R,0.0808X0.0000*%
%ADD422R,0.0808X0.0000*%
%ADD423R,0.0807X0.0000*%
%ADD424R,0.0805X0.0000*%
%ADD425R,0.0805X0.0000*%
%ADD426R,0.0803X0.0000*%
%ADD427R,0.0803X0.0000*%
%ADD428R,0.0802X0.0000*%
%ADD429R,0.0800X0.0000*%
%ADD430R,0.0800X0.0000*%
%ADD431R,0.0798X0.0000*%
%ADD432R,0.0798X0.0000*%
%ADD433R,0.0797X0.0000*%
%ADD434R,0.0795X0.0000*%
%ADD435R,0.0795X0.0000*%
%ADD436R,0.0793X0.0000*%
%ADD437R,0.0793X0.0000*%
%ADD438R,0.0791X0.0000*%
%ADD439R,0.0790X0.0000*%
%ADD440R,0.0789X0.0000*%
%ADD441R,0.0788X0.0000*%
%ADD442R,0.0787X0.0000*%
%ADD443R,0.0786X0.0000*%
%ADD444R,0.0785X0.0000*%
%ADD445R,0.0784X0.0000*%
%ADD446R,0.0783X0.0000*%
%ADD447R,0.0782X0.0000*%
%ADD448R,0.0781X0.0000*%
%ADD449R,0.0780X0.0000*%
%ADD450R,0.0779X0.0000*%
%ADD451R,0.0778X0.0000*%
%ADD452R,0.0777X0.0000*%
%ADD453R,0.0776X0.0000*%
%ADD454R,0.0775X0.0000*%
%ADD455R,0.0774X0.0000*%
%ADD456R,0.0773X0.0000*%
%ADD457R,0.0772X0.0000*%
%ADD458R,0.0771X0.0000*%
%ADD459R,0.0770X0.0000*%
%ADD460R,0.0769X0.0000*%
%ADD461R,0.0768X0.0000*%
%ADD462R,0.0767X0.0000*%
%ADD463R,0.0766X0.0000*%
%ADD464R,0.0765X0.0000*%
%ADD465R,0.0764X0.0000*%
%ADD466R,0.0763X0.0000*%
%ADD467R,0.0762X0.0000*%
%ADD468R,0.0761X0.0000*%
%ADD469R,0.0760X0.0000*%
%ADD470R,0.0758X0.0000*%
%ADD471R,0.0757X0.0000*%
%ADD472R,0.0757X0.0000*%
%ADD473R,0.0755X0.0000*%
%ADD474R,0.0755X0.0000*%
%ADD475R,0.0753X0.0000*%
%ADD476R,0.0752X0.0000*%
%ADD477R,0.0752X0.0000*%
%ADD478R,0.0750X0.0000*%
%ADD479R,0.0750X0.0000*%
%ADD480R,0.0748X0.0000*%
%ADD481R,0.0747X0.0000*%
%ADD482R,0.0747X0.0000*%
%ADD483R,0.0745X0.0000*%
%ADD484R,0.0745X0.0000*%
%ADD485R,0.0743X0.0000*%
%ADD486R,0.0742X0.0000*%
%ADD487R,0.0741X0.0000*%
%ADD488R,0.0740X0.0000*%
%ADD489R,0.0739X0.0000*%
%ADD490R,0.0738X0.0000*%
%ADD491R,0.0737X0.0000*%
%ADD492R,0.0736X0.0000*%
%ADD493R,0.0735X0.0000*%
%ADD494R,0.0734X0.0000*%
%ADD495R,0.0733X0.0000*%
%ADD496R,0.0732X0.0000*%
%ADD497R,0.0731X0.0000*%
%ADD498R,0.0730X0.0000*%
%ADD499R,0.0729X0.0000*%
%ADD500R,0.0728X0.0000*%
%ADD501R,0.0727X0.0000*%
%ADD502R,0.0726X0.0000*%
%ADD503R,0.0725X0.0000*%
%ADD504R,0.0724X0.0000*%
%ADD505R,0.0723X0.0000*%
%ADD506R,0.0722X0.0000*%
%ADD507R,0.0721X0.0000*%
%ADD508R,0.0720X0.0000*%
%ADD509R,0.0719X0.0000*%
%ADD510R,0.0718X0.0000*%
%ADD511R,0.0717X0.0000*%
%ADD512R,0.0716X0.0000*%
%ADD513R,0.0715X0.0000*%
%ADD514R,0.0714X0.0000*%
%ADD515R,0.0713X0.0000*%
%ADD516R,0.0712X0.0000*%
%ADD517R,0.0711X0.0000*%
%ADD518R,0.0710X0.0000*%
%ADD519R,0.0709X0.0000*%
%ADD520R,0.0707X0.0000*%
%ADD521R,0.0707X0.0000*%
%ADD522R,0.0705X0.0000*%
%ADD523R,0.0705X0.0000*%
%ADD524R,0.0703X0.0000*%
%ADD525R,0.0703X0.0000*%
%ADD526R,0.0702X0.0000*%
%ADD527R,0.0700X0.0000*%
%ADD528R,0.0700X0.0000*%
%ADD529R,0.0698X0.0000*%
%ADD530R,0.0698X0.0000*%
%ADD531R,0.0697X0.0000*%
%ADD532R,0.0695X0.0000*%
%ADD533R,0.0695X0.0000*%
%ADD534R,0.0693X0.0000*%
%ADD535R,0.0692X0.0000*%
%ADD536R,0.0691X0.0000*%
%ADD537R,0.0690X0.0000*%
%ADD538R,0.0689X0.0000*%
%ADD539R,0.0688X0.0000*%
%ADD540R,0.0687X0.0000*%
%ADD541R,0.0686X0.0000*%
%ADD542R,0.0685X0.0000*%
%ADD543R,0.0684X0.0000*%
%ADD544R,0.0683X0.0000*%
%ADD545R,0.0682X0.0000*%
%ADD546R,0.0681X0.0000*%
%ADD547R,0.0680X0.0000*%
%ADD548R,0.0679X0.0000*%
%ADD549R,0.0678X0.0000*%
%ADD550R,0.0677X0.0000*%
%ADD551R,0.0676X0.0000*%
%ADD552R,0.0675X0.0000*%
%ADD553R,0.0674X0.0000*%
%ADD554R,0.0673X0.0000*%
%ADD555R,0.0672X0.0000*%
%ADD556R,0.0671X0.0000*%
%ADD557R,0.0670X0.0000*%
%ADD558R,0.0669X0.0000*%
%ADD559R,0.0668X0.0000*%
%ADD560R,0.0667X0.0000*%
%ADD561R,0.0666X0.0000*%
%ADD562R,0.0665X0.0000*%
%ADD563R,0.0664X0.0000*%
%ADD564R,0.0663X0.0000*%
%ADD565R,0.0662X0.0000*%
%ADD566R,0.0661X0.0000*%
%ADD567R,0.0660X0.0000*%
%ADD568R,0.0659X0.0000*%
%ADD569R,0.0658X0.0000*%
%ADD570R,0.0657X0.0000*%
%ADD571R,0.0655X0.0000*%
%ADD572R,0.0655X0.0000*%
%ADD573R,0.0653X0.0000*%
%ADD574R,0.0653X0.0000*%
%ADD575R,0.0652X0.0000*%
%ADD576R,0.0650X0.0000*%
%ADD577R,0.0650X0.0000*%
%ADD578R,0.0648X0.0000*%
%ADD579R,0.0648X0.0000*%
%ADD580R,0.0647X0.0000*%
%ADD581R,0.0645X0.0000*%
%ADD582R,0.0645X0.0000*%
%ADD583R,0.0643X0.0000*%
%ADD584R,0.0642X0.0000*%
%ADD585R,0.0641X0.0000*%
%ADD586R,0.0640X0.0000*%
%ADD587R,0.0639X0.0000*%
%ADD588R,0.0638X0.0000*%
%ADD589R,0.0637X0.0000*%
%ADD590R,0.0636X0.0000*%
%ADD591R,0.0635X0.0000*%
%ADD592R,0.0634X0.0000*%
%ADD593R,0.0633X0.0000*%
%ADD594R,0.0632X0.0000*%
%ADD595R,0.0631X0.0000*%
%ADD596R,0.0630X0.0000*%
%ADD597R,0.0629X0.0000*%
%ADD598R,0.0628X0.0000*%
%ADD599R,0.0627X0.0000*%
%ADD600R,0.0626X0.0000*%
%ADD601R,0.0625X0.0000*%
%ADD602R,0.0624X0.0000*%
%ADD603R,0.0623X0.0000*%
%ADD604R,0.0622X0.0000*%
%ADD605R,0.0621X0.0000*%
%ADD606R,0.0620X0.0000*%
%ADD607R,0.0619X0.0000*%
%ADD608R,0.0618X0.0000*%
%ADD609R,0.0617X0.0000*%
%ADD610R,0.0616X0.0000*%
%ADD611R,0.0615X0.0000*%
%ADD612R,0.0614X0.0000*%
%ADD613R,0.0613X0.0000*%
%ADD614R,0.0612X0.0000*%
%ADD615R,0.0611X0.0000*%
%ADD616R,0.0610X0.0000*%
%ADD617R,0.0609X0.0000*%
%ADD618R,0.0607X0.0000*%
%ADD619R,0.0607X0.0000*%
%ADD620R,0.0605X0.0000*%
%ADD621R,0.0605X0.0000*%
%ADD622R,0.0603X0.0000*%
%ADD623R,0.0602X0.0000*%
%ADD624R,0.0602X0.0000*%
%ADD625R,0.0600X0.0000*%
%ADD626R,0.0600X0.0000*%
%ADD627R,0.0598X0.0000*%
%ADD628R,0.0597X0.0000*%
%ADD629R,0.0597X0.0000*%
%ADD630R,0.0595X0.0000*%
%ADD631R,0.0595X0.0000*%
%ADD632R,0.0593X0.0000*%
%ADD633R,0.0592X0.0000*%
%ADD634R,0.0591X0.0000*%
%ADD635R,0.0590X0.0000*%
%ADD636R,0.0589X0.0000*%
%ADD637R,0.0588X0.0000*%
%ADD638R,0.0587X0.0000*%
%ADD639R,0.0586X0.0000*%
%ADD640R,0.0585X0.0000*%
%ADD641R,0.0584X0.0000*%
%ADD642R,0.0583X0.0000*%
%ADD643R,0.0582X0.0000*%
%ADD644R,0.0581X0.0000*%
%ADD645R,0.0580X0.0000*%
%ADD646R,0.0579X0.0000*%
%ADD647R,0.0578X0.0000*%
%ADD648R,0.0577X0.0000*%
%ADD649R,0.0576X0.0000*%
%ADD650R,0.0575X0.0000*%
%ADD651R,0.0574X0.0000*%
%ADD652R,0.0573X0.0000*%
%ADD653R,0.0571X0.0000*%
%ADD654R,0.0568X0.0000*%
%ADD655R,0.0565X0.0000*%
%ADD656R,0.0563X0.0000*%
%ADD657R,0.0560X0.0000*%
%ADD658R,0.0557X0.0000*%
%ADD659R,0.0554X0.0000*%
%ADD660R,0.0551X0.0000*%
%ADD661R,0.0548X0.0000*%
%ADD662R,0.0545X0.0000*%
%ADD663R,0.0542X0.0000*%
%ADD664R,0.0537X0.0000*%
%ADD665R,0.0533X0.0000*%
%ADD666R,0.0530X0.0000*%
%ADD667R,0.0526X0.0000*%
%ADD668R,0.0522X0.0000*%
%ADD669R,0.0518X0.0000*%
%ADD670R,0.0513X0.0000*%
%ADD671R,0.0508X0.0000*%
%ADD672R,0.0503X0.0000*%
%ADD673R,0.0496X0.0000*%
%ADD674R,0.0488X0.0000*%
%ADD675R,0.0477X0.0000*%
%ADD676C,0.0000*%
%ADD677R,0.0300X0.0180*%
%ADD678C,0.0040*%
%ADD679C,0.0220*%
%ADD680C,0.0080*%
D10*
X000925Y001591D02*
X000925Y001825D01*
X000925Y001708D02*
X000575Y001708D01*
X000633Y001960D02*
X000925Y001960D01*
X000925Y002193D02*
X000633Y002193D01*
X000575Y002135D01*
X000575Y002018D01*
X000633Y001960D01*
X000633Y002328D02*
X000575Y002386D01*
X000575Y002503D01*
X000633Y002561D01*
X000867Y002561D01*
X000925Y002503D01*
X000925Y002386D01*
X000867Y002328D01*
X000633Y002328D01*
X000575Y002696D02*
X000750Y002871D01*
X000692Y002930D02*
X000925Y002696D01*
X000925Y002930D02*
X000575Y002930D01*
X000575Y003065D02*
X000809Y003065D01*
X000925Y003181D01*
X000809Y003298D01*
X000575Y003298D01*
X000575Y003433D02*
X000575Y003666D01*
X000925Y003666D01*
X000925Y003433D01*
X000750Y003550D02*
X000750Y003666D01*
X000750Y003801D02*
X000692Y003860D01*
X000692Y004035D01*
X000575Y004035D02*
X000925Y004035D01*
X000925Y003860D01*
X000867Y003801D01*
X000750Y003801D01*
X000692Y003918D02*
X000575Y003801D01*
X000633Y004169D02*
X000575Y004228D01*
X000575Y004403D01*
X000925Y004403D01*
X000925Y004228D01*
X000867Y004169D01*
X000809Y004169D01*
X000750Y004228D01*
X000750Y004403D01*
X000750Y004228D02*
X000692Y004169D01*
X000633Y004169D01*
X000633Y004906D02*
X000575Y004964D01*
X000575Y005081D01*
X000633Y005140D01*
X000867Y004906D01*
X000633Y004906D01*
X000867Y004906D02*
X000925Y004964D01*
X000925Y005081D01*
X000867Y005140D01*
X000633Y005140D01*
X000633Y005274D02*
X000575Y005333D01*
X000575Y005450D01*
X000633Y005508D01*
X000692Y005508D01*
X000750Y005450D01*
X000750Y005333D01*
X000692Y005274D01*
X000633Y005274D01*
X000750Y005333D02*
X000809Y005274D01*
X000867Y005274D01*
X000925Y005333D01*
X000925Y005450D01*
X000867Y005508D01*
X000809Y005508D01*
X000750Y005450D01*
X000633Y005643D02*
X000575Y005701D01*
X000575Y005818D01*
X000633Y005876D01*
X000867Y005643D01*
X000633Y005643D01*
X000867Y005643D02*
X000925Y005701D01*
X000925Y005818D01*
X000867Y005876D01*
X000633Y005876D01*
X000633Y006011D02*
X000575Y006069D01*
X000575Y006186D01*
X000633Y006245D01*
X000750Y006128D02*
X000750Y006069D01*
X000692Y006011D01*
X000633Y006011D01*
X000750Y006069D02*
X000809Y006011D01*
X000867Y006011D01*
X000925Y006069D01*
X000925Y006186D01*
X000867Y006245D01*
X000867Y006379D02*
X000925Y006438D01*
X000925Y006555D01*
X000867Y006613D01*
X000809Y006613D01*
X000750Y006555D01*
X000750Y006438D01*
X000692Y006379D01*
X000633Y006379D01*
X000575Y006438D01*
X000575Y006555D01*
X000633Y006613D01*
X000575Y006748D02*
X000925Y006748D01*
X000925Y006981D02*
X000575Y006748D01*
X000575Y006981D02*
X000925Y006981D01*
X000867Y007116D02*
X000633Y007116D01*
X000575Y007174D01*
X000575Y007350D01*
X000925Y007350D01*
X000925Y007174D01*
X000867Y007116D01*
X000809Y007484D02*
X000575Y007484D01*
X000750Y007484D02*
X000750Y007718D01*
X000809Y007718D02*
X000575Y007718D01*
X000809Y007718D02*
X000925Y007601D01*
X000809Y007484D01*
X000575Y008215D02*
X000575Y008332D01*
X000575Y008273D02*
X000809Y008273D01*
X000809Y008332D01*
X000925Y008273D02*
X000984Y008273D01*
X000809Y008466D02*
X000575Y008466D01*
X000750Y008466D02*
X000750Y008700D01*
X000809Y008700D02*
X000575Y008700D01*
X000809Y008700D02*
X000925Y008583D01*
X000809Y008466D01*
X000750Y003298D02*
X000750Y003065D01*
D11*
X000360Y000478D02*
X000360Y000384D01*
X000407Y000338D01*
X000594Y000338D01*
X000407Y000524D01*
X000360Y000478D01*
X000407Y000524D02*
X000594Y000524D01*
X000640Y000478D01*
X000640Y000384D01*
X000594Y000338D01*
X000407Y000616D02*
X000360Y000616D01*
X000360Y000663D01*
X000407Y000663D01*
X000407Y000616D01*
X000360Y000752D02*
X000360Y000939D01*
X000360Y000845D02*
X000640Y000845D01*
X000547Y000939D01*
X000547Y001028D02*
X000360Y001122D01*
X000547Y001215D01*
X001260Y001115D02*
X001260Y000962D01*
X001260Y000885D02*
X001260Y000731D01*
X001260Y000655D02*
X001260Y000540D01*
X001298Y000501D01*
X001452Y000501D01*
X001490Y000540D01*
X001490Y000655D01*
X001260Y000655D01*
X001375Y000808D02*
X001375Y000885D01*
X001490Y000885D02*
X001260Y000885D01*
X001490Y000885D02*
X001490Y000731D01*
X001490Y001115D02*
X001260Y001115D01*
X001298Y001531D02*
X001452Y001531D01*
X001490Y001570D01*
X001490Y001685D01*
X001260Y001685D01*
X001260Y001570D01*
X001298Y001531D01*
X001530Y001465D02*
X001530Y001925D01*
X001490Y001915D02*
X001490Y001800D01*
X001452Y001762D01*
X001375Y001762D01*
X001337Y001800D01*
X001337Y001915D01*
X001260Y001915D02*
X001490Y001915D01*
X001490Y002401D02*
X001490Y002555D01*
X001490Y002478D02*
X001260Y002478D01*
X001298Y002631D02*
X001260Y002670D01*
X001260Y002746D01*
X001298Y002785D01*
X001260Y002862D02*
X001337Y002938D01*
X001337Y002900D02*
X001337Y003015D01*
X001260Y003015D02*
X001490Y003015D01*
X001490Y002900D01*
X001452Y002862D01*
X001375Y002862D01*
X001337Y002900D01*
X001413Y002785D02*
X001375Y002746D01*
X001375Y002670D01*
X001337Y002631D01*
X001298Y002631D01*
X001452Y002631D02*
X001490Y002670D01*
X001490Y002746D01*
X001452Y002785D01*
X001413Y002785D01*
X001490Y003271D02*
X001337Y003424D01*
X001375Y003386D02*
X001260Y003271D01*
X001260Y003424D02*
X001490Y003424D01*
X001260Y003501D02*
X001260Y003655D01*
X001490Y003655D01*
X001452Y003731D02*
X001490Y003770D01*
X001490Y003846D01*
X001452Y003885D01*
X001298Y003885D01*
X001260Y003846D01*
X001260Y003770D01*
X001298Y003731D01*
X001298Y003962D02*
X001260Y004000D01*
X001260Y004077D01*
X001298Y004115D01*
X001375Y004077D02*
X001375Y004000D01*
X001337Y003962D01*
X001298Y003962D01*
X001452Y003962D02*
X001490Y004000D01*
X001490Y004077D01*
X001452Y004115D01*
X001413Y004115D01*
X001375Y004077D01*
X001260Y004348D02*
X001260Y004424D01*
X001260Y004386D02*
X001490Y004386D01*
X001490Y004424D02*
X001490Y004348D01*
X001452Y004501D02*
X001490Y004540D01*
X001490Y004616D01*
X001452Y004655D01*
X001413Y004655D01*
X001375Y004616D01*
X001375Y004540D01*
X001337Y004501D01*
X001298Y004501D01*
X001260Y004540D01*
X001260Y004616D01*
X001298Y004655D01*
X001298Y004731D02*
X001452Y004731D01*
X001490Y004770D01*
X001490Y004846D01*
X001452Y004885D01*
X001298Y004885D01*
X001260Y004846D01*
X001260Y004770D01*
X001298Y004731D01*
X001260Y004962D02*
X001490Y004962D01*
X001413Y005038D01*
X001490Y005115D01*
X001260Y005115D01*
X001298Y005348D02*
X001452Y005348D01*
X001490Y005386D01*
X001490Y005463D01*
X001452Y005501D01*
X001298Y005501D01*
X001260Y005463D01*
X001260Y005386D01*
X001298Y005348D01*
X001298Y005578D02*
X001260Y005616D01*
X001260Y005693D01*
X001298Y005731D01*
X001260Y005808D02*
X001260Y005885D01*
X001260Y005846D02*
X001490Y005846D01*
X001490Y005808D02*
X001490Y005885D01*
X001490Y005962D02*
X001260Y005962D01*
X001260Y006115D02*
X001490Y006115D01*
X001413Y006038D01*
X001490Y005962D01*
X001452Y005731D02*
X001413Y005731D01*
X001375Y005693D01*
X001375Y005616D01*
X001337Y005578D01*
X001298Y005578D01*
X001452Y005578D02*
X001490Y005616D01*
X001490Y005693D01*
X001452Y005731D01*
X001530Y006465D02*
X001530Y006925D01*
X001490Y006877D02*
X001452Y006915D01*
X001298Y006915D01*
X001260Y006877D01*
X001260Y006800D01*
X001298Y006762D01*
X001298Y006685D02*
X001260Y006646D01*
X001260Y006570D01*
X001298Y006531D01*
X001337Y006531D01*
X001375Y006570D01*
X001375Y006646D01*
X001413Y006685D01*
X001452Y006685D01*
X001490Y006646D01*
X001490Y006570D01*
X001452Y006531D01*
X001452Y006762D02*
X001490Y006800D01*
X001490Y006877D01*
X001452Y007401D02*
X001413Y007401D01*
X001375Y007440D01*
X001337Y007401D01*
X001298Y007401D01*
X001260Y007440D01*
X001260Y007516D01*
X001298Y007555D01*
X001337Y007631D02*
X001490Y007631D01*
X001452Y007555D02*
X001490Y007516D01*
X001490Y007440D01*
X001452Y007401D01*
X001375Y007440D02*
X001375Y007478D01*
X001337Y007631D02*
X001260Y007708D01*
X001337Y007785D01*
X001490Y007785D01*
X001452Y007862D02*
X001413Y007862D01*
X001375Y007900D01*
X001337Y007862D01*
X001298Y007862D01*
X001260Y007900D01*
X001260Y007977D01*
X001298Y008015D01*
X001375Y007938D02*
X001375Y007900D01*
X001452Y007862D02*
X001490Y007900D01*
X001490Y007977D01*
X001452Y008015D01*
X001490Y008531D02*
X001337Y008531D01*
X001260Y008608D01*
X001337Y008685D01*
X001490Y008685D01*
X001490Y008762D02*
X001490Y008915D01*
X001375Y008915D01*
X001413Y008838D01*
X001413Y008800D01*
X001375Y008762D01*
X001298Y008762D01*
X001260Y008800D01*
X001260Y008877D01*
X001298Y008915D01*
X001298Y009401D02*
X001452Y009401D01*
X001490Y009440D01*
X001490Y009555D01*
X001260Y009555D01*
X001260Y009440D01*
X001298Y009401D01*
X001260Y009631D02*
X001490Y009631D01*
X001490Y009785D02*
X001260Y009785D01*
X001298Y009862D02*
X001375Y009862D01*
X001375Y009938D01*
X001298Y009862D02*
X001260Y009900D01*
X001260Y009977D01*
X001298Y010015D01*
X001452Y010015D01*
X001490Y009977D01*
X001490Y009900D01*
X001452Y009862D01*
X001490Y009785D02*
X001260Y009631D01*
D12*
X007408Y000938D03*
D13*
X008025Y000938D03*
D14*
X008025Y000938D03*
X008025Y001190D03*
X007409Y000938D03*
D15*
X007409Y000939D03*
D16*
X008025Y000939D03*
X008025Y001189D03*
D17*
X007409Y000939D03*
D18*
X008025Y000939D03*
X008025Y001189D03*
D19*
X008025Y001189D03*
X008025Y000939D03*
X007409Y000939D03*
D20*
X007408Y000940D03*
D21*
X008025Y000940D03*
X008025Y001188D03*
D22*
X008025Y001188D03*
X008025Y000940D03*
X007409Y000940D03*
D23*
X007409Y000941D03*
X008025Y000941D03*
X008025Y001187D03*
D24*
X008025Y001186D03*
X008025Y000941D03*
X007408Y000941D03*
D25*
X007409Y000942D03*
X008025Y000942D03*
X008025Y001186D03*
D26*
X008025Y001185D03*
X007408Y000943D03*
D27*
X008025Y000943D03*
D28*
X007409Y000943D03*
X007409Y001181D03*
D29*
X008025Y001185D03*
X008025Y000943D03*
D30*
X008025Y000944D03*
X007409Y000944D03*
D31*
X007409Y000944D03*
X008025Y000944D03*
X008025Y001184D03*
D32*
X008025Y001184D03*
X008025Y000944D03*
X007409Y000944D03*
D33*
X007409Y000945D03*
X008025Y000945D03*
X008025Y001183D03*
D34*
X007409Y000945D03*
D35*
X008025Y000945D03*
X008025Y001183D03*
D36*
X008025Y001182D03*
X008025Y000946D03*
X007409Y000946D03*
D37*
X007409Y000946D03*
X007409Y001178D03*
X008025Y000946D03*
D38*
X007409Y000947D03*
X007409Y001178D03*
D39*
X008025Y001181D03*
X008025Y000947D03*
D40*
X008025Y000948D03*
X008025Y001180D03*
X007408Y000948D03*
D41*
X007408Y000948D03*
X007408Y001176D03*
D42*
X007409Y001177D03*
X008025Y001180D03*
X008025Y000948D03*
D43*
X007409Y000949D03*
X007409Y001176D03*
D44*
X008025Y001179D03*
X008025Y000949D03*
D45*
X008025Y000949D03*
X008025Y001179D03*
X007409Y001175D03*
X007409Y000949D03*
X007409Y000949D03*
D46*
X008025Y000949D03*
X008025Y001179D03*
D47*
X008025Y001178D03*
X008025Y000950D03*
X008025Y000950D03*
X007409Y000950D03*
X007409Y001174D03*
D48*
X007408Y001174D03*
X007408Y000950D03*
D49*
X007409Y000951D03*
X007409Y001174D03*
X008025Y001177D03*
X008025Y000951D03*
D50*
X008025Y000951D03*
X008025Y001176D03*
X007408Y001173D03*
X007408Y000951D03*
D51*
X007409Y000952D03*
X007409Y001173D03*
X008025Y001175D03*
X008025Y001176D03*
X008025Y000953D03*
X008025Y000952D03*
D52*
X007408Y000953D03*
X007408Y001172D03*
D53*
X007409Y001171D03*
X007409Y000954D03*
X007409Y000953D03*
D54*
X008025Y000954D03*
X008025Y000953D03*
X008025Y001174D03*
X008025Y001175D03*
D55*
X008025Y001174D03*
X008025Y001173D03*
X008025Y000955D03*
X008025Y000954D03*
X007409Y000955D03*
X007409Y000954D03*
X007409Y000954D03*
X007409Y001170D03*
X007409Y001170D03*
D56*
X007408Y001171D03*
X008025Y001174D03*
X008025Y000954D03*
D57*
X008025Y000955D03*
X008025Y001173D03*
X007408Y001169D03*
X007408Y000955D03*
D58*
X007409Y000956D03*
X007409Y000956D03*
X007409Y001168D03*
X007409Y001169D03*
X007409Y001169D03*
X008025Y001171D03*
X008025Y001171D03*
X008025Y001172D03*
X008025Y000957D03*
X008025Y000956D03*
X008025Y000956D03*
D59*
X007408Y000957D03*
X007408Y000958D03*
X007408Y001168D03*
D60*
X008025Y001170D03*
X008025Y000958D03*
D61*
X008025Y000958D03*
X008025Y000959D03*
X008025Y000959D03*
X008025Y000959D03*
X008025Y000960D03*
X008025Y001168D03*
X008025Y001169D03*
X008025Y001169D03*
X008025Y001169D03*
X008025Y001170D03*
X007409Y001167D03*
X007409Y001166D03*
X007409Y001166D03*
X007409Y001165D03*
X007409Y001165D03*
X007409Y000959D03*
X007409Y000959D03*
X007409Y000959D03*
X007409Y000958D03*
D62*
X007408Y000960D03*
X007408Y000960D03*
X007408Y000961D03*
X007408Y000961D03*
X007408Y000962D03*
X007408Y000963D03*
X007408Y000963D03*
X007408Y000964D03*
X007408Y000964D03*
X007408Y000964D03*
X007408Y000965D03*
X007408Y000965D03*
X007408Y000966D03*
X007408Y000966D03*
X007408Y000967D03*
X007408Y000968D03*
X007408Y000968D03*
X007408Y000969D03*
X007408Y000969D03*
X007408Y000969D03*
X007408Y000970D03*
X007408Y000970D03*
X007408Y000971D03*
X007408Y000971D03*
X007408Y000972D03*
X007408Y000973D03*
X007408Y000973D03*
X007408Y000974D03*
X007408Y000974D03*
X007408Y000974D03*
X007408Y000975D03*
X007408Y000975D03*
X007408Y000976D03*
X007408Y000976D03*
X007408Y000977D03*
X007408Y000978D03*
X007408Y000978D03*
X007408Y000979D03*
X007408Y000979D03*
X007408Y000979D03*
X007408Y000980D03*
X007408Y000980D03*
X007408Y000981D03*
X007408Y000981D03*
X007408Y000982D03*
X007408Y000983D03*
X007408Y000983D03*
X007408Y000984D03*
X007408Y000984D03*
X007408Y000984D03*
X007408Y000985D03*
X007408Y000985D03*
X007408Y000986D03*
X007408Y000986D03*
X007408Y000987D03*
X007408Y000988D03*
X007408Y000988D03*
X007408Y000989D03*
X007408Y000989D03*
X007408Y000989D03*
X007408Y000990D03*
X007408Y000990D03*
X007408Y000991D03*
X007408Y000991D03*
X007408Y000992D03*
X007408Y000993D03*
X007408Y000993D03*
X007408Y000994D03*
X007408Y000994D03*
X007408Y000994D03*
X007408Y000995D03*
X007408Y000995D03*
X007408Y000996D03*
X007408Y000996D03*
X007408Y000997D03*
X007408Y000998D03*
X007408Y000998D03*
X007408Y000999D03*
X007408Y000999D03*
X007408Y000999D03*
X007408Y001000D03*
X007408Y001000D03*
X007408Y001001D03*
X007408Y001001D03*
X007408Y001002D03*
X007408Y001003D03*
X007408Y001003D03*
X007408Y001004D03*
X007408Y001004D03*
X007408Y001004D03*
X007408Y001005D03*
X007408Y001005D03*
X007408Y001006D03*
X007408Y001006D03*
X007408Y001007D03*
X007408Y001008D03*
X007408Y001008D03*
X007408Y001009D03*
X007408Y001009D03*
X007408Y001009D03*
X007408Y001010D03*
X007408Y001010D03*
X007408Y001011D03*
X007408Y001011D03*
X007408Y001012D03*
X007408Y001013D03*
X007408Y001013D03*
X007408Y001014D03*
X007408Y001014D03*
X007408Y001014D03*
X007408Y001015D03*
X007408Y001015D03*
X007408Y001016D03*
X007408Y001016D03*
X007408Y001017D03*
X007408Y001018D03*
X007408Y001018D03*
X007408Y001019D03*
X007408Y001019D03*
X007408Y001019D03*
X007408Y001020D03*
X007408Y001020D03*
X007408Y001021D03*
X007408Y001021D03*
X007408Y001022D03*
X007408Y001023D03*
X007408Y001023D03*
X007408Y001024D03*
X007408Y001024D03*
X007408Y001024D03*
X007408Y001025D03*
X007408Y001025D03*
X007408Y001026D03*
X007408Y001026D03*
X007408Y001027D03*
X007408Y001028D03*
X007408Y001028D03*
X007408Y001029D03*
X007408Y001029D03*
X007408Y001029D03*
X007408Y001030D03*
X007408Y001030D03*
X007408Y001031D03*
X007408Y001031D03*
X007408Y001032D03*
X007408Y001033D03*
X007408Y001033D03*
X007408Y001034D03*
X007408Y001034D03*
X007408Y001034D03*
X007408Y001035D03*
X007408Y001035D03*
X007408Y001036D03*
X007408Y001036D03*
X007408Y001037D03*
X007408Y001038D03*
X007408Y001038D03*
X007408Y001039D03*
X007408Y001039D03*
X007408Y001039D03*
X007408Y001040D03*
X007408Y001040D03*
X007408Y001041D03*
X007408Y001041D03*
X007408Y001042D03*
X007408Y001043D03*
X007408Y001043D03*
X007408Y001044D03*
X007408Y001044D03*
X007408Y001044D03*
X007408Y001045D03*
X007408Y001045D03*
X007408Y001046D03*
X007408Y001046D03*
X007408Y001047D03*
X007408Y001048D03*
X007408Y001048D03*
X007408Y001049D03*
X007408Y001049D03*
X007408Y001049D03*
X007408Y001050D03*
X007408Y001050D03*
X007408Y001051D03*
X007408Y001051D03*
X007408Y001052D03*
X007408Y001053D03*
X007408Y001053D03*
X007408Y001054D03*
X007408Y001054D03*
X007408Y001054D03*
X007408Y001055D03*
X007408Y001055D03*
X007408Y001056D03*
X007408Y001056D03*
X007408Y001057D03*
X007408Y001058D03*
X007408Y001058D03*
X007408Y001059D03*
X007408Y001059D03*
X007408Y001059D03*
X007408Y001060D03*
X007408Y001060D03*
X007408Y001061D03*
X007408Y001061D03*
X007408Y001062D03*
X007408Y001063D03*
X007408Y001063D03*
X007408Y001064D03*
X007408Y001064D03*
X007408Y001064D03*
X007408Y001065D03*
X007408Y001065D03*
X007408Y001066D03*
X007408Y001066D03*
X007408Y001067D03*
X007408Y001068D03*
X007408Y001068D03*
X007408Y001069D03*
X007408Y001069D03*
X007408Y001069D03*
X007408Y001070D03*
X007408Y001070D03*
X007408Y001071D03*
X007408Y001071D03*
X007408Y001072D03*
X007408Y001073D03*
X007408Y001073D03*
X007408Y001074D03*
X007408Y001074D03*
X007408Y001074D03*
X007408Y001075D03*
X007408Y001075D03*
X007408Y001076D03*
X007408Y001076D03*
X007408Y001077D03*
X007408Y001078D03*
X007408Y001078D03*
X007408Y001079D03*
X007408Y001079D03*
X007408Y001079D03*
X007408Y001080D03*
X007408Y001080D03*
X007408Y001081D03*
X007408Y001081D03*
X007408Y001082D03*
X007408Y001083D03*
X007408Y001083D03*
X007408Y001084D03*
X007408Y001084D03*
X007408Y001084D03*
X007408Y001085D03*
X007408Y001085D03*
X007408Y001086D03*
X007408Y001086D03*
X007408Y001087D03*
X007408Y001088D03*
X007408Y001088D03*
X007408Y001089D03*
X007408Y001089D03*
X007408Y001089D03*
X007408Y001090D03*
X007408Y001090D03*
X007408Y001091D03*
X007408Y001091D03*
X007408Y001092D03*
X007408Y001093D03*
X007408Y001093D03*
X007408Y001094D03*
X007408Y001094D03*
X007408Y001094D03*
X007408Y001095D03*
X007408Y001095D03*
X007408Y001096D03*
X007408Y001096D03*
X007408Y001097D03*
X007408Y001098D03*
X007408Y001098D03*
X007408Y001099D03*
X007408Y001099D03*
X007408Y001099D03*
X007408Y001100D03*
X007408Y001100D03*
X007408Y001101D03*
X007408Y001101D03*
X007408Y001102D03*
X007408Y001103D03*
X007408Y001103D03*
X007408Y001104D03*
X007408Y001104D03*
X007408Y001104D03*
X007408Y001105D03*
X007408Y001105D03*
X007408Y001106D03*
X007408Y001106D03*
X007408Y001107D03*
X007408Y001108D03*
X007408Y001108D03*
X007408Y001109D03*
X007408Y001109D03*
X007408Y001109D03*
X007408Y001110D03*
X007408Y001110D03*
X007408Y001111D03*
X007408Y001111D03*
X007408Y001112D03*
X007408Y001113D03*
X007408Y001113D03*
X007408Y001114D03*
X007408Y001114D03*
X007408Y001114D03*
X007408Y001115D03*
X007408Y001115D03*
X007408Y001116D03*
X007408Y001116D03*
X007408Y001117D03*
X007408Y001118D03*
X007408Y001118D03*
X007408Y001119D03*
X007408Y001119D03*
X007408Y001119D03*
X007408Y001120D03*
X007408Y001120D03*
X007408Y001121D03*
X007408Y001121D03*
X007408Y001122D03*
X007408Y001123D03*
X007408Y001123D03*
X007408Y001124D03*
X007408Y001124D03*
X007408Y001124D03*
X007408Y001125D03*
X007408Y001125D03*
X007408Y001126D03*
X007408Y001126D03*
X007408Y001127D03*
X007408Y001128D03*
X007408Y001128D03*
X007408Y001129D03*
X007408Y001129D03*
X007408Y001129D03*
X007408Y001130D03*
X007408Y001130D03*
X007408Y001131D03*
X007408Y001131D03*
X007408Y001132D03*
X007408Y001133D03*
X007408Y001133D03*
X007408Y001134D03*
X007408Y001134D03*
X007408Y001134D03*
X007408Y001135D03*
X007408Y001135D03*
X007408Y001136D03*
X007408Y001136D03*
X007408Y001137D03*
X007408Y001138D03*
X007408Y001138D03*
X007408Y001139D03*
X007408Y001139D03*
X007408Y001139D03*
X007408Y001140D03*
X007408Y001140D03*
X007408Y001141D03*
X007408Y001141D03*
X007408Y001142D03*
X007408Y001143D03*
X007408Y001143D03*
X007408Y001144D03*
X007408Y001144D03*
X007408Y001144D03*
X007408Y001145D03*
X007408Y001145D03*
X007408Y001146D03*
X007408Y001146D03*
X007408Y001147D03*
X007408Y001148D03*
X007408Y001148D03*
X007408Y001149D03*
X007408Y001149D03*
X007408Y001149D03*
X007408Y001150D03*
X007408Y001150D03*
X007408Y001151D03*
X007408Y001151D03*
X007408Y001152D03*
X007408Y001153D03*
X007408Y001153D03*
X007408Y001154D03*
X007408Y001154D03*
X007408Y001154D03*
X007408Y001155D03*
X007408Y001155D03*
X007408Y001156D03*
X007408Y001156D03*
X007408Y001157D03*
X007408Y001158D03*
X007408Y001158D03*
X007408Y001159D03*
X007408Y001159D03*
X007408Y001159D03*
X007408Y001160D03*
X007408Y001160D03*
X007408Y001161D03*
X007408Y001161D03*
X007408Y001162D03*
X007408Y001163D03*
X007408Y001163D03*
X007408Y001164D03*
X007408Y001164D03*
X007408Y001164D03*
X008025Y001165D03*
X008025Y001165D03*
X008025Y001164D03*
X008025Y001164D03*
X008025Y001164D03*
X008025Y001163D03*
X008025Y001163D03*
X008025Y001162D03*
X008025Y001161D03*
X008025Y001161D03*
X008025Y001160D03*
X008025Y001160D03*
X008025Y001159D03*
X008025Y001159D03*
X008025Y001159D03*
X008025Y001158D03*
X008025Y001158D03*
X008025Y001157D03*
X008025Y001156D03*
X008025Y001156D03*
X008025Y001155D03*
X008025Y001155D03*
X008025Y001154D03*
X008025Y001154D03*
X008025Y001154D03*
X008025Y001153D03*
X008025Y001153D03*
X008025Y001152D03*
X008025Y001151D03*
X008025Y001151D03*
X008025Y001150D03*
X008025Y001150D03*
X008025Y001149D03*
X008025Y001149D03*
X008025Y001149D03*
X008025Y001148D03*
X008025Y001148D03*
X008025Y001147D03*
X008025Y001146D03*
X008025Y001146D03*
X008025Y001145D03*
X008025Y001145D03*
X008025Y001144D03*
X008025Y001144D03*
X008025Y001144D03*
X008025Y001143D03*
X008025Y001143D03*
X008025Y001142D03*
X008025Y001141D03*
X008025Y001141D03*
X008025Y001140D03*
X008025Y001140D03*
X008025Y001139D03*
X008025Y001139D03*
X008025Y001139D03*
X008025Y001138D03*
X008025Y001138D03*
X008025Y001137D03*
X008025Y001136D03*
X008025Y001136D03*
X008025Y001135D03*
X008025Y001135D03*
X008025Y001134D03*
X008025Y001134D03*
X008025Y001134D03*
X008025Y001133D03*
X008025Y001133D03*
X008025Y001132D03*
X008025Y001131D03*
X008025Y001131D03*
X008025Y001130D03*
X008025Y001130D03*
X008025Y001129D03*
X008025Y001129D03*
X008025Y001129D03*
X008025Y001128D03*
X008025Y001128D03*
X008025Y001127D03*
X008025Y001126D03*
X008025Y001126D03*
X008025Y001125D03*
X008025Y001125D03*
X008025Y001124D03*
X008025Y001124D03*
X008025Y001124D03*
X008025Y001123D03*
X008025Y001123D03*
X008025Y001122D03*
X008025Y001121D03*
X008025Y001121D03*
X008025Y001120D03*
X008025Y001120D03*
X008025Y001119D03*
X008025Y001119D03*
X008025Y001119D03*
X008025Y001118D03*
X008025Y001118D03*
X008025Y001117D03*
X008025Y001116D03*
X008025Y001116D03*
X008025Y001115D03*
X008025Y001115D03*
X008025Y001114D03*
X008025Y001114D03*
X008025Y001114D03*
X008025Y001113D03*
X008025Y001113D03*
X008025Y001112D03*
X008025Y001111D03*
X008025Y001111D03*
X008025Y001110D03*
X008025Y001110D03*
X008025Y001109D03*
X008025Y001109D03*
X008025Y001109D03*
X008025Y001108D03*
X008025Y001108D03*
X008025Y001107D03*
X008025Y001106D03*
X008025Y001106D03*
X008025Y001105D03*
X008025Y001105D03*
X008025Y001104D03*
X008025Y001104D03*
X008025Y001104D03*
X008025Y001103D03*
X008025Y001103D03*
X008025Y001102D03*
X008025Y001101D03*
X008025Y001101D03*
X008025Y001100D03*
X008025Y001100D03*
X008025Y001099D03*
X008025Y001099D03*
X008025Y001099D03*
X008025Y001098D03*
X008025Y001098D03*
X008025Y001097D03*
X008025Y001096D03*
X008025Y001096D03*
X008025Y001095D03*
X008025Y001095D03*
X008025Y001094D03*
X008025Y001094D03*
X008025Y001094D03*
X008025Y001093D03*
X008025Y001093D03*
X008025Y001092D03*
X008025Y001091D03*
X008025Y001091D03*
X008025Y001090D03*
X008025Y001090D03*
X008025Y001089D03*
X008025Y001089D03*
X008025Y001089D03*
X008025Y001088D03*
X008025Y001088D03*
X008025Y001087D03*
X008025Y001086D03*
X008025Y001086D03*
X008025Y001085D03*
X008025Y001085D03*
X008025Y001084D03*
X008025Y001084D03*
X008025Y001084D03*
X008025Y001083D03*
X008025Y001083D03*
X008025Y001082D03*
X008025Y001081D03*
X008025Y001081D03*
X008025Y001080D03*
X008025Y001080D03*
X008025Y001079D03*
X008025Y001079D03*
X008025Y001079D03*
X008025Y001078D03*
X008025Y001078D03*
X008025Y001077D03*
X008025Y001076D03*
X008025Y001076D03*
X008025Y001075D03*
X008025Y001075D03*
X008025Y001074D03*
X008025Y001074D03*
X008025Y001074D03*
X008025Y001073D03*
X008025Y001073D03*
X008025Y001072D03*
X008025Y001071D03*
X008025Y001071D03*
X008025Y001070D03*
X008025Y001070D03*
X008025Y001069D03*
X008025Y001069D03*
X008025Y001069D03*
X008025Y001068D03*
X008025Y001068D03*
X008025Y001067D03*
X008025Y001066D03*
X008025Y001066D03*
X008025Y001065D03*
X008025Y001065D03*
X008025Y001064D03*
X008025Y001064D03*
X008025Y001064D03*
X008025Y001063D03*
X008025Y001063D03*
X008025Y001062D03*
X008025Y001061D03*
X008025Y001061D03*
X008025Y001060D03*
X008025Y001060D03*
X008025Y001059D03*
X008025Y001059D03*
X008025Y001059D03*
X008025Y001058D03*
X008025Y001058D03*
X008025Y001057D03*
X008025Y001056D03*
X008025Y001056D03*
X008025Y001055D03*
X008025Y001055D03*
X008025Y001054D03*
X008025Y001054D03*
X008025Y001054D03*
X008025Y001053D03*
X008025Y001053D03*
X008025Y001052D03*
X008025Y001051D03*
X008025Y001051D03*
X008025Y001050D03*
X008025Y001050D03*
X008025Y001049D03*
X008025Y001049D03*
X008025Y001049D03*
X008025Y001048D03*
X008025Y001048D03*
X008025Y001047D03*
X008025Y001046D03*
X008025Y001046D03*
X008025Y001045D03*
X008025Y001045D03*
X008025Y001044D03*
X008025Y001044D03*
X008025Y001044D03*
X008025Y001043D03*
X008025Y001043D03*
X008025Y001042D03*
X008025Y001041D03*
X008025Y001041D03*
X008025Y001040D03*
X008025Y001040D03*
X008025Y001039D03*
X008025Y001039D03*
X008025Y001039D03*
X008025Y001038D03*
X008025Y001038D03*
X008025Y001037D03*
X008025Y001036D03*
X008025Y001036D03*
X008025Y001035D03*
X008025Y001035D03*
X008025Y001034D03*
X008025Y001034D03*
X008025Y001034D03*
X008025Y001033D03*
X008025Y001033D03*
X008025Y001032D03*
X008025Y001031D03*
X008025Y001031D03*
X008025Y001030D03*
X008025Y001030D03*
X008025Y001029D03*
X008025Y001029D03*
X008025Y001029D03*
X008025Y001028D03*
X008025Y001028D03*
X008025Y001027D03*
X008025Y001026D03*
X008025Y001026D03*
X008025Y001025D03*
X008025Y001025D03*
X008025Y001024D03*
X008025Y001024D03*
X008025Y001024D03*
X008025Y001023D03*
X008025Y001023D03*
X008025Y001022D03*
X008025Y001021D03*
X008025Y001021D03*
X008025Y001020D03*
X008025Y001020D03*
X008025Y001019D03*
X008025Y001019D03*
X008025Y001019D03*
X008025Y001018D03*
X008025Y001018D03*
X008025Y001017D03*
X008025Y001016D03*
X008025Y001016D03*
X008025Y001015D03*
X008025Y001015D03*
X008025Y001014D03*
X008025Y001014D03*
X008025Y001014D03*
X008025Y001013D03*
X008025Y001013D03*
X008025Y001012D03*
X008025Y001011D03*
X008025Y001011D03*
X008025Y001010D03*
X008025Y001010D03*
X008025Y001009D03*
X008025Y001009D03*
X008025Y001009D03*
X008025Y001008D03*
X008025Y001008D03*
X008025Y001007D03*
X008025Y001006D03*
X008025Y001006D03*
X008025Y001005D03*
X008025Y001005D03*
X008025Y001004D03*
X008025Y001004D03*
X008025Y001004D03*
X008025Y001003D03*
X008025Y001003D03*
X008025Y001002D03*
X008025Y001001D03*
X008025Y001001D03*
X008025Y001000D03*
X008025Y001000D03*
X008025Y000999D03*
X008025Y000999D03*
X008025Y000999D03*
X008025Y000998D03*
X008025Y000998D03*
X008025Y000997D03*
X008025Y000996D03*
X008025Y000996D03*
X008025Y000995D03*
X008025Y000995D03*
X008025Y000994D03*
X008025Y000994D03*
X008025Y000994D03*
X008025Y000993D03*
X008025Y000993D03*
X008025Y000992D03*
X008025Y000991D03*
X008025Y000991D03*
X008025Y000990D03*
X008025Y000990D03*
X008025Y000989D03*
X008025Y000989D03*
X008025Y000989D03*
X008025Y000988D03*
X008025Y000988D03*
X008025Y000987D03*
X008025Y000986D03*
X008025Y000986D03*
X008025Y000985D03*
X008025Y000985D03*
X008025Y000984D03*
X008025Y000984D03*
X008025Y000984D03*
X008025Y000983D03*
X008025Y000983D03*
X008025Y000982D03*
X008025Y000981D03*
X008025Y000981D03*
X008025Y000980D03*
X008025Y000980D03*
X008025Y000979D03*
X008025Y000979D03*
X008025Y000979D03*
X008025Y000978D03*
X008025Y000978D03*
X008025Y000977D03*
X008025Y000976D03*
X008025Y000976D03*
X008025Y000975D03*
X008025Y000975D03*
X008025Y000974D03*
X008025Y000974D03*
X008025Y000974D03*
X008025Y000973D03*
X008025Y000973D03*
X008025Y000972D03*
X008025Y000971D03*
X008025Y000971D03*
X008025Y000970D03*
X008025Y000970D03*
X008025Y000969D03*
X008025Y000969D03*
X008025Y000969D03*
X008025Y000968D03*
X008025Y000968D03*
X008025Y000967D03*
X008025Y000966D03*
X008025Y000966D03*
X008025Y000965D03*
X008025Y000965D03*
X008025Y000964D03*
X008025Y000964D03*
X008025Y000964D03*
X008025Y000963D03*
X008025Y000963D03*
X008025Y000962D03*
X008025Y000961D03*
X008025Y000961D03*
X008025Y000960D03*
X008025Y001166D03*
X008025Y001166D03*
X008025Y001167D03*
X008025Y001168D03*
D63*
X008025Y001178D03*
X007408Y001175D03*
D64*
X007408Y001179D03*
X008025Y001181D03*
D65*
X007408Y001179D03*
D66*
X007408Y001179D03*
D67*
X007408Y001180D03*
D68*
X007408Y001180D03*
D69*
X007408Y001181D03*
D70*
X007409Y001182D03*
D71*
X007408Y001183D03*
D72*
X007409Y001183D03*
D73*
X007408Y001184D03*
D74*
X007408Y001184D03*
D75*
X007409Y001184D03*
D76*
X008025Y001184D03*
D77*
X007409Y001185D03*
D78*
X007408Y001185D03*
D79*
X007408Y001186D03*
D80*
X007408Y001186D03*
D81*
X007408Y001187D03*
D82*
X007410Y001188D03*
D83*
X007410Y001188D03*
X007410Y001189D03*
X007410Y001189D03*
X007410Y001189D03*
D84*
X007409Y001190D03*
X007409Y001190D03*
X007409Y001191D03*
D85*
X008025Y001190D03*
D86*
X008029Y001191D03*
X008029Y001191D03*
X008029Y001192D03*
X008029Y001193D03*
D87*
X007409Y001193D03*
X007409Y001193D03*
X007409Y001192D03*
X007409Y001191D03*
D88*
X007400Y001251D03*
X007400Y001251D03*
X007400Y001252D03*
X007400Y001253D03*
X008029Y001194D03*
X008029Y001194D03*
X008029Y001194D03*
X008029Y001193D03*
D89*
X007409Y001194D03*
X007409Y001194D03*
X007409Y001194D03*
D90*
X007409Y001195D03*
X007409Y001195D03*
X007409Y001196D03*
D91*
X007400Y001253D03*
X007400Y001254D03*
X007400Y001254D03*
X008030Y001196D03*
X008030Y001196D03*
X008030Y001195D03*
X008030Y001195D03*
D92*
X007408Y001196D03*
X007408Y001197D03*
X007408Y001198D03*
X007408Y001198D03*
D93*
X007400Y001254D03*
X007400Y001255D03*
X007400Y001255D03*
X008030Y001199D03*
X008030Y001198D03*
X008030Y001198D03*
X008030Y001197D03*
D94*
X007408Y001199D03*
X007408Y001199D03*
X007408Y001199D03*
D95*
X007400Y001256D03*
X007400Y001256D03*
X007400Y001257D03*
X007400Y001258D03*
X008030Y001201D03*
X008030Y001200D03*
X008030Y001200D03*
X008030Y001199D03*
X008030Y001199D03*
D96*
X007408Y001200D03*
X007408Y001200D03*
X007408Y001201D03*
X007408Y001201D03*
D97*
X008030Y001202D03*
X008030Y001203D03*
X008030Y001203D03*
X008030Y001201D03*
D98*
X007408Y001202D03*
X007408Y001203D03*
X007408Y001203D03*
D99*
X007407Y001204D03*
X007407Y001204D03*
X007407Y001204D03*
D100*
X007399Y001259D03*
X007399Y001260D03*
X007399Y001260D03*
X007399Y001261D03*
X008030Y001205D03*
X008030Y001204D03*
X008030Y001204D03*
X008030Y001204D03*
D101*
X007407Y001205D03*
X007407Y001205D03*
X007407Y001206D03*
X007407Y001206D03*
D102*
X007399Y001261D03*
X007399Y001262D03*
X007399Y001263D03*
X008031Y001207D03*
X008031Y001206D03*
X008031Y001206D03*
X008031Y001205D03*
D103*
X007407Y001207D03*
X007407Y001208D03*
X007407Y001208D03*
D104*
X007399Y001263D03*
X007399Y001264D03*
X007399Y001264D03*
X008031Y001209D03*
X008031Y001209D03*
X008031Y001208D03*
X008031Y001208D03*
D105*
X007406Y001209D03*
X007406Y001209D03*
X007406Y001209D03*
X007406Y001210D03*
D106*
X007398Y001264D03*
X007398Y001265D03*
X007398Y001265D03*
X007398Y001266D03*
X008031Y001211D03*
X008031Y001210D03*
X008031Y001210D03*
X008031Y001209D03*
D107*
X007406Y001210D03*
X007406Y001211D03*
X007406Y001211D03*
D108*
X008031Y001212D03*
X008031Y001213D03*
X008031Y001213D03*
X008031Y001214D03*
X008031Y001211D03*
D109*
X007406Y001212D03*
X007406Y001213D03*
X007406Y001213D03*
D110*
X007406Y001214D03*
X007406Y001214D03*
X007406Y001214D03*
X007406Y001215D03*
D111*
X007398Y001268D03*
X007398Y001269D03*
X007398Y001269D03*
X007398Y001269D03*
X008032Y001215D03*
X008032Y001215D03*
X008032Y001214D03*
X008032Y001214D03*
D112*
X007406Y001215D03*
X007406Y001216D03*
X007406Y001216D03*
D113*
X007398Y001270D03*
X007398Y001270D03*
X007398Y001271D03*
X008032Y001218D03*
X008032Y001217D03*
X008032Y001216D03*
X008032Y001216D03*
D114*
X007405Y001217D03*
X007405Y001218D03*
X007405Y001218D03*
X007405Y001219D03*
D115*
X007397Y001271D03*
X007397Y001272D03*
X007397Y001273D03*
X008032Y001219D03*
X008032Y001219D03*
X008032Y001219D03*
X008032Y001218D03*
D116*
X007405Y001219D03*
X007405Y001219D03*
X007405Y001220D03*
D117*
X007397Y001273D03*
X007397Y001274D03*
X007397Y001274D03*
X007397Y001274D03*
X008033Y001221D03*
X008033Y001221D03*
X008033Y001220D03*
X008033Y001220D03*
D118*
X007405Y001221D03*
X007405Y001221D03*
X007405Y001220D03*
D119*
X007405Y001222D03*
X007405Y001223D03*
X007405Y001223D03*
X007405Y001224D03*
D120*
X008033Y001224D03*
X008033Y001223D03*
X008033Y001223D03*
X008033Y001222D03*
D121*
X007404Y001224D03*
X007404Y001224D03*
X007404Y001225D03*
D122*
X007396Y001276D03*
X007396Y001277D03*
X007396Y001278D03*
X007396Y001278D03*
X008033Y001226D03*
X008033Y001225D03*
X008033Y001225D03*
X008033Y001224D03*
X008033Y001224D03*
D123*
X007404Y001225D03*
X007404Y001226D03*
X007404Y001226D03*
X007404Y001227D03*
D124*
X007396Y001279D03*
X007396Y001279D03*
X007396Y001279D03*
X008033Y001228D03*
X008033Y001228D03*
X008033Y001227D03*
X008033Y001226D03*
D125*
X007404Y001228D03*
X007404Y001228D03*
X007404Y001229D03*
D126*
X007396Y001280D03*
X007396Y001280D03*
X007396Y001281D03*
X008034Y001230D03*
X008034Y001229D03*
X008034Y001229D03*
X008034Y001229D03*
D127*
X007404Y001230D03*
X007404Y001229D03*
X007404Y001229D03*
D128*
X007403Y001230D03*
X007403Y001231D03*
X007403Y001231D03*
X007403Y001232D03*
D129*
X007396Y001281D03*
X007396Y001282D03*
X007396Y001283D03*
X007396Y001283D03*
X008034Y001232D03*
X008034Y001231D03*
X008034Y001231D03*
X008034Y001230D03*
D130*
X007403Y001233D03*
X007403Y001233D03*
X007403Y001234D03*
D131*
X008034Y001234D03*
X008034Y001234D03*
X008034Y001233D03*
X008034Y001233D03*
D132*
X007403Y001234D03*
X007403Y001234D03*
X007403Y001235D03*
X007403Y001235D03*
D133*
X007395Y001285D03*
X007395Y001285D03*
X007395Y001286D03*
X007395Y001286D03*
X008034Y001236D03*
X008034Y001235D03*
X008034Y001235D03*
X008034Y001234D03*
D134*
X007403Y001236D03*
X007403Y001236D03*
X007403Y001237D03*
D135*
X007395Y001287D03*
X007395Y001288D03*
X007395Y001288D03*
X008035Y001239D03*
X008035Y001238D03*
X008035Y001238D03*
X008035Y001237D03*
X008035Y001236D03*
D136*
X007402Y001238D03*
X007402Y001238D03*
X007402Y001239D03*
D137*
X007402Y001239D03*
X007402Y001239D03*
X007402Y001240D03*
X007402Y001240D03*
D138*
X007395Y001289D03*
X007395Y001289D03*
X007395Y001289D03*
X008035Y001240D03*
X008035Y001240D03*
X008035Y001239D03*
X008035Y001239D03*
D139*
X007402Y001241D03*
X007402Y001241D03*
X007402Y001242D03*
D140*
X007395Y001290D03*
X007395Y001290D03*
X007395Y001291D03*
X007395Y001291D03*
X008035Y001243D03*
X008035Y001242D03*
X008035Y001241D03*
X008035Y001241D03*
D141*
X007401Y001243D03*
X007401Y001243D03*
X007401Y001244D03*
X007401Y001244D03*
D142*
X008035Y001244D03*
X008035Y001244D03*
X008035Y001244D03*
X008035Y001243D03*
D143*
X007401Y001244D03*
X007401Y001245D03*
X007401Y001245D03*
D144*
X007394Y001294D03*
X007394Y001294D03*
X007394Y001294D03*
X007394Y001295D03*
X008035Y001246D03*
X008035Y001246D03*
X008035Y001245D03*
X008035Y001245D03*
D145*
X007401Y001246D03*
X007401Y001246D03*
X007401Y001247D03*
D146*
X007394Y001295D03*
X007394Y001296D03*
X007394Y001296D03*
X008036Y001249D03*
X008036Y001248D03*
X008036Y001248D03*
X008036Y001247D03*
D147*
X007401Y001248D03*
X007401Y001248D03*
X007401Y001249D03*
X007401Y001249D03*
D148*
X007394Y001297D03*
X007394Y001298D03*
X007394Y001298D03*
X007394Y001299D03*
X008036Y001251D03*
X008036Y001250D03*
X008036Y001250D03*
X008036Y001249D03*
X008036Y001249D03*
D149*
X007401Y001250D03*
X007401Y001250D03*
X007401Y001249D03*
D150*
X007393Y001299D03*
X007393Y001299D03*
X007393Y001300D03*
X008036Y001253D03*
X008036Y001253D03*
X008036Y001252D03*
X008036Y001251D03*
D151*
X008036Y001254D03*
X008036Y001254D03*
X008036Y001254D03*
X008036Y001255D03*
D152*
X008037Y001255D03*
X008037Y001256D03*
X008037Y001256D03*
X008037Y001257D03*
X007393Y001302D03*
X007393Y001303D03*
X007393Y001303D03*
X007393Y001304D03*
D153*
X007393Y001304D03*
X007393Y001304D03*
X007393Y001305D03*
X008037Y001259D03*
X008037Y001259D03*
X008037Y001258D03*
X008037Y001258D03*
D154*
X007399Y001259D03*
X007399Y001259D03*
X007399Y001258D03*
D155*
X007392Y001305D03*
X007392Y001306D03*
X007392Y001306D03*
X007392Y001307D03*
X008037Y001261D03*
X008037Y001260D03*
X008037Y001260D03*
X008037Y001259D03*
D156*
X008038Y001261D03*
X008038Y001262D03*
X008038Y001263D03*
X008038Y001263D03*
X008038Y001264D03*
X007392Y001308D03*
X007392Y001308D03*
X007392Y001309D03*
D157*
X008038Y001265D03*
X008038Y001265D03*
X008038Y001264D03*
X008038Y001264D03*
D158*
X008038Y001266D03*
X008038Y001266D03*
X008038Y001267D03*
X008038Y001268D03*
X007391Y001310D03*
X007391Y001311D03*
X007391Y001311D03*
X007391Y001312D03*
D159*
X007398Y001268D03*
X007398Y001267D03*
X007398Y001266D03*
D160*
X007391Y001313D03*
X007391Y001313D03*
X007391Y001314D03*
X008038Y001269D03*
X008038Y001269D03*
X008038Y001269D03*
X008038Y001268D03*
D161*
X008039Y001270D03*
X008039Y001270D03*
X008039Y001271D03*
X008039Y001271D03*
X007391Y001314D03*
X007391Y001314D03*
X007391Y001315D03*
X007391Y001315D03*
D162*
X007391Y001316D03*
X007391Y001316D03*
X007391Y001317D03*
X008039Y001274D03*
X008039Y001273D03*
X008039Y001273D03*
X008039Y001272D03*
D163*
X008039Y001274D03*
X008039Y001274D03*
X008039Y001275D03*
X008039Y001275D03*
X008039Y001276D03*
D164*
X007397Y001276D03*
X007397Y001275D03*
X007397Y001275D03*
D165*
X007390Y001319D03*
X007390Y001319D03*
X007390Y001320D03*
X007390Y001320D03*
X008039Y001278D03*
X008039Y001278D03*
X008039Y001277D03*
X008039Y001276D03*
D166*
X008040Y001279D03*
X008040Y001279D03*
X008040Y001279D03*
X008040Y001280D03*
X007390Y001321D03*
X007390Y001321D03*
X007390Y001322D03*
D167*
X007390Y001323D03*
X007390Y001323D03*
X007390Y001324D03*
X007390Y001324D03*
X008040Y001282D03*
X008040Y001281D03*
X008040Y001281D03*
X008040Y001280D03*
D168*
X008040Y001283D03*
X008040Y001283D03*
X008040Y001284D03*
X008040Y001284D03*
X007390Y001324D03*
X007390Y001325D03*
X007390Y001325D03*
D169*
X007396Y001284D03*
X007396Y001284D03*
X007396Y001284D03*
D170*
X008040Y001285D03*
X008040Y001285D03*
X008040Y001284D03*
X008040Y001286D03*
D171*
X008040Y001286D03*
X008040Y001287D03*
X008040Y001288D03*
X008040Y001288D03*
X008040Y001289D03*
X007389Y001328D03*
X007389Y001328D03*
X007389Y001329D03*
X007389Y001329D03*
D172*
X007389Y001329D03*
X007389Y001330D03*
X007389Y001330D03*
X008041Y001290D03*
X008041Y001290D03*
X008041Y001289D03*
X008041Y001289D03*
D173*
X008041Y001291D03*
X008041Y001291D03*
X008041Y001292D03*
X008041Y001293D03*
X007389Y001331D03*
X007389Y001331D03*
X007389Y001332D03*
X007389Y001333D03*
D174*
X007394Y001293D03*
X007394Y001293D03*
X007394Y001292D03*
D175*
X007388Y001333D03*
X007388Y001334D03*
X007388Y001334D03*
X008041Y001294D03*
X008041Y001294D03*
X008041Y001294D03*
X008041Y001293D03*
D176*
X008041Y001295D03*
X008041Y001295D03*
X008041Y001296D03*
X008041Y001296D03*
D177*
X008042Y001297D03*
X008042Y001298D03*
X008042Y001298D03*
X008042Y001299D03*
X007388Y001336D03*
X007388Y001336D03*
X007388Y001337D03*
X007388Y001338D03*
D178*
X007388Y001338D03*
X007388Y001339D03*
X007388Y001339D03*
X008042Y001301D03*
X008042Y001300D03*
X008042Y001300D03*
X008042Y001299D03*
X008042Y001299D03*
D179*
X007393Y001300D03*
X007393Y001301D03*
X007393Y001301D03*
D180*
X007387Y001339D03*
X007387Y001340D03*
X007387Y001340D03*
X007387Y001341D03*
X008042Y001303D03*
X008042Y001303D03*
X008042Y001302D03*
X008042Y001301D03*
D181*
X008043Y001304D03*
X008043Y001304D03*
X008043Y001304D03*
X008043Y001305D03*
X007387Y001341D03*
X007387Y001342D03*
X007387Y001343D03*
D182*
X008043Y001307D03*
X008043Y001306D03*
X008043Y001306D03*
X008043Y001305D03*
D183*
X008043Y001308D03*
X008043Y001308D03*
X008043Y001309D03*
X008043Y001309D03*
X007386Y001344D03*
X007386Y001345D03*
X007386Y001345D03*
X007386Y001346D03*
D184*
X007392Y001310D03*
X007392Y001309D03*
X007392Y001309D03*
D185*
X007386Y001346D03*
X007386Y001347D03*
X007386Y001348D03*
X008043Y001311D03*
X008043Y001310D03*
X008043Y001310D03*
X008043Y001309D03*
D186*
X008044Y001311D03*
X008044Y001312D03*
X008044Y001313D03*
X008044Y001313D03*
X008044Y001314D03*
X007386Y001348D03*
X007386Y001349D03*
X007386Y001349D03*
X007386Y001349D03*
D187*
X007386Y001350D03*
X007386Y001350D03*
X007386Y001351D03*
X008044Y001315D03*
X008044Y001315D03*
X008044Y001314D03*
X008044Y001314D03*
D188*
X008044Y001316D03*
X008044Y001316D03*
X008044Y001317D03*
X008044Y001318D03*
D189*
X007391Y001319D03*
X007391Y001318D03*
X007391Y001318D03*
D190*
X007385Y001353D03*
X007385Y001354D03*
X007385Y001354D03*
X007385Y001354D03*
X008044Y001319D03*
X008044Y001319D03*
X008044Y001319D03*
X008044Y001318D03*
D191*
X008045Y001320D03*
X008045Y001320D03*
X008045Y001321D03*
X008045Y001321D03*
X007385Y001355D03*
X007385Y001355D03*
X007385Y001356D03*
D192*
X007385Y001356D03*
X007385Y001357D03*
X007385Y001358D03*
X007385Y001358D03*
X008045Y001324D03*
X008045Y001323D03*
X008045Y001323D03*
X008045Y001322D03*
D193*
X008045Y001324D03*
X008045Y001324D03*
X008045Y001325D03*
X008045Y001325D03*
X008045Y001326D03*
X007385Y001359D03*
X007385Y001359D03*
X007385Y001359D03*
D194*
X007389Y001327D03*
X007389Y001326D03*
X007389Y001326D03*
D195*
X008045Y001327D03*
X008045Y001328D03*
X008045Y001328D03*
X008045Y001326D03*
D196*
X008045Y001329D03*
X008045Y001329D03*
X008045Y001329D03*
X008045Y001330D03*
X007384Y001361D03*
X007384Y001362D03*
X007384Y001363D03*
X007384Y001363D03*
D197*
X007384Y001364D03*
X007384Y001364D03*
X007384Y001364D03*
X008046Y001332D03*
X008046Y001331D03*
X008046Y001331D03*
X008046Y001330D03*
D198*
X008046Y001333D03*
X008046Y001333D03*
X008046Y001334D03*
X008046Y001334D03*
X007384Y001365D03*
X007384Y001365D03*
X007384Y001366D03*
X007384Y001366D03*
D199*
X007388Y001335D03*
X007388Y001335D03*
X007388Y001334D03*
D200*
X007383Y001367D03*
X007383Y001368D03*
X007383Y001368D03*
X008046Y001336D03*
X008046Y001335D03*
X008046Y001335D03*
X008046Y001334D03*
D201*
X008046Y001336D03*
X008046Y001337D03*
X008046Y001338D03*
X008046Y001338D03*
X008046Y001339D03*
D202*
X008047Y001339D03*
X008047Y001339D03*
X008047Y001340D03*
X008047Y001340D03*
X007383Y001370D03*
X007383Y001370D03*
X007383Y001371D03*
X007383Y001371D03*
D203*
X007383Y001372D03*
X007383Y001373D03*
X007383Y001373D03*
X008047Y001343D03*
X008047Y001342D03*
X008047Y001341D03*
X008047Y001341D03*
D204*
X007387Y001343D03*
X007387Y001344D03*
X007387Y001344D03*
D205*
X007382Y001374D03*
X007382Y001374D03*
X007382Y001374D03*
X007382Y001375D03*
X008047Y001344D03*
X008047Y001344D03*
X008047Y001344D03*
X008047Y001343D03*
D206*
X008048Y001345D03*
X008048Y001345D03*
X008048Y001346D03*
X008048Y001346D03*
X007382Y001375D03*
X007382Y001376D03*
X007382Y001376D03*
D207*
X008048Y001349D03*
X008048Y001348D03*
X008048Y001348D03*
X008048Y001347D03*
D208*
X008048Y001349D03*
X008048Y001349D03*
X008048Y001350D03*
X008048Y001350D03*
X008048Y001351D03*
X007381Y001379D03*
X007381Y001379D03*
X007381Y001379D03*
X007381Y001380D03*
D209*
X007386Y001353D03*
X007386Y001352D03*
X007386Y001351D03*
D210*
X007381Y001380D03*
X007381Y001381D03*
X007381Y001381D03*
X008048Y001353D03*
X008048Y001353D03*
X008048Y001352D03*
X008048Y001351D03*
D211*
X008049Y001354D03*
X008049Y001354D03*
X008049Y001354D03*
X008049Y001355D03*
X007381Y001382D03*
X007381Y001383D03*
X007381Y001383D03*
X007381Y001384D03*
D212*
X007381Y001384D03*
X007381Y001384D03*
X007381Y001385D03*
X008049Y001357D03*
X008049Y001356D03*
X008049Y001356D03*
X008049Y001355D03*
D213*
X008049Y001358D03*
X008049Y001358D03*
X008049Y001359D03*
X008049Y001359D03*
D214*
X008049Y001359D03*
X008049Y001360D03*
X008049Y001360D03*
X008049Y001361D03*
X007380Y001387D03*
X007380Y001388D03*
X007380Y001388D03*
X007380Y001389D03*
D215*
X007384Y001361D03*
X007384Y001360D03*
X007384Y001360D03*
D216*
X007380Y001389D03*
X007380Y001389D03*
X007380Y001390D03*
X008050Y001364D03*
X008050Y001363D03*
X008050Y001363D03*
X008050Y001362D03*
X008050Y001361D03*
D217*
X008050Y001364D03*
X008050Y001364D03*
X008050Y001365D03*
X008050Y001365D03*
X007380Y001390D03*
X007380Y001391D03*
X007380Y001391D03*
X007380Y001392D03*
D218*
X007380Y001393D03*
X007380Y001393D03*
X007380Y001394D03*
X008050Y001368D03*
X008050Y001367D03*
X008050Y001366D03*
X008050Y001366D03*
D219*
X008050Y001368D03*
X008050Y001369D03*
X008050Y001369D03*
X008050Y001369D03*
D220*
X007383Y001369D03*
X007383Y001369D03*
X007383Y001369D03*
D221*
X007379Y001395D03*
X007379Y001396D03*
X007379Y001396D03*
X007379Y001397D03*
X008050Y001371D03*
X008050Y001371D03*
X008050Y001370D03*
X008050Y001370D03*
D222*
X008051Y001372D03*
X008051Y001373D03*
X008051Y001373D03*
X008051Y001374D03*
X007379Y001398D03*
X007379Y001398D03*
X007379Y001399D03*
D223*
X007379Y001399D03*
X007379Y001399D03*
X007379Y001400D03*
X007379Y001400D03*
X008051Y001376D03*
X008051Y001375D03*
X008051Y001375D03*
X008051Y001374D03*
X008051Y001374D03*
D224*
X008051Y001376D03*
X008051Y001377D03*
X008051Y001378D03*
X008051Y001378D03*
X007378Y001401D03*
X007378Y001401D03*
X007378Y001402D03*
D225*
X007382Y001378D03*
X007382Y001378D03*
X007382Y001377D03*
D226*
X008051Y001379D03*
X008051Y001379D03*
X008051Y001379D03*
X008051Y001380D03*
D227*
X008052Y001380D03*
X008052Y001381D03*
X008052Y001381D03*
X008052Y001382D03*
X007378Y001404D03*
X007378Y001404D03*
X007378Y001405D03*
X007378Y001405D03*
D228*
X007378Y001406D03*
X007378Y001406D03*
X007378Y001407D03*
X008052Y001384D03*
X008052Y001384D03*
X008052Y001383D03*
X008052Y001383D03*
D229*
X008052Y001384D03*
X008052Y001385D03*
X008052Y001385D03*
X008052Y001386D03*
X007377Y001408D03*
X007377Y001408D03*
X007377Y001409D03*
X007377Y001409D03*
D230*
X007381Y001386D03*
X007381Y001386D03*
X007381Y001385D03*
D231*
X007377Y001409D03*
X007377Y001410D03*
X007377Y001410D03*
X008053Y001389D03*
X008053Y001388D03*
X008053Y001388D03*
X008053Y001387D03*
X008053Y001386D03*
D232*
X008053Y001389D03*
X008053Y001389D03*
X008053Y001390D03*
X008053Y001390D03*
D233*
X008053Y001391D03*
X008053Y001391D03*
X008053Y001392D03*
X008053Y001393D03*
X007376Y001413D03*
X007376Y001413D03*
X007376Y001414D03*
X007376Y001414D03*
D234*
X007376Y001414D03*
X007376Y001415D03*
X007376Y001415D03*
X008053Y001394D03*
X008053Y001394D03*
X008053Y001394D03*
X008053Y001393D03*
D235*
X007379Y001394D03*
X007379Y001394D03*
X007379Y001395D03*
D236*
X007376Y001416D03*
X007376Y001416D03*
X007376Y001417D03*
X007376Y001418D03*
X008054Y001396D03*
X008054Y001396D03*
X008054Y001395D03*
X008054Y001395D03*
D237*
X008054Y001397D03*
X008054Y001398D03*
X008054Y001398D03*
X008054Y001399D03*
X007376Y001418D03*
X007376Y001419D03*
X007376Y001419D03*
D238*
X008054Y001401D03*
X008054Y001400D03*
X008054Y001400D03*
X008054Y001399D03*
X008054Y001399D03*
D239*
X008054Y001401D03*
X008054Y001402D03*
X008054Y001403D03*
X008054Y001403D03*
X007375Y001421D03*
X007375Y001421D03*
X007375Y001422D03*
X007375Y001423D03*
D240*
X007378Y001404D03*
X007378Y001403D03*
X007378Y001403D03*
D241*
X007375Y001423D03*
X007375Y001424D03*
X007375Y001424D03*
X008055Y001405D03*
X008055Y001404D03*
X008055Y001404D03*
X008055Y001404D03*
D242*
X008055Y001405D03*
X008055Y001406D03*
X008055Y001406D03*
X008055Y001407D03*
X007375Y001424D03*
X007375Y001425D03*
X007375Y001425D03*
X007375Y001426D03*
D243*
X007375Y001426D03*
X007375Y001427D03*
X007375Y001428D03*
X008055Y001409D03*
X008055Y001409D03*
X008055Y001408D03*
X008055Y001408D03*
D244*
X008055Y001409D03*
X008055Y001410D03*
X008055Y001410D03*
X008055Y001411D03*
D245*
X007377Y001412D03*
X007377Y001411D03*
X007377Y001411D03*
D246*
X007374Y001429D03*
X007374Y001430D03*
X007374Y001430D03*
X007374Y001431D03*
X008055Y001414D03*
X008055Y001413D03*
X008055Y001413D03*
X008055Y001412D03*
X008055Y001411D03*
D247*
X008056Y001414D03*
X008056Y001414D03*
X008056Y001415D03*
X008056Y001415D03*
X007374Y001431D03*
X007374Y001432D03*
X007374Y001433D03*
D248*
X007374Y001433D03*
X007374Y001434D03*
X007374Y001434D03*
X007374Y001434D03*
X008056Y001418D03*
X008056Y001417D03*
X008056Y001416D03*
X008056Y001416D03*
D249*
X008056Y001418D03*
X008056Y001419D03*
X008056Y001419D03*
X008056Y001419D03*
X007373Y001435D03*
X007373Y001435D03*
X007373Y001436D03*
D250*
X007376Y001420D03*
X007376Y001420D03*
X007376Y001419D03*
D251*
X008056Y001420D03*
X008056Y001420D03*
X008056Y001421D03*
X008056Y001421D03*
D252*
X008057Y001422D03*
X008057Y001423D03*
X008057Y001423D03*
X008057Y001424D03*
X007373Y001438D03*
X007373Y001439D03*
X007373Y001439D03*
X007373Y001439D03*
D253*
X007373Y001440D03*
X007373Y001440D03*
X007373Y001441D03*
X008057Y001426D03*
X008057Y001425D03*
X008057Y001425D03*
X008057Y001424D03*
X008057Y001424D03*
D254*
X008057Y001426D03*
X008057Y001427D03*
X008057Y001428D03*
X008057Y001428D03*
X007372Y001441D03*
X007372Y001442D03*
X007372Y001443D03*
X007372Y001443D03*
D255*
X007374Y001429D03*
X007374Y001429D03*
X007374Y001428D03*
D256*
X007372Y001444D03*
X007372Y001444D03*
X007372Y001444D03*
X008058Y001430D03*
X008058Y001429D03*
X008058Y001429D03*
X008058Y001429D03*
D257*
X008058Y001430D03*
X008058Y001431D03*
X008058Y001431D03*
X008058Y001432D03*
D258*
X008058Y001433D03*
X008058Y001433D03*
X008058Y001434D03*
X008058Y001434D03*
X007371Y001446D03*
X007371Y001447D03*
X007371Y001448D03*
X007371Y001448D03*
D259*
X007371Y001449D03*
X007371Y001449D03*
X007371Y001449D03*
X008058Y001436D03*
X008058Y001435D03*
X008058Y001435D03*
X008058Y001434D03*
D260*
X007373Y001436D03*
X007373Y001437D03*
X007373Y001438D03*
D261*
X007371Y001450D03*
X007371Y001450D03*
X007371Y001451D03*
X007371Y001451D03*
X008059Y001439D03*
X008059Y001438D03*
X008059Y001438D03*
X008059Y001437D03*
X008059Y001436D03*
D262*
X008059Y001439D03*
X008059Y001439D03*
X008059Y001440D03*
X008059Y001440D03*
X007371Y001452D03*
X007371Y001453D03*
X007371Y001453D03*
D263*
X008059Y001443D03*
X008059Y001442D03*
X008059Y001441D03*
X008059Y001441D03*
D264*
X008059Y001443D03*
X008059Y001444D03*
X008059Y001444D03*
X008059Y001444D03*
X007370Y001455D03*
X007370Y001455D03*
X007370Y001456D03*
X007370Y001456D03*
D265*
X007372Y001446D03*
X007372Y001445D03*
X007372Y001445D03*
D266*
X007370Y001457D03*
X007370Y001458D03*
X007370Y001458D03*
X008060Y001446D03*
X008060Y001446D03*
X008060Y001445D03*
X008060Y001445D03*
D267*
X008060Y001447D03*
X008060Y001448D03*
X008060Y001448D03*
X008060Y001449D03*
X007370Y001459D03*
X007370Y001459D03*
X007370Y001459D03*
X007370Y001460D03*
D268*
X007370Y001460D03*
X007370Y001461D03*
X007370Y001461D03*
X008060Y001451D03*
X008060Y001450D03*
X008060Y001450D03*
X008060Y001449D03*
X008060Y001449D03*
D269*
X008060Y001451D03*
X008060Y001452D03*
X008060Y001453D03*
X008060Y001453D03*
D270*
X007371Y001454D03*
X007371Y001454D03*
X007371Y001454D03*
D271*
X007369Y001464D03*
X007369Y001464D03*
X007369Y001464D03*
X007369Y001465D03*
X008060Y001455D03*
X008060Y001454D03*
X008060Y001454D03*
X008060Y001454D03*
D272*
X008061Y001455D03*
X008061Y001456D03*
X008061Y001456D03*
X008061Y001457D03*
X007369Y001465D03*
X007369Y001466D03*
X007369Y001466D03*
D273*
X007369Y001467D03*
X007369Y001468D03*
X007369Y001468D03*
X007369Y001469D03*
X008061Y001459D03*
X008061Y001459D03*
X008061Y001458D03*
X008061Y001458D03*
D274*
X008061Y001459D03*
X008061Y001460D03*
X008061Y001460D03*
X008061Y001461D03*
X007368Y001469D03*
X007368Y001469D03*
X007368Y001470D03*
D275*
X008061Y001464D03*
X008061Y001463D03*
X008061Y001463D03*
X008061Y001462D03*
X008061Y001461D03*
D276*
X007369Y001462D03*
X007369Y001463D03*
X007369Y001463D03*
D277*
X007368Y001472D03*
X007368Y001473D03*
X007368Y001473D03*
X007368Y001474D03*
X008062Y001465D03*
X008062Y001465D03*
X008062Y001464D03*
X008062Y001464D03*
D278*
X008062Y001466D03*
X008062Y001466D03*
X008062Y001467D03*
X008062Y001468D03*
X007368Y001474D03*
X007368Y001474D03*
X007368Y001475D03*
D279*
X007367Y001475D03*
X007367Y001476D03*
X007367Y001476D03*
X007367Y001477D03*
X008062Y001469D03*
X008062Y001469D03*
X008062Y001469D03*
X008062Y001468D03*
D280*
X008063Y001470D03*
X008063Y001470D03*
X008063Y001471D03*
X008063Y001471D03*
X007367Y001478D03*
X007367Y001478D03*
X007367Y001479D03*
D281*
X007368Y001471D03*
X007368Y001471D03*
X007368Y001470D03*
D282*
X008063Y001472D03*
X008063Y001473D03*
X008063Y001473D03*
X008063Y001474D03*
D283*
X008063Y001474D03*
X008063Y001474D03*
X008063Y001475D03*
X008063Y001475D03*
X008063Y001476D03*
X007366Y001480D03*
X007366Y001481D03*
X007366Y001481D03*
X007366Y001482D03*
D284*
X007366Y001483D03*
X007366Y001483D03*
X007366Y001484D03*
X008063Y001478D03*
X008063Y001478D03*
X008063Y001477D03*
X008063Y001476D03*
D285*
X008064Y001479D03*
X008064Y001479D03*
X008064Y001479D03*
X008064Y001480D03*
X007366Y001484D03*
X007366Y001484D03*
X007366Y001485D03*
X007366Y001485D03*
D286*
X007367Y001480D03*
X007367Y001479D03*
X007367Y001479D03*
D287*
X007366Y001486D03*
X007366Y001486D03*
X007366Y001487D03*
X008064Y001482D03*
X008064Y001481D03*
X008064Y001481D03*
X008064Y001480D03*
D288*
X008064Y001483D03*
X008064Y001483D03*
X008064Y001484D03*
X008064Y001484D03*
D289*
X008064Y001484D03*
X008064Y001485D03*
X008064Y001485D03*
X008064Y001486D03*
X007365Y001489D03*
X007365Y001489D03*
X007365Y001490D03*
X007365Y001490D03*
D290*
X007365Y001491D03*
X007365Y001491D03*
X007365Y001492D03*
X008065Y001489D03*
X008065Y001488D03*
X008065Y001488D03*
X008065Y001487D03*
X008065Y001486D03*
D291*
X007366Y001488D03*
X007366Y001488D03*
X007366Y001489D03*
D292*
X007365Y001493D03*
X007365Y001493D03*
X007365Y001494D03*
X007365Y001494D03*
X008065Y001490D03*
X008065Y001490D03*
X008065Y001489D03*
X008065Y001489D03*
D293*
X008065Y001491D03*
X008065Y001491D03*
X008065Y001492D03*
X008065Y001493D03*
X007365Y001494D03*
X007365Y001495D03*
X007365Y001495D03*
D294*
X008065Y001494D03*
X008065Y001494D03*
X008065Y001494D03*
X008065Y001493D03*
D295*
X008065Y001495D03*
X008065Y001495D03*
X008065Y001496D03*
X008065Y001496D03*
X007364Y001498D03*
X007364Y001498D03*
X007364Y001499D03*
X007364Y001499D03*
D296*
X007364Y001497D03*
X007364Y001496D03*
X007364Y001496D03*
D297*
X007364Y001499D03*
X007364Y001500D03*
X007364Y001500D03*
X008066Y001499D03*
X008066Y001498D03*
X008066Y001498D03*
X008066Y001497D03*
D298*
X008066Y001499D03*
X008066Y001499D03*
X008066Y001500D03*
X008066Y001500D03*
X008066Y001501D03*
X007364Y001502D03*
X007364Y001503D03*
X007364Y001501D03*
X007364Y001501D03*
D299*
X007363Y001503D03*
X007363Y001504D03*
X007363Y001504D03*
X008066Y001503D03*
X008066Y001503D03*
X008066Y001502D03*
X008066Y001501D03*
D300*
X008066Y001504D03*
X008066Y001504D03*
X008066Y001504D03*
X008066Y001505D03*
D301*
X007363Y001505D03*
X007363Y001505D03*
X007363Y001504D03*
D302*
X007363Y001506D03*
X007363Y001506D03*
X007363Y001507D03*
X007363Y001508D03*
X008067Y001507D03*
X008067Y001506D03*
X008067Y001506D03*
X008067Y001505D03*
D303*
X008067Y001508D03*
X008067Y001508D03*
X008067Y001509D03*
X008067Y001509D03*
X007363Y001509D03*
X007363Y001509D03*
X007363Y001508D03*
D304*
X007362Y001509D03*
X007362Y001510D03*
X007362Y001510D03*
X007362Y001511D03*
X008067Y001511D03*
X008067Y001510D03*
X008067Y001510D03*
X008067Y001509D03*
D305*
X008068Y001511D03*
X008068Y001512D03*
X008068Y001513D03*
X008068Y001513D03*
X008068Y001514D03*
X007362Y001513D03*
X007362Y001512D03*
X007362Y001511D03*
D306*
X007362Y001513D03*
X007362Y001514D03*
X007362Y001514D03*
D307*
X008068Y001515D03*
X008068Y001515D03*
X008068Y001514D03*
X008068Y001514D03*
D308*
X008068Y001516D03*
X008068Y001516D03*
X008068Y001517D03*
X008068Y001518D03*
X007361Y001516D03*
X007361Y001515D03*
X007361Y001515D03*
X007361Y001514D03*
D309*
X007361Y001516D03*
X007361Y001517D03*
X007361Y001518D03*
X008068Y001519D03*
X008068Y001519D03*
X008068Y001519D03*
X008068Y001518D03*
D310*
X008069Y001520D03*
X008069Y001520D03*
X008069Y001521D03*
X008069Y001521D03*
X007361Y001519D03*
X007361Y001519D03*
X007361Y001519D03*
X007361Y001518D03*
D311*
X007361Y001520D03*
X007361Y001520D03*
X007361Y001521D03*
X008069Y001522D03*
X008069Y001523D03*
X008069Y001523D03*
X008069Y001524D03*
D312*
X007361Y001523D03*
X007361Y001522D03*
X007361Y001521D03*
D313*
X007360Y001523D03*
X007360Y001524D03*
X007360Y001524D03*
X007360Y001524D03*
X008069Y001526D03*
X008069Y001527D03*
X008069Y001528D03*
X008069Y001528D03*
D314*
X008069Y001526D03*
X008069Y001525D03*
X008069Y001525D03*
X008069Y001524D03*
X008069Y001524D03*
D315*
X008070Y001529D03*
X008070Y001529D03*
X008070Y001529D03*
X008070Y001530D03*
X007360Y001526D03*
X007360Y001525D03*
X007360Y001525D03*
D316*
X007360Y001526D03*
X007360Y001527D03*
X007360Y001528D03*
X007360Y001528D03*
X008070Y001530D03*
X008070Y001531D03*
X008070Y001531D03*
X008070Y001532D03*
D317*
X008070Y001533D03*
X008070Y001533D03*
X008070Y001534D03*
X008070Y001534D03*
X007360Y001529D03*
X007360Y001529D03*
X007360Y001529D03*
D318*
X007359Y001530D03*
X007359Y001530D03*
X007359Y001531D03*
D319*
X007359Y001531D03*
X007359Y001532D03*
X007359Y001533D03*
X007359Y001533D03*
X008070Y001536D03*
X008070Y001537D03*
X008070Y001538D03*
X008070Y001538D03*
X008070Y001539D03*
D320*
X008071Y001539D03*
X008071Y001539D03*
X008071Y001540D03*
X008071Y001540D03*
X007359Y001534D03*
X007359Y001534D03*
X007359Y001534D03*
D321*
X008070Y001535D03*
X008070Y001535D03*
X008070Y001534D03*
X008070Y001536D03*
D322*
X008071Y001541D03*
X008071Y001541D03*
X008071Y001542D03*
X008071Y001543D03*
X007359Y001536D03*
X007359Y001536D03*
X007359Y001535D03*
X007359Y001535D03*
D323*
X007358Y001537D03*
X007358Y001538D03*
X007358Y001538D03*
X008071Y001543D03*
X008071Y001544D03*
X008071Y001544D03*
X008071Y001544D03*
D324*
X007358Y001539D03*
X007358Y001539D03*
X007358Y001539D03*
D325*
X007358Y001540D03*
X007358Y001540D03*
X007358Y001541D03*
X007358Y001541D03*
X008072Y001547D03*
X008072Y001548D03*
X008072Y001548D03*
X008072Y001549D03*
D326*
X008072Y001549D03*
X008072Y001549D03*
X008072Y001550D03*
X008072Y001550D03*
X008072Y001551D03*
X007358Y001543D03*
X007358Y001543D03*
X007358Y001542D03*
D327*
X007357Y001544D03*
X007357Y001544D03*
X007357Y001544D03*
X007357Y001545D03*
X008072Y001551D03*
X008072Y001552D03*
X008072Y001553D03*
X008072Y001553D03*
D328*
X008071Y001546D03*
X008071Y001546D03*
X008071Y001545D03*
X008071Y001545D03*
D329*
X008073Y001554D03*
X008073Y001554D03*
X008073Y001554D03*
X008073Y001555D03*
X007357Y001546D03*
X007357Y001546D03*
X007357Y001545D03*
D330*
X007357Y001547D03*
X007357Y001548D03*
X007357Y001548D03*
D331*
X007356Y001549D03*
X007356Y001549D03*
X007356Y001549D03*
X007356Y001550D03*
X008073Y001558D03*
X008073Y001558D03*
X008073Y001559D03*
X008073Y001559D03*
D332*
X008073Y001559D03*
X008073Y001560D03*
X008073Y001560D03*
X008073Y001561D03*
X007356Y001551D03*
X007356Y001551D03*
X007356Y001550D03*
D333*
X007356Y001552D03*
X007356Y001553D03*
X007356Y001553D03*
X007356Y001554D03*
X008074Y001561D03*
X008074Y001562D03*
D334*
X007356Y001555D03*
X007356Y001554D03*
X007356Y001554D03*
D335*
X007356Y001555D03*
X007356Y001556D03*
X007356Y001556D03*
X007356Y001557D03*
D336*
X008073Y001557D03*
X008073Y001556D03*
X008073Y001556D03*
X008073Y001555D03*
D337*
X007355Y001558D03*
X007355Y001558D03*
X007355Y001559D03*
D338*
X007355Y001559D03*
X007355Y001559D03*
X007355Y001560D03*
D339*
X007355Y001560D03*
X007355Y001561D03*
X007355Y001561D03*
X007355Y001562D03*
D340*
X007411Y001563D03*
X007411Y001563D03*
X007411Y001564D03*
X007411Y001564D03*
X007411Y001564D03*
X007411Y001565D03*
X007411Y001565D03*
X007411Y001566D03*
X007411Y001566D03*
X007411Y001567D03*
X007411Y001568D03*
X007411Y001568D03*
X007411Y001569D03*
X007411Y001569D03*
X007411Y001569D03*
X007411Y001570D03*
X007411Y001570D03*
X007411Y001571D03*
X007411Y001571D03*
X007411Y001572D03*
X007411Y001573D03*
X007411Y001573D03*
X007411Y001574D03*
X007411Y001574D03*
X007411Y001574D03*
X007411Y001575D03*
X007411Y001575D03*
X007411Y001576D03*
X007411Y001576D03*
X007411Y001577D03*
X007411Y001578D03*
X007411Y001578D03*
X007411Y001579D03*
X007411Y001579D03*
X007411Y001579D03*
X007411Y001580D03*
X007411Y001580D03*
X007411Y001581D03*
X007411Y001581D03*
X007411Y001582D03*
X007411Y001583D03*
X007411Y001583D03*
X007411Y001584D03*
X007411Y001584D03*
X007411Y001584D03*
X007411Y001585D03*
X007411Y001585D03*
X007411Y001586D03*
X007411Y001586D03*
X007411Y001587D03*
X007411Y001588D03*
X007411Y001588D03*
D341*
X008019Y001588D03*
X008019Y001588D03*
X008019Y001587D03*
X008019Y001586D03*
X008019Y001586D03*
X008019Y001585D03*
X008019Y001585D03*
X008019Y001584D03*
X008019Y001584D03*
X008019Y001584D03*
X008019Y001583D03*
X008019Y001583D03*
X008019Y001582D03*
X008019Y001581D03*
X008019Y001581D03*
X008019Y001580D03*
X008019Y001580D03*
X008019Y001579D03*
X008019Y001579D03*
X008019Y001579D03*
X008019Y001578D03*
X008019Y001578D03*
X008019Y001577D03*
X008019Y001576D03*
X008019Y001576D03*
X008019Y001575D03*
X008019Y001575D03*
X008019Y001574D03*
X008019Y001574D03*
X008019Y001574D03*
X008019Y001573D03*
X008019Y001573D03*
X008019Y001572D03*
X008019Y001571D03*
X008019Y001571D03*
X008019Y001570D03*
X008019Y001570D03*
X008019Y001569D03*
X008019Y001569D03*
X008019Y001569D03*
X008019Y001568D03*
X008019Y001568D03*
X008019Y001567D03*
X008019Y001566D03*
X008019Y001566D03*
X008019Y001565D03*
X008019Y001565D03*
X008019Y001564D03*
X008019Y001564D03*
X008019Y001564D03*
X008019Y001563D03*
X008019Y001563D03*
D342*
X007715Y001589D03*
X007715Y001589D03*
X007715Y001589D03*
X007715Y001590D03*
X007715Y001590D03*
X007715Y001591D03*
X007715Y001591D03*
X007715Y001592D03*
X007715Y001593D03*
X007715Y001593D03*
X007715Y001594D03*
X007715Y001594D03*
X007715Y001594D03*
X007715Y001595D03*
X007715Y001595D03*
X007715Y001596D03*
X007715Y001596D03*
X007715Y001597D03*
X007715Y001598D03*
X007715Y001598D03*
X007715Y001599D03*
X007715Y001599D03*
X007715Y001599D03*
X007715Y001600D03*
X007715Y001600D03*
X007715Y001601D03*
X007715Y001601D03*
X007715Y001602D03*
X007715Y001603D03*
X007715Y001603D03*
X007715Y001604D03*
X007715Y001604D03*
X007715Y001604D03*
X007715Y001605D03*
X007715Y001605D03*
X007715Y001606D03*
X007715Y001606D03*
X007715Y001607D03*
X007715Y001608D03*
X007715Y001608D03*
X007715Y001609D03*
X007715Y001738D03*
X007715Y001738D03*
X007715Y001739D03*
X007715Y001739D03*
X007715Y001739D03*
X007715Y001740D03*
X007715Y001740D03*
X007715Y001741D03*
X007715Y001741D03*
X007715Y001742D03*
X007715Y001743D03*
X007715Y001743D03*
X007715Y001744D03*
X007715Y001744D03*
X007715Y001744D03*
X007715Y001745D03*
X007715Y001745D03*
X007715Y001746D03*
X007715Y001746D03*
X007715Y001747D03*
X007715Y001748D03*
X007715Y001748D03*
X007715Y001749D03*
X007715Y001749D03*
X007715Y001749D03*
X007715Y001750D03*
X007715Y001750D03*
X007715Y001751D03*
X007715Y001751D03*
X007715Y001752D03*
X007715Y001753D03*
X007715Y001753D03*
X007715Y001754D03*
X007715Y001754D03*
X007715Y001754D03*
X007715Y001755D03*
X007715Y001755D03*
X007715Y001756D03*
X007715Y001756D03*
X007715Y001757D03*
X007715Y001758D03*
X007715Y001758D03*
X007715Y001759D03*
X007715Y001759D03*
X007715Y001759D03*
X007715Y001760D03*
X007715Y001760D03*
X007715Y001761D03*
X007715Y001761D03*
X007715Y001762D03*
X007715Y001763D03*
X007715Y001763D03*
X007715Y001764D03*
X007715Y001764D03*
X007715Y001764D03*
X007715Y001765D03*
X007715Y001765D03*
X007715Y001766D03*
X007715Y001766D03*
X007715Y001767D03*
X007715Y001768D03*
X007715Y001768D03*
X007715Y001769D03*
X007715Y001769D03*
X007715Y001769D03*
X007715Y001770D03*
X007715Y001770D03*
X007715Y001771D03*
X007715Y001771D03*
X007715Y001772D03*
X007715Y001773D03*
X007715Y001773D03*
X007715Y001774D03*
D343*
X007441Y001737D03*
X007441Y001736D03*
X007441Y001736D03*
X007441Y001735D03*
X007441Y001735D03*
X007441Y001734D03*
X007441Y001734D03*
X007441Y001734D03*
X007441Y001733D03*
X007441Y001733D03*
X007441Y001732D03*
X007441Y001731D03*
X007441Y001731D03*
X007441Y001730D03*
X007441Y001730D03*
X007441Y001729D03*
X007441Y001729D03*
X007441Y001729D03*
X007441Y001728D03*
X007441Y001728D03*
X007441Y001727D03*
X007441Y001726D03*
X007441Y001726D03*
X007441Y001725D03*
X007441Y001725D03*
X007441Y001724D03*
X007441Y001724D03*
X007441Y001724D03*
X007441Y001723D03*
X007441Y001723D03*
X007441Y001722D03*
X007441Y001721D03*
X007441Y001721D03*
X007441Y001720D03*
X007441Y001720D03*
X007441Y001719D03*
X007441Y001719D03*
X007441Y001719D03*
X007441Y001718D03*
X007441Y001718D03*
X007441Y001717D03*
X007441Y001716D03*
X007441Y001716D03*
X007441Y001715D03*
X007441Y001715D03*
X007441Y001714D03*
X007441Y001714D03*
X007441Y001714D03*
X007441Y001713D03*
X007441Y001713D03*
X007441Y001712D03*
X007441Y001711D03*
X007441Y001711D03*
X007441Y001710D03*
X007441Y001710D03*
X007441Y001709D03*
X007441Y001709D03*
X007441Y001709D03*
X007441Y001708D03*
X007441Y001708D03*
X007441Y001707D03*
X007441Y001706D03*
X007441Y001706D03*
X007441Y001705D03*
X007441Y001705D03*
X007441Y001704D03*
X007441Y001704D03*
X007441Y001704D03*
X007441Y001703D03*
X007441Y001703D03*
X007441Y001702D03*
X007441Y001701D03*
X007441Y001701D03*
X007441Y001700D03*
X007441Y001700D03*
X007441Y001699D03*
X007441Y001699D03*
X007441Y001699D03*
X007441Y001698D03*
X007441Y001698D03*
X007441Y001697D03*
X007441Y001696D03*
X007441Y001696D03*
X007441Y001695D03*
X007441Y001695D03*
X007441Y001694D03*
X007441Y001694D03*
X007441Y001694D03*
X007441Y001693D03*
X007441Y001693D03*
X007441Y001692D03*
X007441Y001691D03*
X007441Y001691D03*
X007441Y001690D03*
X007441Y001690D03*
X007441Y001689D03*
X007441Y001689D03*
X007441Y001689D03*
X007441Y001688D03*
X007441Y001688D03*
X007441Y001687D03*
X007441Y001686D03*
X007441Y001686D03*
X007441Y001685D03*
X007441Y001685D03*
X007441Y001684D03*
X007441Y001684D03*
X007441Y001684D03*
X007441Y001683D03*
X007441Y001683D03*
X007441Y001682D03*
X007441Y001681D03*
X007441Y001681D03*
X007441Y001680D03*
X007441Y001680D03*
X007441Y001679D03*
X007441Y001679D03*
X007441Y001679D03*
X007441Y001678D03*
X007441Y001678D03*
X007441Y001677D03*
X007441Y001676D03*
X007441Y001676D03*
X007441Y001675D03*
X007441Y001675D03*
X007441Y001674D03*
X007441Y001674D03*
X007441Y001674D03*
X007441Y001673D03*
X007441Y001673D03*
X007441Y001672D03*
X007441Y001671D03*
X007441Y001671D03*
X007441Y001670D03*
X007441Y001670D03*
X007441Y001669D03*
X007441Y001669D03*
X007441Y001669D03*
X007441Y001668D03*
X007441Y001668D03*
X007441Y001667D03*
X007441Y001666D03*
X007441Y001666D03*
X007441Y001665D03*
X007441Y001665D03*
X007441Y001664D03*
X007441Y001664D03*
X007441Y001664D03*
X007441Y001663D03*
X007441Y001663D03*
X007441Y001662D03*
X007441Y001661D03*
X007441Y001661D03*
X007441Y001660D03*
X007441Y001660D03*
X007441Y001659D03*
X007441Y001659D03*
X007441Y001659D03*
X007441Y001658D03*
X007441Y001658D03*
X007441Y001657D03*
X007441Y001656D03*
X007441Y001656D03*
X007441Y001655D03*
X007441Y001655D03*
X007441Y001654D03*
X007441Y001654D03*
X007441Y001654D03*
X007441Y001653D03*
X007441Y001653D03*
X007441Y001652D03*
X007441Y001651D03*
X007441Y001651D03*
X007441Y001650D03*
X007441Y001650D03*
X007441Y001649D03*
X007441Y001649D03*
X007441Y001649D03*
X007441Y001648D03*
X007441Y001648D03*
X007441Y001647D03*
X007441Y001646D03*
X007441Y001646D03*
X007441Y001645D03*
X007441Y001645D03*
X007441Y001644D03*
X007441Y001644D03*
X007441Y001644D03*
X007441Y001643D03*
X007441Y001643D03*
X007441Y001642D03*
X007441Y001641D03*
X007441Y001641D03*
X007441Y001640D03*
X007441Y001640D03*
X007441Y001639D03*
X007441Y001639D03*
X007441Y001639D03*
X007441Y001638D03*
X007441Y001638D03*
X007441Y001637D03*
X007441Y001636D03*
X007441Y001636D03*
X007441Y001635D03*
X007441Y001635D03*
X007441Y001634D03*
X007441Y001634D03*
X007441Y001634D03*
X007441Y001633D03*
X007441Y001633D03*
X007441Y001632D03*
X007441Y001631D03*
X007441Y001631D03*
X007441Y001630D03*
X007441Y001630D03*
X007441Y001629D03*
X007441Y001629D03*
X007441Y001629D03*
X007441Y001628D03*
X007441Y001628D03*
X007441Y001627D03*
X007441Y001626D03*
X007441Y001626D03*
X007441Y001625D03*
X007441Y001625D03*
X007441Y001624D03*
X007441Y001624D03*
X007441Y001624D03*
X007441Y001623D03*
X007441Y001623D03*
X007441Y001622D03*
X007441Y001621D03*
X007441Y001621D03*
X007441Y001620D03*
X007441Y001620D03*
X007441Y001619D03*
X007441Y001619D03*
X007441Y001619D03*
X007441Y001618D03*
X007441Y001618D03*
X007441Y001617D03*
X007441Y001616D03*
X007441Y001616D03*
X007441Y001615D03*
X007441Y001615D03*
X007441Y001614D03*
X007441Y001614D03*
X007441Y001614D03*
X007441Y001613D03*
X007441Y001613D03*
X007441Y001612D03*
X007441Y001611D03*
X007441Y001611D03*
X007441Y001610D03*
X007441Y001610D03*
X007441Y001609D03*
X007441Y001609D03*
D344*
X007996Y001610D03*
X007996Y001610D03*
X007996Y001609D03*
X007996Y001609D03*
X007996Y001611D03*
X007996Y001611D03*
X007996Y001612D03*
X007996Y001613D03*
X007996Y001613D03*
X007996Y001614D03*
X007996Y001614D03*
X007996Y001614D03*
X007996Y001615D03*
X007996Y001615D03*
X007996Y001616D03*
X007996Y001616D03*
X007996Y001617D03*
X007996Y001618D03*
X007996Y001618D03*
X007996Y001619D03*
X007996Y001619D03*
X007996Y001619D03*
X007996Y001620D03*
X007996Y001620D03*
X007996Y001621D03*
X007996Y001621D03*
X007996Y001622D03*
X007996Y001623D03*
X007996Y001623D03*
X007996Y001624D03*
X007996Y001624D03*
X007996Y001624D03*
X007996Y001625D03*
X007996Y001625D03*
X007996Y001626D03*
X007996Y001626D03*
X007996Y001627D03*
X007996Y001628D03*
X007996Y001628D03*
X007996Y001629D03*
X007996Y001629D03*
X007996Y001629D03*
X007996Y001630D03*
X007996Y001630D03*
X007996Y001631D03*
X007996Y001631D03*
X007996Y001632D03*
X007996Y001633D03*
X007996Y001633D03*
X007996Y001634D03*
X007996Y001634D03*
X007996Y001634D03*
X007996Y001635D03*
X007996Y001635D03*
X007996Y001636D03*
X007996Y001636D03*
X007996Y001637D03*
X007996Y001638D03*
X007996Y001638D03*
X007996Y001639D03*
X007996Y001639D03*
X007996Y001639D03*
X007996Y001640D03*
X007996Y001640D03*
X007996Y001641D03*
X007996Y001641D03*
X007996Y001642D03*
X007996Y001643D03*
X007996Y001643D03*
X007996Y001644D03*
X007996Y001644D03*
X007996Y001644D03*
X007996Y001645D03*
X007996Y001645D03*
X007996Y001646D03*
X007996Y001646D03*
X007996Y001647D03*
X007996Y001648D03*
X007996Y001648D03*
X007996Y001649D03*
X007996Y001649D03*
X007996Y001649D03*
X007996Y001650D03*
X007996Y001650D03*
X007996Y001651D03*
X007996Y001651D03*
X007996Y001652D03*
X007996Y001653D03*
X007996Y001653D03*
X007996Y001654D03*
X007996Y001654D03*
X007996Y001654D03*
X007996Y001655D03*
X007996Y001655D03*
X007996Y001656D03*
X007996Y001656D03*
X007996Y001657D03*
X007996Y001658D03*
X007996Y001658D03*
X007996Y001659D03*
X007996Y001659D03*
X007996Y001659D03*
X007996Y001660D03*
X007996Y001660D03*
X007996Y001661D03*
X007996Y001661D03*
X007996Y001662D03*
X007996Y001663D03*
X007996Y001663D03*
X007996Y001664D03*
X007996Y001664D03*
X007996Y001664D03*
X007996Y001665D03*
X007996Y001665D03*
X007996Y001666D03*
X007996Y001666D03*
X007996Y001667D03*
X007996Y001668D03*
X007996Y001668D03*
X007996Y001669D03*
X007996Y001669D03*
X007996Y001669D03*
X007996Y001670D03*
X007996Y001670D03*
X007996Y001671D03*
X007996Y001671D03*
X007996Y001672D03*
X007996Y001673D03*
X007996Y001673D03*
X007996Y001674D03*
X007996Y001674D03*
X007996Y001674D03*
X007996Y001675D03*
X007996Y001675D03*
X007996Y001676D03*
X007996Y001676D03*
X007996Y001677D03*
X007996Y001678D03*
X007996Y001678D03*
X007996Y001679D03*
X007996Y001679D03*
X007996Y001679D03*
X007996Y001680D03*
X007996Y001680D03*
X007996Y001681D03*
X007996Y001681D03*
X007996Y001682D03*
X007996Y001683D03*
X007996Y001683D03*
X007996Y001684D03*
X007996Y001684D03*
X007996Y001684D03*
X007996Y001685D03*
X007996Y001685D03*
X007996Y001686D03*
X007996Y001686D03*
X007996Y001687D03*
X007996Y001688D03*
X007996Y001688D03*
X007996Y001689D03*
X007996Y001689D03*
X007996Y001689D03*
X007996Y001690D03*
X007996Y001690D03*
X007996Y001691D03*
X007996Y001691D03*
X007996Y001692D03*
X007996Y001693D03*
X007996Y001693D03*
X007996Y001694D03*
X007996Y001694D03*
X007996Y001694D03*
X007996Y001695D03*
X007996Y001695D03*
X007996Y001696D03*
X007996Y001696D03*
X007996Y001697D03*
X007996Y001698D03*
X007996Y001698D03*
X007996Y001699D03*
X007996Y001699D03*
X007996Y001699D03*
X007996Y001700D03*
X007996Y001700D03*
X007996Y001701D03*
X007996Y001701D03*
X007996Y001702D03*
X007996Y001703D03*
X007996Y001703D03*
X007996Y001704D03*
X007996Y001704D03*
X007996Y001704D03*
X007996Y001705D03*
X007996Y001705D03*
X007996Y001706D03*
X007996Y001706D03*
X007996Y001707D03*
X007996Y001708D03*
X007996Y001708D03*
X007996Y001709D03*
X007996Y001709D03*
X007996Y001709D03*
X007996Y001710D03*
X007996Y001710D03*
X007996Y001711D03*
X007996Y001711D03*
X007996Y001712D03*
X007996Y001713D03*
X007996Y001713D03*
X007996Y001714D03*
X007996Y001714D03*
X007996Y001714D03*
X007996Y001715D03*
X007996Y001715D03*
X007996Y001716D03*
X007996Y001716D03*
X007996Y001717D03*
X007996Y001718D03*
X007996Y001718D03*
X007996Y001719D03*
X007996Y001719D03*
X007996Y001719D03*
X007996Y001720D03*
X007996Y001720D03*
X007996Y001721D03*
X007996Y001721D03*
X007996Y001722D03*
X007996Y001723D03*
X007996Y001723D03*
X007996Y001724D03*
X007996Y001724D03*
X007996Y001724D03*
X007996Y001725D03*
X007996Y001725D03*
X007996Y001726D03*
X007996Y001726D03*
X007996Y001727D03*
X007996Y001728D03*
X007996Y001728D03*
X007996Y001729D03*
X007996Y001729D03*
X007996Y001729D03*
X007996Y001730D03*
X007996Y001730D03*
X007996Y001731D03*
X007996Y001731D03*
X007996Y001732D03*
X007996Y001733D03*
X007996Y001733D03*
X007996Y001734D03*
X007996Y001734D03*
X007996Y001734D03*
X007996Y001735D03*
X007996Y001735D03*
X007996Y001736D03*
X007996Y001736D03*
X007996Y001737D03*
D345*
X007715Y001774D03*
X007715Y001774D03*
D346*
X007715Y001775D03*
X007715Y001775D03*
X007715Y001776D03*
X007715Y001776D03*
X007715Y001777D03*
X007715Y001778D03*
X007715Y001778D03*
D347*
X007715Y001779D03*
D348*
X007715Y001779D03*
X007715Y001779D03*
X007715Y001780D03*
X007715Y001780D03*
X007715Y001781D03*
D349*
X007715Y001781D03*
X007715Y001782D03*
D350*
X007715Y001783D03*
X007715Y001783D03*
X007715Y001784D03*
X007715Y001784D03*
D351*
X007715Y001784D03*
X007715Y001785D03*
D352*
X007715Y001785D03*
X007715Y001786D03*
X007715Y001786D03*
D353*
X007715Y001787D03*
X007715Y001788D03*
D354*
X007715Y001788D03*
X007715Y001789D03*
X007715Y001789D03*
D355*
X007715Y001789D03*
X007715Y001790D03*
D356*
X007715Y001790D03*
X007715Y001791D03*
X007715Y001791D03*
D357*
X007715Y001792D03*
D358*
X007715Y001793D03*
X007715Y001793D03*
X007715Y001794D03*
X007715Y001794D03*
D359*
X007715Y001794D03*
X007715Y001795D03*
X007715Y001795D03*
X007715Y001796D03*
D360*
X007715Y001796D03*
X007715Y001797D03*
X007715Y001798D03*
X007715Y001798D03*
D361*
X007715Y001799D03*
X007715Y001799D03*
X007715Y001799D03*
X007715Y001800D03*
D362*
X007715Y001800D03*
X007715Y001801D03*
X007715Y001801D03*
X007715Y001802D03*
D363*
X007715Y001803D03*
X007715Y001803D03*
X007715Y001804D03*
D364*
X007715Y001804D03*
D365*
X007715Y001804D03*
X007715Y001805D03*
D366*
X007715Y001805D03*
D367*
X007715Y001806D03*
X007715Y001806D03*
X007715Y001807D03*
D368*
X007715Y001808D03*
D369*
X007715Y001808D03*
X007715Y001809D03*
D370*
X007715Y001809D03*
D371*
X007715Y001809D03*
X007715Y001810D03*
D372*
X007715Y001810D03*
D373*
X007715Y001811D03*
X007715Y001811D03*
D374*
X007715Y001812D03*
D375*
X007715Y001813D03*
D376*
X007715Y001813D03*
D377*
X007715Y001814D03*
X007715Y001814D03*
D378*
X007715Y001814D03*
D379*
X007715Y001815D03*
X007715Y001815D03*
D380*
X007715Y001816D03*
D381*
X007715Y001816D03*
D382*
X007715Y001817D03*
D383*
X007715Y001818D03*
X007715Y001818D03*
D384*
X007715Y001819D03*
D385*
X007715Y001819D03*
D386*
X007715Y001819D03*
D387*
X007715Y001820D03*
D388*
X007715Y001820D03*
D389*
X007715Y001821D03*
D390*
X007715Y001821D03*
D391*
X007715Y001822D03*
D392*
X007715Y001823D03*
D393*
X007715Y001823D03*
D394*
X007715Y001824D03*
D395*
X007715Y001824D03*
D396*
X007715Y001824D03*
D397*
X007715Y001825D03*
D398*
X007715Y001825D03*
D399*
X007715Y001826D03*
D400*
X007715Y001826D03*
D401*
X007715Y001827D03*
D402*
X007715Y001828D03*
D403*
X007715Y001828D03*
D404*
X007715Y001829D03*
D405*
X007715Y001829D03*
D406*
X007715Y001829D03*
D407*
X007715Y001830D03*
D408*
X007715Y001830D03*
D409*
X007715Y001831D03*
D410*
X007715Y001831D03*
D411*
X007715Y001832D03*
D412*
X007715Y001833D03*
D413*
X007715Y001833D03*
D414*
X007715Y001834D03*
D415*
X007715Y001834D03*
D416*
X007715Y001834D03*
D417*
X007715Y001835D03*
D418*
X007715Y001835D03*
D419*
X007715Y001836D03*
D420*
X007715Y001836D03*
D421*
X007715Y001837D03*
D422*
X007715Y001838D03*
D423*
X007715Y001838D03*
D424*
X007715Y001839D03*
D425*
X007715Y001839D03*
D426*
X007715Y001839D03*
D427*
X007715Y001840D03*
D428*
X007715Y001840D03*
D429*
X007715Y001841D03*
D430*
X007715Y001841D03*
D431*
X007715Y001842D03*
D432*
X007715Y001843D03*
D433*
X007715Y001843D03*
D434*
X007715Y001844D03*
D435*
X007715Y001844D03*
D436*
X007715Y001844D03*
D437*
X007715Y001845D03*
D438*
X007715Y001845D03*
D439*
X007715Y001846D03*
D440*
X007715Y001846D03*
D441*
X007715Y001847D03*
D442*
X007715Y001848D03*
D443*
X007715Y001848D03*
D444*
X007715Y001849D03*
D445*
X007715Y001849D03*
D446*
X007715Y001849D03*
D447*
X007715Y001850D03*
D448*
X007715Y001850D03*
D449*
X007715Y001851D03*
D450*
X007715Y001851D03*
D451*
X007715Y001852D03*
D452*
X007715Y001853D03*
D453*
X007715Y001853D03*
D454*
X007715Y001854D03*
D455*
X007715Y001854D03*
D456*
X007715Y001854D03*
D457*
X007715Y001855D03*
D458*
X007715Y001855D03*
D459*
X007715Y001856D03*
D460*
X007715Y001856D03*
D461*
X007715Y001857D03*
D462*
X007715Y001858D03*
D463*
X007715Y001858D03*
D464*
X007715Y001859D03*
D465*
X007715Y001859D03*
D466*
X007715Y001859D03*
D467*
X007715Y001860D03*
D468*
X007715Y001860D03*
D469*
X007715Y001861D03*
D470*
X007715Y001861D03*
D471*
X007715Y001862D03*
D472*
X007715Y001863D03*
D473*
X007715Y001863D03*
D474*
X007715Y001864D03*
D475*
X007715Y001864D03*
D476*
X007715Y001864D03*
D477*
X007715Y001865D03*
D478*
X007715Y001865D03*
D479*
X007715Y001866D03*
D480*
X007715Y001866D03*
D481*
X007715Y001867D03*
D482*
X007715Y001868D03*
D483*
X007715Y001868D03*
D484*
X007715Y001869D03*
D485*
X007715Y001869D03*
D486*
X007715Y001869D03*
D487*
X007715Y001870D03*
D488*
X007715Y001870D03*
D489*
X007715Y001871D03*
D490*
X007715Y001871D03*
D491*
X007715Y001872D03*
D492*
X007715Y001873D03*
D493*
X007715Y001873D03*
D494*
X007715Y001874D03*
D495*
X007715Y001874D03*
D496*
X007715Y001874D03*
D497*
X007715Y001875D03*
D498*
X007715Y001875D03*
D499*
X007715Y001876D03*
D500*
X007715Y001876D03*
D501*
X007715Y001877D03*
D502*
X007715Y001878D03*
D503*
X007715Y001878D03*
D504*
X007715Y001879D03*
D505*
X007715Y001879D03*
D506*
X007715Y001879D03*
D507*
X007715Y001880D03*
D508*
X007715Y001880D03*
D509*
X007715Y001881D03*
D510*
X007715Y001881D03*
D511*
X007715Y001882D03*
D512*
X007715Y001883D03*
D513*
X007715Y001883D03*
D514*
X007715Y001884D03*
D515*
X007715Y001884D03*
D516*
X007715Y001884D03*
D517*
X007715Y001885D03*
D518*
X007715Y001885D03*
D519*
X007715Y001886D03*
D520*
X007715Y001886D03*
D521*
X007715Y001887D03*
D522*
X007715Y001888D03*
D523*
X007715Y001888D03*
D524*
X007715Y001889D03*
D525*
X007715Y001889D03*
D526*
X007715Y001889D03*
D527*
X007715Y001890D03*
D528*
X007715Y001890D03*
D529*
X007715Y001891D03*
D530*
X007715Y001891D03*
D531*
X007715Y001892D03*
D532*
X007715Y001893D03*
D533*
X007715Y001893D03*
D534*
X007715Y001894D03*
D535*
X007715Y001894D03*
D536*
X007715Y001894D03*
D537*
X007715Y001895D03*
D538*
X007715Y001895D03*
D539*
X007715Y001896D03*
D540*
X007715Y001896D03*
D541*
X007715Y001897D03*
D542*
X007715Y001898D03*
D543*
X007715Y001898D03*
D544*
X007715Y001899D03*
D545*
X007715Y001899D03*
D546*
X007715Y001899D03*
D547*
X007715Y001900D03*
D548*
X007715Y001900D03*
D549*
X007715Y001901D03*
D550*
X007715Y001901D03*
D551*
X007715Y001902D03*
D552*
X007715Y001903D03*
D553*
X007715Y001903D03*
D554*
X007715Y001904D03*
D555*
X007715Y001904D03*
D556*
X007715Y001904D03*
D557*
X007715Y001905D03*
D558*
X007715Y001905D03*
D559*
X007715Y001906D03*
D560*
X007715Y001906D03*
D561*
X007715Y001907D03*
D562*
X007715Y001908D03*
D563*
X007715Y001908D03*
D564*
X007715Y001909D03*
D565*
X007715Y001909D03*
D566*
X007715Y001909D03*
D567*
X007715Y001910D03*
D568*
X007715Y001910D03*
D569*
X007715Y001911D03*
D570*
X007715Y001911D03*
D571*
X007715Y001912D03*
D572*
X007715Y001913D03*
D573*
X007715Y001913D03*
D574*
X007715Y001914D03*
D575*
X007715Y001914D03*
D576*
X007715Y001914D03*
D577*
X007715Y001915D03*
D578*
X007715Y001915D03*
D579*
X007715Y001916D03*
D580*
X007715Y001916D03*
D581*
X007715Y001917D03*
D582*
X007715Y001918D03*
D583*
X007715Y001918D03*
D584*
X007715Y001919D03*
D585*
X007715Y001919D03*
D586*
X007715Y001919D03*
D587*
X007715Y001920D03*
D588*
X007715Y001920D03*
D589*
X007715Y001921D03*
D590*
X007715Y001921D03*
D591*
X007715Y001922D03*
D592*
X007715Y001923D03*
D593*
X007715Y001923D03*
D594*
X007715Y001924D03*
D595*
X007715Y001924D03*
D596*
X007715Y001924D03*
D597*
X007715Y001925D03*
D598*
X007715Y001925D03*
D599*
X007715Y001926D03*
D600*
X007715Y001926D03*
D601*
X007715Y001927D03*
D602*
X007715Y001928D03*
D603*
X007715Y001928D03*
D604*
X007715Y001929D03*
D605*
X007715Y001929D03*
D606*
X007715Y001929D03*
D607*
X007715Y001930D03*
D608*
X007715Y001930D03*
D609*
X007715Y001931D03*
D610*
X007715Y001931D03*
D611*
X007715Y001932D03*
D612*
X007715Y001933D03*
D613*
X007715Y001933D03*
D614*
X007715Y001934D03*
D615*
X007715Y001934D03*
D616*
X007715Y001934D03*
D617*
X007715Y001935D03*
D618*
X007715Y001935D03*
D619*
X007715Y001936D03*
D620*
X007715Y001936D03*
D621*
X007715Y001937D03*
D622*
X007715Y001938D03*
D623*
X007715Y001938D03*
D624*
X007715Y001939D03*
D625*
X007715Y001939D03*
D626*
X007715Y001939D03*
D627*
X007715Y001940D03*
D628*
X007715Y001940D03*
D629*
X007715Y001941D03*
D630*
X007715Y001941D03*
D631*
X007715Y001942D03*
D632*
X007715Y001943D03*
D633*
X007715Y001943D03*
D634*
X007715Y001944D03*
D635*
X007715Y001944D03*
D636*
X007715Y001944D03*
D637*
X007715Y001945D03*
D638*
X007715Y001945D03*
D639*
X007715Y001946D03*
D640*
X007715Y001946D03*
D641*
X007715Y001947D03*
D642*
X007715Y001948D03*
D643*
X007715Y001948D03*
D644*
X007715Y001949D03*
D645*
X007715Y001949D03*
D646*
X007715Y001949D03*
D647*
X007715Y001950D03*
D648*
X007715Y001950D03*
D649*
X007715Y001951D03*
D650*
X007715Y001951D03*
D651*
X007715Y001952D03*
D652*
X007715Y001953D03*
D653*
X007715Y001953D03*
D654*
X007715Y001954D03*
D655*
X007715Y001954D03*
D656*
X007715Y001954D03*
D657*
X007715Y001955D03*
D658*
X007715Y001955D03*
D659*
X007715Y001956D03*
D660*
X007715Y001956D03*
D661*
X007715Y001957D03*
D662*
X007715Y001958D03*
D663*
X007715Y001958D03*
D664*
X007715Y001959D03*
D665*
X007715Y001959D03*
D666*
X007714Y001959D03*
D667*
X007714Y001960D03*
D668*
X007714Y001960D03*
D669*
X007714Y001961D03*
D670*
X007714Y001961D03*
D671*
X007714Y001962D03*
D672*
X007714Y001963D03*
D673*
X007714Y001963D03*
D674*
X007714Y001964D03*
D675*
X007714Y001964D03*
D676*
X007211Y000911D02*
X007212Y000910D01*
X007211Y000910D01*
X007211Y000910D01*
X007211Y000911D01*
X007211Y000911D01*
X007211Y000910D02*
X007211Y000910D01*
X007212Y000910D02*
X007212Y000910D01*
X007211Y000910D02*
X007210Y000911D01*
X007210Y000911D01*
X007210Y000910D01*
X007210Y000910D01*
X007210Y000910D01*
X007210Y000910D01*
X007209Y000910D01*
X007209Y000911D01*
X007210Y000911D01*
X007210Y000910D01*
X007210Y000911D01*
X007210Y000910D01*
X007209Y000910D02*
X007209Y000910D01*
X007209Y000910D01*
X007209Y000910D01*
X007209Y000910D01*
X007208Y000910D02*
X007208Y000910D01*
X007208Y000910D01*
X007208Y000910D01*
X007208Y000910D01*
X007208Y000910D01*
X007208Y000911D01*
X007208Y000911D01*
X007208Y000910D01*
X007207Y000910D02*
X007207Y000910D01*
X007207Y000910D01*
X007207Y000910D01*
X007207Y000910D01*
X007207Y000910D01*
X007207Y000911D01*
X007207Y000910D01*
X007206Y000910D02*
X007206Y000910D01*
X007206Y000910D01*
X007206Y000910D01*
X007206Y000910D01*
X007206Y000910D01*
X007205Y000910D01*
X007204Y000910D01*
X007204Y000910D01*
X007204Y000911D01*
X007204Y000911D01*
X007204Y000911D01*
X007203Y000910D02*
X007203Y000910D01*
X007203Y000910D01*
X007203Y000910D01*
X007203Y000910D01*
X007203Y000910D01*
X007203Y000911D01*
X007203Y000911D01*
X007202Y000910D02*
X007202Y000911D01*
X007202Y000910D02*
X007201Y000911D01*
X007201Y000910D01*
X007201Y000910D01*
X007201Y000910D01*
X007201Y000910D01*
X007200Y000910D01*
X007200Y000910D01*
X007200Y000910D01*
X007200Y000910D01*
X007200Y000910D01*
X007199Y000910D01*
X007198Y000910D01*
X007198Y000911D01*
X007198Y000910D01*
X007199Y000911D02*
X007199Y000910D01*
X007199Y000910D01*
X007200Y000910D01*
X007200Y000911D01*
X007201Y000911D01*
X007201Y000911D01*
X007202Y000910D02*
X007202Y000910D01*
X007201Y000910D01*
X007200Y000911D02*
X007199Y000911D01*
X007199Y000911D01*
X007199Y000910D01*
X007198Y000911D02*
X007199Y000911D01*
X007197Y000910D02*
X007197Y000911D01*
X007196Y000910D02*
X007196Y000910D01*
X007196Y000910D01*
X007196Y000910D01*
X007196Y000910D01*
X007196Y000910D01*
X007195Y000910D02*
X007195Y000910D01*
X007195Y000910D01*
X007195Y000911D01*
X007195Y000910D01*
X007195Y000911D01*
X007195Y000911D01*
X007195Y000910D01*
X007195Y000910D01*
X007194Y000910D01*
X007194Y000910D01*
X007194Y000910D01*
X007194Y000910D01*
X007194Y000910D01*
X007194Y000911D01*
X007194Y000911D01*
X007195Y000910D01*
X007196Y000910D02*
X007196Y000911D01*
X007196Y000911D01*
X007196Y000910D01*
X007194Y000910D02*
X007193Y000911D01*
X007193Y000910D01*
X007193Y000911D01*
X007192Y000910D01*
X007193Y000911D02*
X007193Y000911D01*
X007205Y000911D02*
X007205Y000911D01*
X007205Y000910D01*
X007206Y000911D02*
X007206Y000910D01*
X007206Y000911D02*
X007206Y000911D01*
X007206Y000910D01*
X007207Y000911D02*
X007207Y000911D01*
D677*
X006950Y004175D03*
X007800Y004175D03*
X005950Y004175D03*
X005000Y004175D03*
X005000Y005625D03*
X006000Y005625D03*
X007450Y005625D03*
X008000Y005625D03*
D678*
X008270Y005505D02*
X008500Y005505D01*
X008577Y005429D01*
X008577Y005275D01*
X008500Y005198D01*
X008270Y005198D01*
X008270Y005045D02*
X008270Y005505D01*
X008423Y005198D02*
X008577Y005045D01*
X008730Y005122D02*
X008807Y005045D01*
X008961Y005045D01*
X009037Y005122D01*
X009037Y005275D01*
X008961Y005352D01*
X008884Y005352D01*
X008730Y005275D01*
X008730Y005505D01*
X009037Y005505D01*
X009370Y005772D02*
X009447Y005695D01*
X009600Y005695D01*
X009677Y005772D01*
X009830Y005772D02*
X009907Y005695D01*
X010061Y005695D01*
X010137Y005772D01*
X010137Y005925D01*
X010061Y006002D01*
X009984Y006002D01*
X009830Y005925D01*
X009830Y006155D01*
X010137Y006155D01*
X009677Y006079D02*
X009600Y006155D01*
X009447Y006155D01*
X009370Y006079D01*
X009370Y005772D01*
X008711Y006445D02*
X008711Y006905D01*
X008480Y006675D01*
X008787Y006675D01*
X008327Y006522D02*
X008250Y006445D01*
X008097Y006445D01*
X008020Y006522D01*
X008020Y006829D01*
X008097Y006905D01*
X008250Y006905D01*
X008327Y006829D01*
X007087Y006129D02*
X007087Y006052D01*
X006780Y005745D01*
X007087Y005745D01*
X007167Y005455D02*
X007013Y005379D01*
X006860Y005225D01*
X007090Y005225D01*
X007167Y005148D01*
X007167Y005072D01*
X007090Y004995D01*
X006936Y004995D01*
X006860Y005072D01*
X006860Y005225D01*
X006706Y005225D02*
X006629Y005148D01*
X006399Y005148D01*
X006553Y005148D02*
X006706Y004995D01*
X006399Y004995D02*
X006399Y005455D01*
X006629Y005455D01*
X006706Y005379D01*
X006706Y005225D01*
X006627Y005745D02*
X006473Y005898D01*
X006550Y005898D02*
X006320Y005898D01*
X006550Y005898D02*
X006627Y005975D01*
X006627Y006129D01*
X006550Y006205D01*
X006320Y006205D01*
X006320Y005745D01*
X006780Y006129D02*
X006857Y006205D01*
X007011Y006205D01*
X007087Y006129D01*
X004787Y006572D02*
X004711Y006495D01*
X004557Y006495D01*
X004480Y006572D01*
X004327Y006572D02*
X004250Y006495D01*
X004097Y006495D01*
X004020Y006572D01*
X004020Y006879D01*
X004097Y006955D01*
X004250Y006955D01*
X004327Y006879D01*
X004480Y006879D02*
X004557Y006955D01*
X004711Y006955D01*
X004787Y006879D01*
X004787Y006802D01*
X004711Y006725D01*
X004787Y006648D01*
X004787Y006572D01*
X004711Y006725D02*
X004634Y006725D01*
X004661Y006205D02*
X004507Y006205D01*
X004430Y006129D01*
X004430Y006052D01*
X004507Y005975D01*
X004661Y005975D01*
X004737Y005898D01*
X004737Y005822D01*
X004661Y005745D01*
X004507Y005745D01*
X004430Y005822D01*
X004430Y005898D01*
X004507Y005975D01*
X004661Y005975D02*
X004737Y006052D01*
X004737Y006129D01*
X004661Y006205D01*
X004277Y006129D02*
X004277Y005975D01*
X004200Y005898D01*
X003970Y005898D01*
X004123Y005898D02*
X004277Y005745D01*
X003970Y005745D02*
X003970Y006205D01*
X004200Y006205D01*
X004277Y006129D01*
X004730Y004352D02*
X004730Y004045D01*
X004730Y003892D02*
X004577Y003738D01*
X004577Y003815D02*
X004577Y003585D01*
X004730Y003585D02*
X004270Y003585D01*
X004270Y003815D01*
X004346Y003892D01*
X004500Y003892D01*
X004577Y003815D01*
X004423Y004045D02*
X004270Y004199D01*
X004730Y004199D01*
X005230Y004256D02*
X005230Y004102D01*
X005306Y004025D01*
X005306Y003872D02*
X005460Y003872D01*
X005537Y003795D01*
X005537Y003565D01*
X005690Y003565D02*
X005230Y003565D01*
X005230Y003795D01*
X005306Y003872D01*
X005537Y003718D02*
X005690Y003872D01*
X005613Y004025D02*
X005690Y004102D01*
X005690Y004256D01*
X005613Y004332D01*
X005537Y004332D01*
X005460Y004256D01*
X005460Y004179D01*
X005460Y004256D02*
X005383Y004332D01*
X005306Y004332D01*
X005230Y004256D01*
X006220Y004276D02*
X006450Y004045D01*
X006450Y004352D01*
X006680Y004276D02*
X006220Y004276D01*
X006296Y003892D02*
X006450Y003892D01*
X006527Y003815D01*
X006527Y003585D01*
X006680Y003585D02*
X006220Y003585D01*
X006220Y003815D01*
X006296Y003892D01*
X006527Y003738D02*
X006680Y003892D01*
X008070Y003815D02*
X008070Y003585D01*
X008530Y003585D01*
X008377Y003585D02*
X008377Y003815D01*
X008300Y003892D01*
X008146Y003892D01*
X008070Y003815D01*
X008070Y004045D02*
X008070Y004352D01*
X008146Y004352D01*
X008453Y004045D01*
X008530Y004045D01*
X008530Y003892D02*
X008377Y003738D01*
X013665Y006256D02*
X014049Y006256D01*
X014126Y006333D01*
X014126Y006487D01*
X014049Y006563D01*
X013665Y006563D01*
X013742Y006717D02*
X013665Y006794D01*
X013665Y006947D01*
X013742Y007024D01*
X013819Y007024D01*
X014126Y006717D01*
X014126Y007024D01*
D679*
X009062Y006275D02*
X009038Y006275D01*
X007350Y006663D02*
X007350Y006687D01*
X005500Y006663D02*
X005500Y006687D01*
D680*
X004811Y007016D02*
X013591Y007016D01*
X013591Y003434D01*
X004811Y003434D01*
X004811Y007016D01*
X002900Y006975D02*
X002900Y006475D01*
X002650Y006225D01*
X002900Y005975D01*
X002900Y005475D01*
X002650Y005225D01*
X002900Y004975D01*
X002900Y004475D01*
X002650Y004225D01*
X002900Y003975D01*
X002900Y003475D01*
X002650Y003225D01*
X002900Y002975D01*
X002900Y002475D01*
X002650Y002225D01*
X002900Y001975D01*
X002900Y001475D01*
X002650Y001225D01*
X002900Y000975D01*
X002900Y000475D01*
X002650Y000225D01*
X002150Y000225D01*
X001900Y000475D01*
X001900Y000975D01*
X002150Y001225D01*
X001900Y001475D01*
X001900Y001975D01*
X002150Y002225D01*
X001900Y002475D01*
X001900Y002975D01*
X002150Y003225D01*
X001900Y003475D01*
X001900Y003975D01*
X002150Y004225D01*
X001900Y004475D01*
X001900Y004975D01*
X002150Y005225D01*
X001900Y005475D01*
X001900Y005975D01*
X002150Y006225D01*
X001900Y006475D01*
X001900Y006975D01*
X002150Y007225D01*
X001900Y007475D01*
X001900Y007975D01*
X002150Y008225D01*
X001900Y008475D01*
X001900Y008975D01*
X002150Y009225D01*
X001900Y009475D01*
X001900Y009975D01*
X002150Y010225D01*
X002650Y010225D01*
X002900Y009975D01*
X002900Y009475D01*
X002650Y009225D01*
X002900Y008975D01*
X002900Y008475D01*
X002650Y008225D01*
X002900Y007975D01*
X002900Y007475D01*
X002650Y007225D01*
X002900Y006975D01*
M02*
