G75*
%MOIN*%
%OFA0B0*%
%FSLAX24Y24*%
%IPPOS*%
%LPD*%
%AMOC8*
5,1,8,0,0,1.08239X$1,22.5*
%
%ADD10C,0.0555*%
%ADD11R,0.0555X0.0555*%
%ADD12R,0.0740X0.0740*%
%ADD13C,0.0740*%
%ADD14C,0.0160*%
%ADD15C,0.0400*%
D10*
X006468Y002895D03*
X007256Y002895D03*
X008043Y002895D03*
X008830Y002895D03*
X009618Y002895D03*
X010405Y002895D03*
X011193Y002895D03*
X011980Y002895D03*
X012767Y002895D03*
X012374Y007855D03*
X011586Y007855D03*
X010799Y007855D03*
X010011Y007855D03*
X009224Y007855D03*
X008437Y007855D03*
X007649Y007855D03*
X006862Y007855D03*
X006074Y007855D03*
X005287Y007855D03*
D11*
X005681Y002895D03*
D12*
X000680Y000875D03*
D13*
X000680Y001875D03*
X000680Y002875D03*
X000680Y003875D03*
X000680Y004875D03*
X000680Y005875D03*
X000680Y006875D03*
X000680Y007875D03*
X000680Y008875D03*
X000680Y009875D03*
D14*
X000700Y009885D02*
X001988Y009885D01*
X001959Y009856D02*
X001959Y009856D01*
X001830Y009544D01*
X001830Y009206D01*
X001959Y008894D01*
X002199Y008654D01*
X002511Y008525D01*
X002849Y008525D01*
X003161Y008654D01*
X003401Y008894D01*
X003530Y009206D01*
X003530Y009544D01*
X003401Y009856D01*
X003401Y009856D01*
X003161Y010096D01*
X002934Y010190D01*
X013926Y010190D01*
X013699Y010096D01*
X013699Y010096D01*
X013459Y009856D01*
X013330Y009544D01*
X013330Y009206D01*
X013459Y008894D01*
X013699Y008654D01*
X014011Y008525D01*
X014349Y008525D01*
X014661Y008654D01*
X014661Y008654D01*
X014901Y008894D01*
X014995Y009121D01*
X014995Y001629D01*
X014901Y001856D01*
X014661Y002096D01*
X014349Y002225D01*
X014011Y002225D01*
X013699Y002096D01*
X013699Y002096D01*
X013459Y001856D01*
X013330Y001544D01*
X013330Y001206D01*
X013459Y000894D01*
X013699Y000654D01*
X013926Y000560D01*
X008954Y000560D01*
X008966Y000572D01*
X009033Y000639D01*
X009070Y000727D01*
X009070Y002520D01*
X009078Y002524D01*
X009201Y002647D01*
X009224Y002702D01*
X009247Y002647D01*
X009370Y002524D01*
X009531Y002457D01*
X009705Y002457D01*
X009866Y002524D01*
X009989Y002647D01*
X010011Y002702D01*
X010034Y002647D01*
X010157Y002524D01*
X010318Y002457D01*
X010492Y002457D01*
X010653Y002524D01*
X010776Y002647D01*
X010799Y002702D01*
X010822Y002647D01*
X010945Y002524D01*
X011106Y002457D01*
X011280Y002457D01*
X011440Y002524D01*
X011563Y002647D01*
X011586Y002702D01*
X011609Y002647D01*
X011732Y002524D01*
X011893Y002457D01*
X012067Y002457D01*
X012228Y002524D01*
X012351Y002647D01*
X012374Y002702D01*
X012397Y002647D01*
X012520Y002524D01*
X012680Y002457D01*
X012854Y002457D01*
X013015Y002524D01*
X013138Y002647D01*
X013205Y002808D01*
X013205Y002982D01*
X013138Y003142D01*
X013015Y003266D01*
X012854Y003332D01*
X012680Y003332D01*
X012520Y003266D01*
X012397Y003142D01*
X012374Y003087D01*
X012351Y003142D01*
X012228Y003266D01*
X012067Y003332D01*
X011893Y003332D01*
X011732Y003266D01*
X011609Y003142D01*
X011586Y003087D01*
X011563Y003142D01*
X011440Y003266D01*
X011280Y003332D01*
X011106Y003332D01*
X010945Y003266D01*
X010822Y003142D01*
X010799Y003087D01*
X010776Y003142D01*
X010653Y003266D01*
X010492Y003332D01*
X010318Y003332D01*
X010157Y003266D01*
X010034Y003142D01*
X010011Y003087D01*
X009989Y003142D01*
X009866Y003266D01*
X009705Y003332D01*
X009531Y003332D01*
X009370Y003266D01*
X009247Y003142D01*
X009224Y003087D01*
X009201Y003142D01*
X009078Y003266D01*
X008917Y003332D01*
X008743Y003332D01*
X008583Y003266D01*
X008460Y003142D01*
X008437Y003087D01*
X008414Y003142D01*
X008291Y003266D01*
X008130Y003332D01*
X007956Y003332D01*
X007795Y003266D01*
X007672Y003142D01*
X007649Y003087D01*
X007626Y003142D01*
X007503Y003266D01*
X007343Y003332D01*
X007169Y003332D01*
X007008Y003266D01*
X006885Y003142D01*
X006862Y003087D01*
X006839Y003142D01*
X006770Y003212D01*
X006770Y005773D01*
X006733Y005861D01*
X006666Y005928D01*
X006516Y006078D01*
X006428Y006115D01*
X001154Y006115D01*
X001129Y006175D01*
X000980Y006324D01*
X000858Y006375D01*
X000980Y006426D01*
X001129Y006575D01*
X001210Y006770D01*
X001210Y006980D01*
X001129Y007175D01*
X000980Y007324D01*
X000858Y007375D01*
X000980Y007426D01*
X001129Y007575D01*
X001210Y007770D01*
X001210Y007980D01*
X001129Y008175D01*
X000980Y008324D01*
X000858Y008375D01*
X000980Y008426D01*
X001129Y008575D01*
X001210Y008770D01*
X001210Y008980D01*
X001129Y009175D01*
X000980Y009324D01*
X000886Y009364D01*
X000891Y009365D01*
X000968Y009405D01*
X001038Y009455D01*
X001100Y009517D01*
X001150Y009587D01*
X001190Y009664D01*
X001216Y009746D01*
X001230Y009832D01*
X001230Y009855D01*
X000700Y009855D01*
X000700Y009895D01*
X001230Y009895D01*
X001230Y009918D01*
X001216Y010004D01*
X001190Y010086D01*
X001150Y010163D01*
X001131Y010190D01*
X002426Y010190D01*
X002199Y010096D01*
X002199Y010096D01*
X001959Y009856D01*
X001906Y009727D02*
X001210Y009727D01*
X001137Y009568D02*
X001840Y009568D01*
X001830Y009410D02*
X000975Y009410D01*
X001054Y009251D02*
X001830Y009251D01*
X001877Y009093D02*
X001164Y009093D01*
X001210Y008934D02*
X001943Y008934D01*
X001959Y008894D02*
X001959Y008894D01*
X002077Y008776D02*
X001210Y008776D01*
X001147Y008617D02*
X002289Y008617D01*
X002199Y008654D02*
X002199Y008654D01*
X002849Y008525D02*
X002849Y008525D01*
X003071Y008617D02*
X006390Y008617D01*
X006390Y008776D02*
X003283Y008776D01*
X003401Y008894D02*
X003401Y008894D01*
X003417Y008934D02*
X006319Y008934D01*
X006325Y008921D02*
X006390Y008856D01*
X006390Y008327D01*
X006427Y008239D01*
X006477Y008189D01*
X006527Y008139D01*
X006491Y008103D01*
X006478Y008071D01*
X006466Y008095D01*
X006423Y008153D01*
X006373Y008204D01*
X006314Y008247D01*
X006250Y008279D01*
X006182Y008302D01*
X006110Y008313D01*
X006074Y008313D01*
X006038Y008313D01*
X005967Y008302D01*
X005899Y008279D01*
X005835Y008247D01*
X005776Y008204D01*
X005726Y008153D01*
X005683Y008095D01*
X005671Y008071D01*
X005658Y008103D01*
X005535Y008226D01*
X005374Y008293D01*
X005200Y008293D01*
X005039Y008226D01*
X004916Y008103D01*
X004850Y007942D01*
X004850Y007768D01*
X004916Y007608D01*
X005039Y007484D01*
X005200Y007418D01*
X005374Y007418D01*
X005535Y007484D01*
X005658Y007608D01*
X005671Y007639D01*
X005683Y007616D01*
X005726Y007557D01*
X005776Y007506D01*
X005835Y007464D01*
X005899Y007431D01*
X005967Y007409D01*
X006038Y007398D01*
X006074Y007398D01*
X006074Y007855D01*
X005725Y007855D01*
X005725Y007855D01*
X006074Y007855D01*
X006074Y007855D01*
X006074Y007855D01*
X006074Y007398D01*
X006110Y007398D01*
X006182Y007409D01*
X006250Y007431D01*
X006314Y007464D01*
X006373Y007506D01*
X006423Y007557D01*
X006466Y007616D01*
X006478Y007639D01*
X006491Y007608D01*
X006614Y007484D01*
X006775Y007418D01*
X006949Y007418D01*
X007110Y007484D01*
X007233Y007608D01*
X007256Y007663D01*
X007278Y007608D01*
X007401Y007484D01*
X007562Y007418D01*
X007736Y007418D01*
X007897Y007484D01*
X008020Y007608D01*
X008033Y007639D01*
X008045Y007616D01*
X008088Y007557D01*
X008139Y007506D01*
X008197Y007464D01*
X008261Y007431D01*
X008330Y007409D01*
X008401Y007398D01*
X008437Y007398D01*
X008473Y007398D01*
X008544Y007409D01*
X008612Y007431D01*
X008676Y007464D01*
X008735Y007506D01*
X008786Y007557D01*
X008828Y007616D01*
X008840Y007639D01*
X008853Y007608D01*
X008976Y007484D01*
X009137Y007418D01*
X009311Y007418D01*
X009472Y007484D01*
X009595Y007608D01*
X009618Y007663D01*
X009641Y007608D01*
X009764Y007484D01*
X009924Y007418D01*
X010099Y007418D01*
X010259Y007484D01*
X010382Y007608D01*
X010405Y007663D01*
X010428Y007608D01*
X010551Y007484D01*
X010712Y007418D01*
X010886Y007418D01*
X011047Y007484D01*
X011170Y007608D01*
X011193Y007663D01*
X011215Y007608D01*
X011338Y007484D01*
X011499Y007418D01*
X011673Y007418D01*
X011834Y007484D01*
X011957Y007608D01*
X011980Y007663D01*
X012003Y007608D01*
X012126Y007484D01*
X012287Y007418D01*
X012461Y007418D01*
X012622Y007484D01*
X012745Y007608D01*
X012811Y007768D01*
X012811Y007942D01*
X012745Y008103D01*
X012622Y008226D01*
X012461Y008293D01*
X012287Y008293D01*
X012126Y008226D01*
X012003Y008103D01*
X011980Y008048D01*
X011957Y008103D01*
X011834Y008226D01*
X011673Y008293D01*
X011499Y008293D01*
X011338Y008226D01*
X011215Y008103D01*
X011193Y008048D01*
X011170Y008103D01*
X011047Y008226D01*
X010886Y008293D01*
X010712Y008293D01*
X010551Y008226D01*
X010428Y008103D01*
X010405Y008048D01*
X010382Y008103D01*
X010259Y008226D01*
X010099Y008293D01*
X009924Y008293D01*
X009764Y008226D01*
X009641Y008103D01*
X009618Y008048D01*
X009595Y008103D01*
X009570Y008128D01*
X009570Y008323D01*
X009533Y008411D01*
X009466Y008478D01*
X009416Y008528D01*
X009328Y008565D01*
X006870Y008565D01*
X006870Y008856D01*
X006935Y008921D01*
X006990Y009053D01*
X006990Y009197D01*
X006935Y009329D01*
X006834Y009430D01*
X006702Y009485D01*
X006558Y009485D01*
X006426Y009430D01*
X006325Y009329D01*
X006270Y009197D01*
X006270Y009053D01*
X006325Y008921D01*
X006270Y009093D02*
X003483Y009093D01*
X003530Y009251D02*
X006293Y009251D01*
X006405Y009410D02*
X003530Y009410D01*
X003520Y009568D02*
X013340Y009568D01*
X013406Y009727D02*
X003454Y009727D01*
X003372Y009885D02*
X013488Y009885D01*
X013459Y009856D02*
X013459Y009856D01*
X013646Y010044D02*
X003214Y010044D01*
X003161Y010096D02*
X003161Y010096D01*
X002146Y010044D02*
X001204Y010044D01*
X001013Y008459D02*
X006390Y008459D01*
X006401Y008300D02*
X006186Y008300D01*
X006074Y008300D02*
X006074Y008300D01*
X006074Y008313D02*
X006074Y007855D01*
X006074Y008313D01*
X005963Y008300D02*
X001005Y008300D01*
X001143Y008142D02*
X004955Y008142D01*
X004866Y007983D02*
X001209Y007983D01*
X001210Y007825D02*
X004850Y007825D01*
X004892Y007666D02*
X001167Y007666D01*
X001062Y007508D02*
X005016Y007508D01*
X005558Y007508D02*
X005775Y007508D01*
X006074Y007508D02*
X006074Y007508D01*
X006374Y007508D02*
X006591Y007508D01*
X006074Y007666D02*
X006074Y007666D01*
X006074Y007825D02*
X006074Y007825D01*
X006075Y007855D02*
X006424Y007855D01*
X006424Y007855D01*
X006075Y007855D01*
X006075Y007855D01*
X006074Y007855D02*
X006074Y007855D01*
X006074Y007983D02*
X006074Y007983D01*
X006074Y008142D02*
X006074Y008142D01*
X006432Y008142D02*
X006524Y008142D01*
X006477Y008189D02*
X006477Y008189D01*
X006630Y008375D02*
X006680Y008325D01*
X007630Y008325D01*
X007649Y008306D01*
X007649Y007855D01*
X008087Y007855D02*
X008437Y007855D01*
X008787Y007855D01*
X008787Y007855D01*
X008437Y007855D01*
X008437Y007855D01*
X008437Y007398D01*
X008437Y007855D01*
X008437Y007855D01*
X008087Y007855D01*
X008087Y007855D01*
X008437Y007855D02*
X008437Y007855D01*
X008437Y008085D01*
X008437Y008085D01*
X008437Y007855D01*
X008437Y007855D01*
X008437Y007825D02*
X008437Y007825D01*
X008437Y007666D02*
X008437Y007666D01*
X008437Y007508D02*
X008437Y007508D01*
X008736Y007508D02*
X008953Y007508D01*
X009224Y007855D02*
X009330Y007861D01*
X009330Y008275D01*
X009280Y008325D01*
X007630Y008325D01*
X006870Y008617D02*
X010474Y008617D01*
X010479Y008605D02*
X010635Y008449D01*
X010838Y008365D01*
X011059Y008365D01*
X011262Y008449D01*
X011418Y008605D01*
X011502Y008808D01*
X011502Y009028D01*
X011418Y009232D01*
X011262Y009388D01*
X011059Y009472D01*
X010838Y009472D01*
X010635Y009388D01*
X010479Y009232D01*
X010395Y009028D01*
X010395Y008808D01*
X010479Y008605D01*
X010408Y008776D02*
X006870Y008776D01*
X006941Y008934D02*
X010395Y008934D01*
X010421Y009093D02*
X006990Y009093D01*
X006967Y009251D02*
X010498Y009251D01*
X010687Y009410D02*
X006855Y009410D01*
X006630Y009125D02*
X006630Y008375D01*
X005717Y008142D02*
X005620Y008142D01*
X007133Y007508D02*
X007378Y007508D01*
X007920Y007508D02*
X008138Y007508D01*
X008437Y007983D02*
X008437Y007983D01*
X009486Y008459D02*
X010625Y008459D01*
X010466Y008142D02*
X010344Y008142D01*
X009679Y008142D02*
X009570Y008142D01*
X009570Y008300D02*
X014995Y008300D01*
X014995Y008459D02*
X011272Y008459D01*
X011423Y008617D02*
X013789Y008617D01*
X013699Y008654D02*
X013699Y008654D01*
X013577Y008776D02*
X011489Y008776D01*
X011502Y008934D02*
X013443Y008934D01*
X013459Y008894D02*
X013459Y008894D01*
X013377Y009093D02*
X011476Y009093D01*
X011399Y009251D02*
X013330Y009251D01*
X013330Y009410D02*
X011210Y009410D01*
X011254Y008142D02*
X011131Y008142D01*
X011919Y008142D02*
X012041Y008142D01*
X012706Y008142D02*
X014995Y008142D01*
X014995Y007983D02*
X012794Y007983D01*
X012811Y007825D02*
X014995Y007825D01*
X014995Y007666D02*
X012769Y007666D01*
X012645Y007508D02*
X014995Y007508D01*
X014995Y007349D02*
X000921Y007349D01*
X001114Y007191D02*
X014995Y007191D01*
X014995Y007032D02*
X001189Y007032D01*
X001210Y006874D02*
X014995Y006874D01*
X014995Y006715D02*
X011395Y006715D01*
X011493Y006689D02*
X011134Y006785D01*
X010763Y006785D01*
X010404Y006689D01*
X010083Y006503D01*
X009820Y006241D01*
X009635Y005919D01*
X009539Y005561D01*
X009539Y005189D01*
X009635Y004831D01*
X009820Y004509D01*
X010083Y004247D01*
X010404Y004061D01*
X010763Y003965D01*
X011134Y003965D01*
X011493Y004061D01*
X011814Y004247D01*
X012077Y004509D01*
X012262Y004831D01*
X012359Y005189D01*
X012359Y005561D01*
X012262Y005919D01*
X012077Y006241D01*
X011814Y006503D01*
X011493Y006689D01*
X011722Y006557D02*
X014995Y006557D01*
X014995Y006398D02*
X011920Y006398D01*
X012078Y006240D02*
X014995Y006240D01*
X014995Y006081D02*
X012169Y006081D01*
X012261Y005923D02*
X014995Y005923D01*
X014995Y005764D02*
X012304Y005764D01*
X012346Y005606D02*
X014995Y005606D01*
X014995Y005447D02*
X012359Y005447D01*
X012359Y005289D02*
X014995Y005289D01*
X014995Y005130D02*
X012343Y005130D01*
X012300Y004972D02*
X014995Y004972D01*
X014995Y004813D02*
X012252Y004813D01*
X012161Y004655D02*
X014995Y004655D01*
X014995Y004496D02*
X012064Y004496D01*
X011905Y004338D02*
X014995Y004338D01*
X014995Y004179D02*
X011697Y004179D01*
X011341Y004021D02*
X014995Y004021D01*
X014995Y003862D02*
X006770Y003862D01*
X006770Y003704D02*
X014995Y003704D01*
X014995Y003545D02*
X006770Y003545D01*
X006770Y003387D02*
X014995Y003387D01*
X014995Y003228D02*
X013053Y003228D01*
X013169Y003070D02*
X014995Y003070D01*
X014995Y002911D02*
X013205Y002911D01*
X013182Y002753D02*
X014995Y002753D01*
X014995Y002594D02*
X013085Y002594D01*
X012449Y002594D02*
X012298Y002594D01*
X011662Y002594D02*
X011511Y002594D01*
X011262Y002301D02*
X011059Y002385D01*
X010838Y002385D01*
X010635Y002301D01*
X010479Y002145D01*
X010395Y001942D01*
X010395Y001722D01*
X010479Y001518D01*
X010635Y001362D01*
X010838Y001278D01*
X011059Y001278D01*
X011262Y001362D01*
X011418Y001518D01*
X011502Y001722D01*
X011502Y001942D01*
X011418Y002145D01*
X011262Y002301D01*
X011286Y002277D02*
X014995Y002277D01*
X014995Y002436D02*
X009070Y002436D01*
X009070Y002277D02*
X010611Y002277D01*
X010468Y002119D02*
X009070Y002119D01*
X009070Y001960D02*
X010402Y001960D01*
X010395Y001802D02*
X009070Y001802D01*
X009070Y001643D02*
X010427Y001643D01*
X010513Y001485D02*
X009070Y001485D01*
X009070Y001326D02*
X010722Y001326D01*
X011175Y001326D02*
X013330Y001326D01*
X013330Y001485D02*
X011384Y001485D01*
X011470Y001643D02*
X013371Y001643D01*
X013437Y001802D02*
X011502Y001802D01*
X011495Y001960D02*
X013563Y001960D01*
X013459Y001856D02*
X013459Y001856D01*
X013754Y002119D02*
X011429Y002119D01*
X010875Y002594D02*
X010723Y002594D01*
X010087Y002594D02*
X009936Y002594D01*
X009300Y002594D02*
X009148Y002594D01*
X008830Y002794D02*
X008830Y002895D01*
X008830Y002794D02*
X008830Y000775D01*
X008730Y000675D01*
X004180Y000675D01*
X004130Y000725D01*
X004130Y002725D01*
X004080Y002775D01*
X001380Y002775D01*
X001280Y002675D01*
X001280Y001025D01*
X001130Y000875D01*
X000680Y000875D01*
X005681Y001226D02*
X005730Y001175D01*
X005681Y001226D02*
X005681Y002895D01*
X005681Y005324D01*
X005730Y005375D01*
X006380Y005875D02*
X006530Y005725D01*
X006530Y002933D01*
X006468Y002895D01*
X006770Y003228D02*
X006970Y003228D01*
X007541Y003228D02*
X007758Y003228D01*
X008328Y003228D02*
X008545Y003228D01*
X009116Y003228D02*
X009332Y003228D01*
X009903Y003228D02*
X010120Y003228D01*
X010691Y003228D02*
X010907Y003228D01*
X011478Y003228D02*
X011695Y003228D01*
X012265Y003228D02*
X012482Y003228D01*
X010556Y004021D02*
X006770Y004021D01*
X006770Y004179D02*
X010200Y004179D01*
X009992Y004338D02*
X006770Y004338D01*
X006770Y004496D02*
X009833Y004496D01*
X009736Y004655D02*
X006770Y004655D01*
X006770Y004813D02*
X009645Y004813D01*
X009597Y004972D02*
X006770Y004972D01*
X006770Y005130D02*
X009554Y005130D01*
X009539Y005289D02*
X006770Y005289D01*
X006770Y005447D02*
X009539Y005447D01*
X009551Y005606D02*
X006770Y005606D01*
X006770Y005764D02*
X009593Y005764D01*
X009636Y005923D02*
X006672Y005923D01*
X006510Y006081D02*
X009728Y006081D01*
X009820Y006240D02*
X001065Y006240D01*
X000913Y006398D02*
X009977Y006398D01*
X010175Y006557D02*
X001111Y006557D01*
X001187Y006715D02*
X010502Y006715D01*
X010528Y007508D02*
X010282Y007508D01*
X009741Y007508D02*
X009495Y007508D01*
X011070Y007508D02*
X011315Y007508D01*
X011857Y007508D02*
X012103Y007508D01*
X014571Y008617D02*
X014995Y008617D01*
X014995Y008776D02*
X014783Y008776D01*
X014901Y008894D02*
X014901Y008894D01*
X014917Y008934D02*
X014995Y008934D01*
X014983Y009093D02*
X014995Y009093D01*
X006380Y005875D02*
X000680Y005875D01*
X009070Y001168D02*
X013346Y001168D01*
X013412Y001009D02*
X009070Y001009D01*
X009070Y000851D02*
X013502Y000851D01*
X013459Y000894D02*
X013459Y000894D01*
X013661Y000692D02*
X009055Y000692D01*
X013699Y000654D02*
X013699Y000654D01*
X014989Y001643D02*
X014995Y001643D01*
X014995Y001802D02*
X014923Y001802D01*
X014995Y001960D02*
X014797Y001960D01*
X014661Y002096D02*
X014661Y002096D01*
X014661Y002096D01*
X014606Y002119D02*
X014995Y002119D01*
D15*
X005730Y001175D03*
X005730Y005375D03*
X006630Y009125D03*
X006880Y009875D03*
X010880Y009625D03*
M02*
