G75*
G70*
%OFA0B0*%
%FSLAX24Y24*%
%IPPOS*%
%LPD*%
%AMOC8*
5,1,8,0,0,1.08239X$1,22.5*
%
%ADD10C,0.0050*%
%ADD11R,0.0394X0.0433*%
%ADD12R,0.0433X0.0394*%
%ADD13C,0.0515*%
%ADD14R,0.0515X0.0515*%
%ADD15C,0.0000*%
%ADD16C,0.0740*%
%ADD17C,0.0100*%
%ADD18C,0.0360*%
D10*
X000150Y000225D02*
X015150Y000225D01*
X015150Y010225D01*
X000150Y010225D01*
X000150Y000225D01*
D11*
X005000Y003840D03*
X005950Y003840D03*
X005950Y004510D03*
X005000Y004510D03*
X005000Y005290D03*
X005000Y005960D03*
X006000Y005960D03*
X006000Y005290D03*
X006950Y004510D03*
X007800Y004510D03*
X007800Y003840D03*
X006950Y003840D03*
X007450Y005290D03*
X008000Y005290D03*
X009050Y005940D03*
X008000Y005960D03*
X007450Y005960D03*
X009050Y006610D03*
D12*
X007685Y006675D03*
X007015Y006675D03*
X005835Y006675D03*
X005165Y006675D03*
D13*
X005557Y007705D03*
X006344Y007705D03*
X007132Y007705D03*
X007919Y007705D03*
X008707Y007705D03*
X009494Y007705D03*
X010281Y007705D03*
X011069Y007705D03*
X011856Y007705D03*
X012644Y007705D03*
X013037Y002745D03*
X012250Y002745D03*
X011463Y002745D03*
X010675Y002745D03*
X009888Y002745D03*
X009100Y002745D03*
X008313Y002745D03*
X007526Y002745D03*
X006738Y002745D03*
D14*
X005951Y002745D03*
D15*
X003500Y001225D02*
X003502Y001275D01*
X003508Y001325D01*
X003518Y001375D01*
X003531Y001423D01*
X003548Y001471D01*
X003569Y001517D01*
X003593Y001561D01*
X003621Y001603D01*
X003652Y001643D01*
X003686Y001680D01*
X003723Y001715D01*
X003762Y001746D01*
X003803Y001775D01*
X003847Y001800D01*
X003893Y001822D01*
X003940Y001840D01*
X003988Y001854D01*
X004037Y001865D01*
X004087Y001872D01*
X004137Y001875D01*
X004188Y001874D01*
X004238Y001869D01*
X004288Y001860D01*
X004336Y001848D01*
X004384Y001831D01*
X004430Y001811D01*
X004475Y001788D01*
X004518Y001761D01*
X004558Y001731D01*
X004596Y001698D01*
X004631Y001662D01*
X004664Y001623D01*
X004693Y001582D01*
X004719Y001539D01*
X004742Y001494D01*
X004761Y001447D01*
X004776Y001399D01*
X004788Y001350D01*
X004796Y001300D01*
X004800Y001250D01*
X004800Y001200D01*
X004796Y001150D01*
X004788Y001100D01*
X004776Y001051D01*
X004761Y001003D01*
X004742Y000956D01*
X004719Y000911D01*
X004693Y000868D01*
X004664Y000827D01*
X004631Y000788D01*
X004596Y000752D01*
X004558Y000719D01*
X004518Y000689D01*
X004475Y000662D01*
X004430Y000639D01*
X004384Y000619D01*
X004336Y000602D01*
X004288Y000590D01*
X004238Y000581D01*
X004188Y000576D01*
X004137Y000575D01*
X004087Y000578D01*
X004037Y000585D01*
X003988Y000596D01*
X003940Y000610D01*
X003893Y000628D01*
X003847Y000650D01*
X003803Y000675D01*
X003762Y000704D01*
X003723Y000735D01*
X003686Y000770D01*
X003652Y000807D01*
X003621Y000847D01*
X003593Y000889D01*
X003569Y000933D01*
X003548Y000979D01*
X003531Y001027D01*
X003518Y001075D01*
X003508Y001125D01*
X003502Y001175D01*
X003500Y001225D01*
X010825Y001682D02*
X010827Y001721D01*
X010833Y001760D01*
X010843Y001798D01*
X010856Y001835D01*
X010873Y001870D01*
X010893Y001904D01*
X010917Y001935D01*
X010944Y001964D01*
X010973Y001990D01*
X011005Y002013D01*
X011039Y002033D01*
X011075Y002049D01*
X011112Y002061D01*
X011151Y002070D01*
X011190Y002075D01*
X011229Y002076D01*
X011268Y002073D01*
X011307Y002066D01*
X011344Y002055D01*
X011381Y002041D01*
X011416Y002023D01*
X011449Y002002D01*
X011480Y001977D01*
X011508Y001950D01*
X011533Y001920D01*
X011555Y001887D01*
X011574Y001853D01*
X011589Y001817D01*
X011601Y001779D01*
X011609Y001741D01*
X011613Y001702D01*
X011613Y001662D01*
X011609Y001623D01*
X011601Y001585D01*
X011589Y001547D01*
X011574Y001511D01*
X011555Y001477D01*
X011533Y001444D01*
X011508Y001414D01*
X011480Y001387D01*
X011449Y001362D01*
X011416Y001341D01*
X011381Y001323D01*
X011344Y001309D01*
X011307Y001298D01*
X011268Y001291D01*
X011229Y001288D01*
X011190Y001289D01*
X011151Y001294D01*
X011112Y001303D01*
X011075Y001315D01*
X011039Y001331D01*
X011005Y001351D01*
X010973Y001374D01*
X010944Y001400D01*
X010917Y001429D01*
X010893Y001460D01*
X010873Y001494D01*
X010856Y001529D01*
X010843Y001566D01*
X010833Y001604D01*
X010827Y001643D01*
X010825Y001682D01*
X013500Y001225D02*
X013502Y001275D01*
X013508Y001325D01*
X013518Y001375D01*
X013531Y001423D01*
X013548Y001471D01*
X013569Y001517D01*
X013593Y001561D01*
X013621Y001603D01*
X013652Y001643D01*
X013686Y001680D01*
X013723Y001715D01*
X013762Y001746D01*
X013803Y001775D01*
X013847Y001800D01*
X013893Y001822D01*
X013940Y001840D01*
X013988Y001854D01*
X014037Y001865D01*
X014087Y001872D01*
X014137Y001875D01*
X014188Y001874D01*
X014238Y001869D01*
X014288Y001860D01*
X014336Y001848D01*
X014384Y001831D01*
X014430Y001811D01*
X014475Y001788D01*
X014518Y001761D01*
X014558Y001731D01*
X014596Y001698D01*
X014631Y001662D01*
X014664Y001623D01*
X014693Y001582D01*
X014719Y001539D01*
X014742Y001494D01*
X014761Y001447D01*
X014776Y001399D01*
X014788Y001350D01*
X014796Y001300D01*
X014800Y001250D01*
X014800Y001200D01*
X014796Y001150D01*
X014788Y001100D01*
X014776Y001051D01*
X014761Y001003D01*
X014742Y000956D01*
X014719Y000911D01*
X014693Y000868D01*
X014664Y000827D01*
X014631Y000788D01*
X014596Y000752D01*
X014558Y000719D01*
X014518Y000689D01*
X014475Y000662D01*
X014430Y000639D01*
X014384Y000619D01*
X014336Y000602D01*
X014288Y000590D01*
X014238Y000581D01*
X014188Y000576D01*
X014137Y000575D01*
X014087Y000578D01*
X014037Y000585D01*
X013988Y000596D01*
X013940Y000610D01*
X013893Y000628D01*
X013847Y000650D01*
X013803Y000675D01*
X013762Y000704D01*
X013723Y000735D01*
X013686Y000770D01*
X013652Y000807D01*
X013621Y000847D01*
X013593Y000889D01*
X013569Y000933D01*
X013548Y000979D01*
X013531Y001027D01*
X013518Y001075D01*
X013508Y001125D01*
X013502Y001175D01*
X013500Y001225D01*
X009969Y005225D02*
X009971Y005295D01*
X009977Y005365D01*
X009987Y005434D01*
X010000Y005503D01*
X010018Y005571D01*
X010039Y005638D01*
X010064Y005703D01*
X010093Y005767D01*
X010125Y005830D01*
X010161Y005890D01*
X010200Y005948D01*
X010242Y006004D01*
X010287Y006058D01*
X010335Y006109D01*
X010386Y006157D01*
X010440Y006202D01*
X010496Y006244D01*
X010554Y006283D01*
X010614Y006319D01*
X010677Y006351D01*
X010741Y006380D01*
X010806Y006405D01*
X010873Y006426D01*
X010941Y006444D01*
X011010Y006457D01*
X011079Y006467D01*
X011149Y006473D01*
X011219Y006475D01*
X011289Y006473D01*
X011359Y006467D01*
X011428Y006457D01*
X011497Y006444D01*
X011565Y006426D01*
X011632Y006405D01*
X011697Y006380D01*
X011761Y006351D01*
X011824Y006319D01*
X011884Y006283D01*
X011942Y006244D01*
X011998Y006202D01*
X012052Y006157D01*
X012103Y006109D01*
X012151Y006058D01*
X012196Y006004D01*
X012238Y005948D01*
X012277Y005890D01*
X012313Y005830D01*
X012345Y005767D01*
X012374Y005703D01*
X012399Y005638D01*
X012420Y005571D01*
X012438Y005503D01*
X012451Y005434D01*
X012461Y005365D01*
X012467Y005295D01*
X012469Y005225D01*
X012467Y005155D01*
X012461Y005085D01*
X012451Y005016D01*
X012438Y004947D01*
X012420Y004879D01*
X012399Y004812D01*
X012374Y004747D01*
X012345Y004683D01*
X012313Y004620D01*
X012277Y004560D01*
X012238Y004502D01*
X012196Y004446D01*
X012151Y004392D01*
X012103Y004341D01*
X012052Y004293D01*
X011998Y004248D01*
X011942Y004206D01*
X011884Y004167D01*
X011824Y004131D01*
X011761Y004099D01*
X011697Y004070D01*
X011632Y004045D01*
X011565Y004024D01*
X011497Y004006D01*
X011428Y003993D01*
X011359Y003983D01*
X011289Y003977D01*
X011219Y003975D01*
X011149Y003977D01*
X011079Y003983D01*
X011010Y003993D01*
X010941Y004006D01*
X010873Y004024D01*
X010806Y004045D01*
X010741Y004070D01*
X010677Y004099D01*
X010614Y004131D01*
X010554Y004167D01*
X010496Y004206D01*
X010440Y004248D01*
X010386Y004293D01*
X010335Y004341D01*
X010287Y004392D01*
X010242Y004446D01*
X010200Y004502D01*
X010161Y004560D01*
X010125Y004620D01*
X010093Y004683D01*
X010064Y004747D01*
X010039Y004812D01*
X010018Y004879D01*
X010000Y004947D01*
X009987Y005016D01*
X009977Y005085D01*
X009971Y005155D01*
X009969Y005225D01*
X010825Y008768D02*
X010827Y008807D01*
X010833Y008846D01*
X010843Y008884D01*
X010856Y008921D01*
X010873Y008956D01*
X010893Y008990D01*
X010917Y009021D01*
X010944Y009050D01*
X010973Y009076D01*
X011005Y009099D01*
X011039Y009119D01*
X011075Y009135D01*
X011112Y009147D01*
X011151Y009156D01*
X011190Y009161D01*
X011229Y009162D01*
X011268Y009159D01*
X011307Y009152D01*
X011344Y009141D01*
X011381Y009127D01*
X011416Y009109D01*
X011449Y009088D01*
X011480Y009063D01*
X011508Y009036D01*
X011533Y009006D01*
X011555Y008973D01*
X011574Y008939D01*
X011589Y008903D01*
X011601Y008865D01*
X011609Y008827D01*
X011613Y008788D01*
X011613Y008748D01*
X011609Y008709D01*
X011601Y008671D01*
X011589Y008633D01*
X011574Y008597D01*
X011555Y008563D01*
X011533Y008530D01*
X011508Y008500D01*
X011480Y008473D01*
X011449Y008448D01*
X011416Y008427D01*
X011381Y008409D01*
X011344Y008395D01*
X011307Y008384D01*
X011268Y008377D01*
X011229Y008374D01*
X011190Y008375D01*
X011151Y008380D01*
X011112Y008389D01*
X011075Y008401D01*
X011039Y008417D01*
X011005Y008437D01*
X010973Y008460D01*
X010944Y008486D01*
X010917Y008515D01*
X010893Y008546D01*
X010873Y008580D01*
X010856Y008615D01*
X010843Y008652D01*
X010833Y008690D01*
X010827Y008729D01*
X010825Y008768D01*
X013500Y009225D02*
X013502Y009275D01*
X013508Y009325D01*
X013518Y009375D01*
X013531Y009423D01*
X013548Y009471D01*
X013569Y009517D01*
X013593Y009561D01*
X013621Y009603D01*
X013652Y009643D01*
X013686Y009680D01*
X013723Y009715D01*
X013762Y009746D01*
X013803Y009775D01*
X013847Y009800D01*
X013893Y009822D01*
X013940Y009840D01*
X013988Y009854D01*
X014037Y009865D01*
X014087Y009872D01*
X014137Y009875D01*
X014188Y009874D01*
X014238Y009869D01*
X014288Y009860D01*
X014336Y009848D01*
X014384Y009831D01*
X014430Y009811D01*
X014475Y009788D01*
X014518Y009761D01*
X014558Y009731D01*
X014596Y009698D01*
X014631Y009662D01*
X014664Y009623D01*
X014693Y009582D01*
X014719Y009539D01*
X014742Y009494D01*
X014761Y009447D01*
X014776Y009399D01*
X014788Y009350D01*
X014796Y009300D01*
X014800Y009250D01*
X014800Y009200D01*
X014796Y009150D01*
X014788Y009100D01*
X014776Y009051D01*
X014761Y009003D01*
X014742Y008956D01*
X014719Y008911D01*
X014693Y008868D01*
X014664Y008827D01*
X014631Y008788D01*
X014596Y008752D01*
X014558Y008719D01*
X014518Y008689D01*
X014475Y008662D01*
X014430Y008639D01*
X014384Y008619D01*
X014336Y008602D01*
X014288Y008590D01*
X014238Y008581D01*
X014188Y008576D01*
X014137Y008575D01*
X014087Y008578D01*
X014037Y008585D01*
X013988Y008596D01*
X013940Y008610D01*
X013893Y008628D01*
X013847Y008650D01*
X013803Y008675D01*
X013762Y008704D01*
X013723Y008735D01*
X013686Y008770D01*
X013652Y008807D01*
X013621Y008847D01*
X013593Y008889D01*
X013569Y008933D01*
X013548Y008979D01*
X013531Y009027D01*
X013518Y009075D01*
X013508Y009125D01*
X013502Y009175D01*
X013500Y009225D01*
X003500Y009225D02*
X003502Y009275D01*
X003508Y009325D01*
X003518Y009375D01*
X003531Y009423D01*
X003548Y009471D01*
X003569Y009517D01*
X003593Y009561D01*
X003621Y009603D01*
X003652Y009643D01*
X003686Y009680D01*
X003723Y009715D01*
X003762Y009746D01*
X003803Y009775D01*
X003847Y009800D01*
X003893Y009822D01*
X003940Y009840D01*
X003988Y009854D01*
X004037Y009865D01*
X004087Y009872D01*
X004137Y009875D01*
X004188Y009874D01*
X004238Y009869D01*
X004288Y009860D01*
X004336Y009848D01*
X004384Y009831D01*
X004430Y009811D01*
X004475Y009788D01*
X004518Y009761D01*
X004558Y009731D01*
X004596Y009698D01*
X004631Y009662D01*
X004664Y009623D01*
X004693Y009582D01*
X004719Y009539D01*
X004742Y009494D01*
X004761Y009447D01*
X004776Y009399D01*
X004788Y009350D01*
X004796Y009300D01*
X004800Y009250D01*
X004800Y009200D01*
X004796Y009150D01*
X004788Y009100D01*
X004776Y009051D01*
X004761Y009003D01*
X004742Y008956D01*
X004719Y008911D01*
X004693Y008868D01*
X004664Y008827D01*
X004631Y008788D01*
X004596Y008752D01*
X004558Y008719D01*
X004518Y008689D01*
X004475Y008662D01*
X004430Y008639D01*
X004384Y008619D01*
X004336Y008602D01*
X004288Y008590D01*
X004238Y008581D01*
X004188Y008576D01*
X004137Y008575D01*
X004087Y008578D01*
X004037Y008585D01*
X003988Y008596D01*
X003940Y008610D01*
X003893Y008628D01*
X003847Y008650D01*
X003803Y008675D01*
X003762Y008704D01*
X003723Y008735D01*
X003686Y008770D01*
X003652Y008807D01*
X003621Y008847D01*
X003593Y008889D01*
X003569Y008933D01*
X003548Y008979D01*
X003531Y009027D01*
X003518Y009075D01*
X003508Y009125D01*
X003502Y009175D01*
X003500Y009225D01*
D16*
X002400Y008725D03*
X002400Y007725D03*
X002400Y006725D03*
X002400Y005725D03*
X002400Y004725D03*
X002400Y003725D03*
X002400Y002725D03*
X002400Y001725D03*
X002400Y000725D03*
X002400Y009725D03*
D17*
X002450Y009681D02*
X003451Y009681D01*
X003455Y009689D02*
X003330Y009388D01*
X003330Y009062D01*
X003455Y008761D01*
X003455Y008761D01*
X003686Y008530D01*
X003987Y008405D01*
X004187Y008405D01*
X004313Y008405D01*
X004614Y008530D01*
X004614Y008530D01*
X004845Y008761D01*
X004970Y009062D01*
X004970Y009388D01*
X004845Y009689D01*
X004845Y009689D01*
X004614Y009920D01*
X004313Y010045D01*
X003987Y010045D01*
X003686Y009920D01*
X003686Y009920D01*
X003455Y009689D01*
X003455Y009689D01*
X003411Y009583D02*
X002900Y009583D01*
X002907Y009603D02*
X002919Y009675D01*
X002450Y009675D01*
X002450Y009775D01*
X002919Y009775D01*
X002907Y009847D01*
X002882Y009925D01*
X002845Y009998D01*
X002807Y010050D01*
X014975Y010050D01*
X014975Y000400D01*
X002782Y000400D01*
X002824Y000442D01*
X002896Y000617D01*
X003025Y000745D01*
X003130Y000850D01*
X003130Y001700D01*
X003675Y002245D01*
X004625Y002245D01*
X005220Y001650D01*
X005325Y001545D01*
X008575Y001545D01*
X009175Y002145D01*
X009280Y002250D01*
X009280Y002400D01*
X009320Y002416D01*
X009429Y002525D01*
X009488Y002668D01*
X009488Y002822D01*
X009429Y002964D01*
X009320Y003073D01*
X009177Y003132D01*
X009023Y003132D01*
X008881Y003073D01*
X008772Y002964D01*
X008713Y002822D01*
X008713Y002668D01*
X008772Y002525D01*
X008881Y002416D01*
X008920Y002400D01*
X008920Y002400D01*
X008425Y001905D01*
X007035Y001905D01*
X007205Y002075D01*
X007310Y002180D01*
X007310Y002415D01*
X007449Y002357D01*
X007603Y002357D01*
X007745Y002416D01*
X007854Y002525D01*
X007913Y002668D01*
X007913Y002822D01*
X007854Y002964D01*
X007745Y003073D01*
X007680Y003100D01*
X007680Y003450D01*
X007723Y003494D01*
X008051Y003494D01*
X008127Y003570D01*
X008127Y004111D01*
X008063Y004175D01*
X008127Y004239D01*
X008127Y004461D01*
X008238Y004415D01*
X008362Y004415D01*
X008470Y004460D01*
X008470Y003750D01*
X008670Y003550D01*
X008775Y003445D01*
X009670Y003445D01*
X009670Y003074D01*
X009668Y003073D01*
X009559Y002964D01*
X009500Y002822D01*
X009500Y002668D01*
X009559Y002525D01*
X009668Y002416D01*
X009811Y002357D01*
X009965Y002357D01*
X010107Y002416D01*
X010216Y002525D01*
X010275Y002668D01*
X010275Y002822D01*
X010216Y002964D01*
X010107Y003073D01*
X010030Y003105D01*
X010030Y003600D01*
X009925Y003705D01*
X009825Y003805D01*
X008925Y003805D01*
X008830Y003900D01*
X008830Y005594D01*
X009301Y005594D01*
X009377Y005670D01*
X009377Y005760D01*
X009740Y005760D01*
X011125Y007145D01*
X011230Y007250D01*
X011230Y007353D01*
X011288Y007377D01*
X011397Y007486D01*
X011456Y007628D01*
X011456Y007782D01*
X011397Y007925D01*
X011288Y008034D01*
X011146Y008093D01*
X010992Y008093D01*
X010849Y008034D01*
X010740Y007925D01*
X010681Y007782D01*
X010681Y007628D01*
X010740Y007486D01*
X010848Y007378D01*
X009591Y006120D01*
X009377Y006120D01*
X009377Y006211D01*
X009313Y006275D01*
X009377Y006339D01*
X009377Y006880D01*
X009301Y006956D01*
X009230Y006956D01*
X009230Y007095D01*
X010225Y007095D01*
X010375Y007245D01*
X010480Y007350D01*
X010480Y007368D01*
X010501Y007377D01*
X010610Y007486D01*
X010669Y007628D01*
X010669Y007782D01*
X010610Y007925D01*
X010501Y008034D01*
X010359Y008093D01*
X010204Y008093D01*
X010062Y008034D01*
X009953Y007925D01*
X009894Y007782D01*
X009894Y007628D01*
X009953Y007486D01*
X009984Y007455D01*
X009792Y007455D01*
X009823Y007486D01*
X009882Y007628D01*
X009882Y007782D01*
X009823Y007925D01*
X009714Y008034D01*
X009571Y008093D01*
X009417Y008093D01*
X009275Y008034D01*
X009166Y007925D01*
X009107Y007783D01*
X009104Y007801D01*
X009084Y007862D01*
X009055Y007919D01*
X009018Y007971D01*
X008972Y008016D01*
X008920Y008054D01*
X008863Y008083D01*
X008802Y008103D01*
X008739Y008113D01*
X008735Y008113D01*
X008735Y007734D01*
X008678Y007734D01*
X008307Y007734D01*
X008307Y007677D01*
X008678Y007677D01*
X008678Y007734D01*
X008678Y008113D01*
X008675Y008113D01*
X008611Y008103D01*
X008550Y008083D01*
X008493Y008054D01*
X008441Y008016D01*
X008396Y007971D01*
X008358Y007919D01*
X008329Y007862D01*
X008309Y007801D01*
X008306Y007783D01*
X008248Y007925D01*
X008139Y008034D01*
X007996Y008093D01*
X007842Y008093D01*
X007700Y008034D01*
X007591Y007925D01*
X007532Y007782D01*
X007532Y007628D01*
X007591Y007486D01*
X007700Y007377D01*
X007842Y007318D01*
X007996Y007318D01*
X008139Y007377D01*
X008248Y007486D01*
X008306Y007627D01*
X008309Y007610D01*
X008329Y007549D01*
X008358Y007492D01*
X008396Y007440D01*
X008441Y007395D01*
X008493Y007357D01*
X008550Y007328D01*
X008611Y007308D01*
X008675Y007298D01*
X008678Y007298D01*
X008678Y007677D01*
X008735Y007677D01*
X008735Y007298D01*
X008739Y007298D01*
X008802Y007308D01*
X008863Y007328D01*
X008920Y007357D01*
X008972Y007395D01*
X009018Y007440D01*
X009055Y007492D01*
X009084Y007549D01*
X009104Y007610D01*
X009107Y007627D01*
X009166Y007486D01*
X009196Y007455D01*
X009075Y007455D01*
X008970Y007350D01*
X008870Y007250D01*
X008870Y006956D01*
X008799Y006956D01*
X008723Y006880D01*
X008723Y006339D01*
X008787Y006275D01*
X008723Y006211D01*
X008723Y005706D01*
X008327Y006103D01*
X008327Y006230D01*
X008251Y006306D01*
X007749Y006306D01*
X007725Y006282D01*
X007701Y006306D01*
X007199Y006306D01*
X007123Y006230D01*
X007123Y005689D01*
X007177Y005636D01*
X007161Y005627D01*
X007133Y005599D01*
X007113Y005565D01*
X007103Y005527D01*
X007103Y005339D01*
X007402Y005339D01*
X007402Y005242D01*
X007498Y005242D01*
X007498Y004924D01*
X007667Y004924D01*
X007705Y004934D01*
X007739Y004954D01*
X007749Y004944D01*
X008080Y004944D01*
X008037Y004901D01*
X008019Y004856D01*
X007549Y004856D01*
X007536Y004843D01*
X007402Y004978D01*
X007402Y005242D01*
X007103Y005242D01*
X007103Y005055D01*
X006327Y005055D01*
X006327Y005561D01*
X006263Y005625D01*
X006327Y005689D01*
X006327Y006161D01*
X006438Y006115D01*
X006562Y006115D01*
X006676Y006162D01*
X006763Y006249D01*
X006804Y006348D01*
X007286Y006348D01*
X007339Y006402D01*
X007348Y006386D01*
X007376Y006358D01*
X007410Y006338D01*
X007448Y006328D01*
X007636Y006328D01*
X007636Y006627D01*
X007733Y006627D01*
X007733Y006723D01*
X008051Y006723D01*
X008051Y006892D01*
X008041Y006930D01*
X008021Y006964D01*
X007993Y006992D01*
X007959Y007012D01*
X007921Y007022D01*
X007733Y007022D01*
X007733Y006723D01*
X007636Y006723D01*
X007636Y007022D01*
X007448Y007022D01*
X007410Y007012D01*
X007376Y006992D01*
X007348Y006964D01*
X007339Y006948D01*
X007286Y007002D01*
X006745Y007002D01*
X006669Y006926D01*
X006669Y006848D01*
X006555Y006735D01*
X006445Y006735D01*
X006325Y006855D01*
X006181Y006855D01*
X006181Y006926D01*
X006105Y007002D01*
X005564Y007002D01*
X005511Y006948D01*
X005502Y006964D01*
X005474Y006992D01*
X005440Y007012D01*
X005402Y007022D01*
X005214Y007022D01*
X005214Y006723D01*
X005117Y006723D01*
X005117Y006627D01*
X004799Y006627D01*
X004799Y006505D01*
X002875Y006505D01*
X002857Y006522D01*
X002900Y006626D01*
X002900Y006824D01*
X002824Y007008D01*
X002683Y007149D01*
X002499Y007225D01*
X002683Y007301D01*
X002824Y007442D01*
X002900Y007626D01*
X002900Y007824D01*
X002824Y008008D01*
X002683Y008149D01*
X002499Y008225D01*
X002683Y008301D01*
X002824Y008442D01*
X002900Y008626D01*
X002900Y008824D01*
X002824Y009008D01*
X002683Y009149D01*
X002518Y009217D01*
X002522Y009218D01*
X002600Y009243D01*
X002673Y009280D01*
X002739Y009328D01*
X002797Y009386D01*
X002845Y009452D01*
X002882Y009525D01*
X002907Y009603D01*
X002861Y009484D02*
X003370Y009484D01*
X003330Y009386D02*
X002796Y009386D01*
X002682Y009287D02*
X003330Y009287D01*
X003330Y009189D02*
X002588Y009189D01*
X002742Y009090D02*
X003330Y009090D01*
X003359Y008992D02*
X002831Y008992D01*
X002872Y008893D02*
X003400Y008893D01*
X003441Y008795D02*
X002900Y008795D01*
X002900Y008696D02*
X003519Y008696D01*
X003618Y008598D02*
X002888Y008598D01*
X002848Y008499D02*
X003760Y008499D01*
X003686Y008530D02*
X003686Y008530D01*
X002783Y008401D02*
X010817Y008401D01*
X010758Y008460D02*
X010911Y008307D01*
X011110Y008225D01*
X011327Y008225D01*
X011526Y008307D01*
X011679Y008460D01*
X011762Y008660D01*
X011762Y008876D01*
X011679Y009076D01*
X011526Y009229D01*
X011327Y009312D01*
X011110Y009312D01*
X010911Y009229D01*
X010758Y009076D01*
X010675Y008876D01*
X010675Y008660D01*
X010758Y008460D01*
X010742Y008499D02*
X004540Y008499D01*
X004682Y008598D02*
X010701Y008598D01*
X010675Y008696D02*
X004781Y008696D01*
X004845Y008761D02*
X004845Y008761D01*
X004845Y008761D01*
X004859Y008795D02*
X010675Y008795D01*
X010682Y008893D02*
X004900Y008893D01*
X004941Y008992D02*
X010722Y008992D01*
X010771Y009090D02*
X004970Y009090D01*
X004970Y009189D02*
X010870Y009189D01*
X011050Y009287D02*
X004970Y009287D01*
X004970Y009386D02*
X013330Y009386D01*
X013330Y009388D02*
X013330Y009062D01*
X013455Y008761D01*
X013455Y008761D01*
X013686Y008530D01*
X013987Y008405D01*
X014187Y008405D01*
X014313Y008405D01*
X014313Y008405D01*
X014614Y008530D01*
X014614Y008530D01*
X014845Y008761D01*
X014970Y009062D01*
X014970Y009388D01*
X014845Y009689D01*
X014845Y009689D01*
X014614Y009920D01*
X014313Y010045D01*
X013987Y010045D01*
X013686Y009920D01*
X013686Y009920D01*
X013455Y009689D01*
X013330Y009388D01*
X013330Y009287D02*
X011387Y009287D01*
X011567Y009189D02*
X013330Y009189D01*
X013330Y009090D02*
X011666Y009090D01*
X011715Y008992D02*
X013359Y008992D01*
X013400Y008893D02*
X011755Y008893D01*
X011762Y008795D02*
X013441Y008795D01*
X013519Y008696D02*
X011762Y008696D01*
X011736Y008598D02*
X013618Y008598D01*
X013686Y008530D02*
X013686Y008530D01*
X013760Y008499D02*
X011695Y008499D01*
X011620Y008401D02*
X014975Y008401D01*
X014975Y008499D02*
X014540Y008499D01*
X014682Y008598D02*
X014975Y008598D01*
X014975Y008696D02*
X014781Y008696D01*
X014845Y008761D02*
X014845Y008761D01*
X014859Y008795D02*
X014975Y008795D01*
X014975Y008893D02*
X014900Y008893D01*
X014941Y008992D02*
X014975Y008992D01*
X014970Y009090D02*
X014975Y009090D01*
X014970Y009189D02*
X014975Y009189D01*
X014970Y009287D02*
X014975Y009287D01*
X014970Y009386D02*
X014975Y009386D01*
X014975Y009484D02*
X014930Y009484D01*
X014889Y009583D02*
X014975Y009583D01*
X014975Y009681D02*
X014849Y009681D01*
X014755Y009780D02*
X014975Y009780D01*
X014975Y009878D02*
X014657Y009878D01*
X014614Y009920D02*
X014614Y009920D01*
X014478Y009977D02*
X014975Y009977D01*
X013822Y009977D02*
X004478Y009977D01*
X004614Y009920D02*
X004614Y009920D01*
X004657Y009878D02*
X013643Y009878D01*
X013545Y009780D02*
X004755Y009780D01*
X004849Y009681D02*
X013451Y009681D01*
X013455Y009689D02*
X013455Y009689D01*
X013411Y009583D02*
X004889Y009583D01*
X004930Y009484D02*
X013370Y009484D01*
X014975Y008302D02*
X011514Y008302D01*
X011637Y008034D02*
X011779Y008093D01*
X011933Y008093D01*
X012076Y008034D01*
X012185Y007925D01*
X012244Y007782D01*
X012244Y007628D01*
X012185Y007486D01*
X012076Y007377D01*
X011933Y007318D01*
X011779Y007318D01*
X011637Y007377D01*
X011528Y007486D01*
X011469Y007628D01*
X011469Y007782D01*
X011528Y007925D01*
X011637Y008034D01*
X011610Y008007D02*
X011316Y008007D01*
X011404Y007908D02*
X011521Y007908D01*
X011480Y007810D02*
X011445Y007810D01*
X011456Y007711D02*
X011469Y007711D01*
X011475Y007613D02*
X011450Y007613D01*
X011409Y007514D02*
X011516Y007514D01*
X011598Y007416D02*
X011327Y007416D01*
X011230Y007317D02*
X014975Y007317D01*
X014975Y007219D02*
X011198Y007219D01*
X011100Y007120D02*
X014975Y007120D01*
X014975Y007022D02*
X011001Y007022D01*
X010903Y006923D02*
X014975Y006923D01*
X014975Y006825D02*
X010804Y006825D01*
X010706Y006726D02*
X014975Y006726D01*
X014975Y006628D02*
X010607Y006628D01*
X010677Y006529D02*
X010509Y006529D01*
X010507Y006431D02*
X010410Y006431D01*
X010359Y006345D02*
X010098Y006085D01*
X009914Y005765D01*
X009819Y005409D01*
X009819Y005041D01*
X009914Y004685D01*
X010098Y004365D01*
X010359Y004105D01*
X010678Y003920D01*
X011034Y003825D01*
X011403Y003825D01*
X011759Y003920D01*
X012078Y004105D01*
X012339Y004365D01*
X012523Y004685D01*
X012619Y005041D01*
X012619Y005409D01*
X012523Y005765D01*
X012339Y006085D01*
X012078Y006345D01*
X011759Y006530D01*
X011403Y006625D01*
X011034Y006625D01*
X010678Y006530D01*
X010359Y006345D01*
X010346Y006332D02*
X010312Y006332D01*
X010247Y006234D02*
X010213Y006234D01*
X010149Y006135D02*
X010115Y006135D01*
X010070Y006037D02*
X010016Y006037D01*
X010014Y005938D02*
X009918Y005938D01*
X009957Y005840D02*
X009819Y005840D01*
X009907Y005741D02*
X009377Y005741D01*
X009349Y005643D02*
X009881Y005643D01*
X009855Y005544D02*
X008830Y005544D01*
X008830Y005446D02*
X009828Y005446D01*
X009819Y005347D02*
X008830Y005347D01*
X008830Y005249D02*
X009819Y005249D01*
X009819Y005150D02*
X008830Y005150D01*
X008830Y005052D02*
X009819Y005052D01*
X009842Y004953D02*
X008830Y004953D01*
X008830Y004855D02*
X009868Y004855D01*
X009895Y004756D02*
X008830Y004756D01*
X008830Y004658D02*
X009930Y004658D01*
X009986Y004559D02*
X008830Y004559D01*
X008830Y004461D02*
X010043Y004461D01*
X010102Y004362D02*
X008830Y004362D01*
X008830Y004264D02*
X010200Y004264D01*
X010299Y004165D02*
X008830Y004165D01*
X008830Y004067D02*
X010425Y004067D01*
X010596Y003968D02*
X008830Y003968D01*
X008860Y003870D02*
X010868Y003870D01*
X011569Y003870D02*
X014975Y003870D01*
X014975Y003968D02*
X011841Y003968D01*
X012012Y004067D02*
X014975Y004067D01*
X014975Y004165D02*
X012138Y004165D01*
X012237Y004264D02*
X014975Y004264D01*
X014975Y004362D02*
X012335Y004362D01*
X012394Y004461D02*
X014975Y004461D01*
X014975Y004559D02*
X012451Y004559D01*
X012507Y004658D02*
X014975Y004658D01*
X014975Y004756D02*
X012542Y004756D01*
X012569Y004855D02*
X014975Y004855D01*
X014975Y004953D02*
X012595Y004953D01*
X012619Y005052D02*
X014975Y005052D01*
X014975Y005150D02*
X012619Y005150D01*
X012619Y005249D02*
X014975Y005249D01*
X014975Y005347D02*
X012619Y005347D01*
X012609Y005446D02*
X014975Y005446D01*
X014975Y005544D02*
X012582Y005544D01*
X012556Y005643D02*
X014975Y005643D01*
X014975Y005741D02*
X012530Y005741D01*
X012480Y005840D02*
X014975Y005840D01*
X014975Y005938D02*
X012423Y005938D01*
X012367Y006037D02*
X014975Y006037D01*
X014975Y006135D02*
X012288Y006135D01*
X012190Y006234D02*
X014975Y006234D01*
X014975Y006332D02*
X012091Y006332D01*
X011930Y006431D02*
X014975Y006431D01*
X014975Y006529D02*
X011760Y006529D01*
X010689Y007219D02*
X010348Y007219D01*
X010447Y007317D02*
X010787Y007317D01*
X010811Y007416D02*
X010540Y007416D01*
X010622Y007514D02*
X010729Y007514D01*
X010688Y007613D02*
X010662Y007613D01*
X010669Y007711D02*
X010681Y007711D01*
X010693Y007810D02*
X010658Y007810D01*
X010617Y007908D02*
X010733Y007908D01*
X010822Y008007D02*
X010528Y008007D01*
X010281Y007705D02*
X010300Y007687D01*
X010300Y007425D01*
X010150Y007275D01*
X009150Y007275D01*
X009050Y007175D01*
X009050Y006610D01*
X009377Y006628D02*
X010098Y006628D01*
X010196Y006726D02*
X009377Y006726D01*
X009377Y006825D02*
X010295Y006825D01*
X010393Y006923D02*
X009334Y006923D01*
X009230Y007022D02*
X010492Y007022D01*
X010590Y007120D02*
X010250Y007120D01*
X009941Y007514D02*
X009834Y007514D01*
X009875Y007613D02*
X009901Y007613D01*
X009894Y007711D02*
X009882Y007711D01*
X009870Y007810D02*
X009905Y007810D01*
X009946Y007908D02*
X009830Y007908D01*
X009741Y008007D02*
X010035Y008007D01*
X009247Y008007D02*
X008982Y008007D01*
X009061Y007908D02*
X009159Y007908D01*
X009118Y007810D02*
X009101Y007810D01*
X009107Y007734D02*
X009107Y007677D01*
X008735Y007677D01*
X008735Y007734D01*
X009107Y007734D01*
X009107Y007711D02*
X008735Y007711D01*
X008678Y007711D02*
X008307Y007711D01*
X008300Y007613D02*
X008309Y007613D01*
X008347Y007514D02*
X008259Y007514D01*
X008177Y007416D02*
X008420Y007416D01*
X008583Y007317D02*
X006468Y007317D01*
X006440Y007308D02*
X006501Y007328D01*
X006558Y007357D01*
X006610Y007395D01*
X006655Y007440D01*
X006693Y007492D01*
X006722Y007549D01*
X006742Y007610D01*
X006745Y007627D01*
X006803Y007486D01*
X006912Y007377D01*
X007055Y007318D01*
X007209Y007318D01*
X007351Y007377D01*
X007460Y007486D01*
X007519Y007628D01*
X007519Y007782D01*
X007460Y007925D01*
X007351Y008034D01*
X007209Y008093D01*
X007055Y008093D01*
X006912Y008034D01*
X006803Y007925D01*
X006745Y007783D01*
X006742Y007801D01*
X006722Y007862D01*
X006693Y007919D01*
X006655Y007971D01*
X006610Y008016D01*
X006558Y008054D01*
X006501Y008083D01*
X006440Y008103D01*
X006377Y008113D01*
X006373Y008113D01*
X006373Y007734D01*
X006316Y007734D01*
X006316Y008113D01*
X006312Y008113D01*
X006249Y008103D01*
X006188Y008083D01*
X006131Y008054D01*
X006079Y008016D01*
X006034Y007971D01*
X005996Y007919D01*
X005967Y007862D01*
X005947Y007801D01*
X005944Y007783D01*
X005886Y007925D01*
X005777Y008034D01*
X005634Y008093D01*
X005480Y008093D01*
X005338Y008034D01*
X005229Y007925D01*
X005170Y007782D01*
X005170Y007628D01*
X005229Y007486D01*
X005338Y007377D01*
X005480Y007318D01*
X005634Y007318D01*
X005777Y007377D01*
X005886Y007486D01*
X005944Y007627D01*
X005947Y007610D01*
X005967Y007549D01*
X005996Y007492D01*
X006034Y007440D01*
X006079Y007395D01*
X006131Y007357D01*
X006188Y007328D01*
X006249Y007308D01*
X006312Y007298D01*
X006316Y007298D01*
X006316Y007677D01*
X005945Y007677D01*
X005945Y007734D01*
X006316Y007734D01*
X006316Y007677D01*
X006373Y007677D01*
X006744Y007677D01*
X006744Y007734D01*
X006373Y007734D01*
X006373Y007677D01*
X006373Y007298D01*
X006377Y007298D01*
X006440Y007308D01*
X006373Y007317D02*
X006316Y007317D01*
X006221Y007317D02*
X002699Y007317D01*
X002798Y007416D02*
X005299Y007416D01*
X005217Y007514D02*
X002854Y007514D01*
X002895Y007613D02*
X005176Y007613D01*
X005170Y007711D02*
X002900Y007711D01*
X002900Y007810D02*
X005181Y007810D01*
X005222Y007908D02*
X002865Y007908D01*
X002825Y008007D02*
X005310Y008007D01*
X005804Y008007D02*
X006069Y008007D01*
X005990Y007908D02*
X005893Y007908D01*
X005933Y007810D02*
X005950Y007810D01*
X005945Y007711D02*
X006316Y007711D01*
X006344Y007705D02*
X006344Y007481D01*
X006650Y007175D01*
X007600Y007175D01*
X007700Y007075D01*
X007700Y006690D01*
X007685Y006675D01*
X007700Y006660D01*
X007700Y006425D01*
X007600Y006325D01*
X006950Y006325D01*
X006800Y006175D01*
X006800Y005475D01*
X006985Y005290D01*
X007450Y005290D01*
X007402Y005249D02*
X006327Y005249D01*
X006327Y005347D02*
X007103Y005347D01*
X007103Y005446D02*
X006327Y005446D01*
X006327Y005544D02*
X007108Y005544D01*
X007170Y005643D02*
X006280Y005643D01*
X006327Y005741D02*
X007123Y005741D01*
X007123Y005840D02*
X006327Y005840D01*
X006327Y005938D02*
X007123Y005938D01*
X007123Y006037D02*
X006327Y006037D01*
X006327Y006135D02*
X006390Y006135D01*
X006610Y006135D02*
X007123Y006135D01*
X007127Y006234D02*
X006747Y006234D01*
X006797Y006332D02*
X007434Y006332D01*
X007636Y006332D02*
X007733Y006332D01*
X007733Y006328D02*
X007921Y006328D01*
X007959Y006338D01*
X007993Y006358D01*
X008021Y006386D01*
X008041Y006420D01*
X008051Y006458D01*
X008051Y006627D01*
X007733Y006627D01*
X007733Y006328D01*
X007733Y006431D02*
X007636Y006431D01*
X007636Y006529D02*
X007733Y006529D01*
X007733Y006628D02*
X008723Y006628D01*
X008723Y006726D02*
X008051Y006726D01*
X008051Y006825D02*
X008723Y006825D01*
X008766Y006923D02*
X008043Y006923D01*
X007922Y007022D02*
X008870Y007022D01*
X008870Y007120D02*
X002712Y007120D01*
X002811Y007022D02*
X004928Y007022D01*
X004929Y007022D02*
X004891Y007012D01*
X004857Y006992D01*
X004829Y006964D01*
X004809Y006930D01*
X004799Y006892D01*
X004799Y006723D01*
X005117Y006723D01*
X005117Y007022D01*
X004929Y007022D01*
X004807Y006923D02*
X002859Y006923D01*
X002900Y006825D02*
X004799Y006825D01*
X004799Y006726D02*
X002900Y006726D01*
X002900Y006628D02*
X005117Y006628D01*
X005117Y006726D02*
X005214Y006726D01*
X005214Y006825D02*
X005117Y006825D01*
X005117Y006923D02*
X005214Y006923D01*
X005214Y007022D02*
X005117Y007022D01*
X005403Y007022D02*
X007447Y007022D01*
X007636Y007022D02*
X007733Y007022D01*
X007733Y006923D02*
X007636Y006923D01*
X007636Y006825D02*
X007733Y006825D01*
X007733Y006726D02*
X007636Y006726D01*
X008051Y006529D02*
X008723Y006529D01*
X008723Y006431D02*
X008044Y006431D01*
X007935Y006332D02*
X008730Y006332D01*
X008746Y006234D02*
X008323Y006234D01*
X008327Y006135D02*
X008723Y006135D01*
X008723Y006037D02*
X008393Y006037D01*
X008492Y005938D02*
X008723Y005938D01*
X008723Y005840D02*
X008590Y005840D01*
X008689Y005741D02*
X008723Y005741D01*
X008650Y005525D02*
X008650Y003825D01*
X008850Y003625D01*
X009750Y003625D01*
X009850Y003525D01*
X009850Y002782D01*
X009888Y002745D01*
X010249Y002885D02*
X010314Y002885D01*
X010288Y002822D02*
X010347Y002964D01*
X010456Y003073D01*
X010598Y003132D01*
X010752Y003132D01*
X010895Y003073D01*
X011004Y002964D01*
X011063Y002822D01*
X011063Y002668D01*
X011004Y002525D01*
X010895Y002416D01*
X010752Y002357D01*
X010598Y002357D01*
X010456Y002416D01*
X010347Y002525D01*
X010288Y002668D01*
X010288Y002822D01*
X010288Y002786D02*
X010275Y002786D01*
X010275Y002688D02*
X010288Y002688D01*
X010320Y002589D02*
X010243Y002589D01*
X010182Y002491D02*
X010381Y002491D01*
X010514Y002392D02*
X010049Y002392D01*
X009727Y002392D02*
X009280Y002392D01*
X009280Y002294D02*
X014975Y002294D01*
X014975Y002392D02*
X013198Y002392D01*
X013257Y002416D02*
X013114Y002357D01*
X012960Y002357D01*
X012818Y002416D01*
X012709Y002525D01*
X012650Y002667D01*
X012647Y002649D01*
X012628Y002588D01*
X012599Y002531D01*
X012561Y002479D01*
X012515Y002434D01*
X012464Y002396D01*
X012406Y002367D01*
X012345Y002347D01*
X012282Y002337D01*
X012279Y002337D01*
X012279Y002716D01*
X012221Y002716D01*
X012221Y002337D01*
X012218Y002337D01*
X012155Y002347D01*
X012094Y002367D01*
X012036Y002396D01*
X011985Y002434D01*
X011939Y002479D01*
X011901Y002531D01*
X011872Y002588D01*
X011853Y002649D01*
X011850Y002667D01*
X011791Y002525D01*
X011682Y002416D01*
X011540Y002357D01*
X011386Y002357D01*
X011243Y002416D01*
X011134Y002525D01*
X011075Y002668D01*
X011075Y002822D01*
X011134Y002964D01*
X011243Y003073D01*
X011386Y003132D01*
X011540Y003132D01*
X011682Y003073D01*
X011791Y002964D01*
X011850Y002823D01*
X011853Y002840D01*
X011872Y002901D01*
X011901Y002958D01*
X011939Y003010D01*
X011985Y003055D01*
X012036Y003093D01*
X012094Y003122D01*
X012155Y003142D01*
X012218Y003152D01*
X012221Y003152D01*
X012221Y002773D01*
X012279Y002773D01*
X012279Y003152D01*
X012282Y003152D01*
X012345Y003142D01*
X012406Y003122D01*
X012464Y003093D01*
X012515Y003055D01*
X012561Y003010D01*
X012599Y002958D01*
X012628Y002901D01*
X012647Y002840D01*
X012650Y002823D01*
X012709Y002964D01*
X012818Y003073D01*
X012960Y003132D01*
X013114Y003132D01*
X013257Y003073D01*
X013366Y002964D01*
X013425Y002822D01*
X013425Y002668D01*
X013366Y002525D01*
X013257Y002416D01*
X013331Y002491D02*
X014975Y002491D01*
X014975Y002589D02*
X013392Y002589D01*
X013425Y002688D02*
X014975Y002688D01*
X014975Y002786D02*
X013425Y002786D01*
X013399Y002885D02*
X014975Y002885D01*
X014975Y002983D02*
X013347Y002983D01*
X013237Y003082D02*
X014975Y003082D01*
X014975Y003180D02*
X010030Y003180D01*
X010030Y003279D02*
X014975Y003279D01*
X014975Y003377D02*
X010030Y003377D01*
X010030Y003476D02*
X014975Y003476D01*
X014975Y003574D02*
X010030Y003574D01*
X009957Y003673D02*
X014975Y003673D01*
X014975Y003771D02*
X009859Y003771D01*
X009670Y003377D02*
X007680Y003377D01*
X007680Y003279D02*
X009670Y003279D01*
X009670Y003180D02*
X007680Y003180D01*
X007725Y003082D02*
X008114Y003082D01*
X008094Y003073D02*
X007985Y002964D01*
X007926Y002822D01*
X007926Y002668D01*
X007985Y002525D01*
X008094Y002416D01*
X008236Y002357D01*
X008390Y002357D01*
X008532Y002416D01*
X008641Y002525D01*
X008700Y002668D01*
X008700Y002822D01*
X008641Y002964D01*
X008532Y003073D01*
X008390Y003132D01*
X008236Y003132D01*
X008094Y003073D01*
X008003Y002983D02*
X007835Y002983D01*
X007887Y002885D02*
X007952Y002885D01*
X007926Y002786D02*
X007913Y002786D01*
X007913Y002688D02*
X007926Y002688D01*
X007958Y002589D02*
X007881Y002589D01*
X007819Y002491D02*
X008019Y002491D01*
X008152Y002392D02*
X007687Y002392D01*
X007364Y002392D02*
X007310Y002392D01*
X007310Y002294D02*
X008814Y002294D01*
X008912Y002392D02*
X008474Y002392D01*
X008607Y002491D02*
X008807Y002491D01*
X008745Y002589D02*
X008668Y002589D01*
X008700Y002688D02*
X008713Y002688D01*
X008700Y002786D02*
X008713Y002786D01*
X008739Y002885D02*
X008674Y002885D01*
X008623Y002983D02*
X008791Y002983D01*
X008901Y003082D02*
X008512Y003082D01*
X008745Y003476D02*
X007705Y003476D01*
X007500Y003525D02*
X007500Y002770D01*
X007526Y002745D01*
X007130Y003005D02*
X007300Y003175D01*
X007300Y004425D01*
X007200Y004525D01*
X006915Y004525D01*
X006950Y004510D01*
X007250Y004875D02*
X003300Y004875D01*
X002935Y004510D02*
X002650Y004225D01*
X002050Y004225D01*
X001710Y004565D01*
X001710Y007585D01*
X001850Y007725D01*
X002400Y007725D01*
X001935Y007908D02*
X000325Y007908D01*
X000325Y007810D02*
X001680Y007810D01*
X001635Y007765D02*
X001530Y007660D01*
X001530Y004490D01*
X001601Y004420D01*
X001524Y004388D01*
X001437Y004301D01*
X001390Y004187D01*
X001390Y004063D01*
X001437Y003949D01*
X001524Y003862D01*
X001620Y003823D01*
X001620Y002500D01*
X001725Y002395D01*
X002044Y002076D01*
X001976Y002008D01*
X001900Y001824D01*
X001900Y001626D01*
X001976Y001442D01*
X002117Y001301D01*
X002301Y001225D01*
X002117Y001149D01*
X001976Y001008D01*
X001900Y000824D01*
X001900Y000626D01*
X001976Y000442D01*
X002018Y000400D01*
X000325Y000400D01*
X000325Y010050D01*
X001993Y010050D01*
X001955Y009998D01*
X001918Y009925D01*
X001893Y009847D01*
X001881Y009775D01*
X002350Y009775D01*
X002350Y009675D01*
X001881Y009675D01*
X001893Y009603D01*
X001918Y009525D01*
X001955Y009452D01*
X002003Y009386D01*
X002061Y009328D01*
X002127Y009280D01*
X002200Y009243D01*
X002278Y009218D01*
X002282Y009217D01*
X002117Y009149D01*
X001976Y009008D01*
X001900Y008824D01*
X001900Y008626D01*
X001976Y008442D01*
X002117Y008301D01*
X002301Y008225D01*
X002499Y008225D01*
X002301Y008225D01*
X002117Y008149D01*
X001976Y008008D01*
X001933Y007905D01*
X001775Y007905D01*
X001635Y007765D01*
X001581Y007711D02*
X000325Y007711D01*
X000325Y007613D02*
X001530Y007613D01*
X001530Y007514D02*
X000325Y007514D01*
X000325Y007416D02*
X001530Y007416D01*
X001530Y007317D02*
X000325Y007317D01*
X000325Y007219D02*
X001530Y007219D01*
X001530Y007120D02*
X000325Y007120D01*
X000325Y007022D02*
X001530Y007022D01*
X001530Y006923D02*
X000325Y006923D01*
X000325Y006825D02*
X001530Y006825D01*
X001530Y006726D02*
X000325Y006726D01*
X000325Y006628D02*
X001530Y006628D01*
X001530Y006529D02*
X000325Y006529D01*
X000325Y006431D02*
X001530Y006431D01*
X001530Y006332D02*
X000325Y006332D01*
X000325Y006234D02*
X001530Y006234D01*
X001530Y006135D02*
X000325Y006135D01*
X000325Y006037D02*
X001530Y006037D01*
X001530Y005938D02*
X000325Y005938D01*
X000325Y005840D02*
X001530Y005840D01*
X001530Y005741D02*
X000325Y005741D01*
X000325Y005643D02*
X001530Y005643D01*
X001530Y005544D02*
X000325Y005544D01*
X000325Y005446D02*
X001530Y005446D01*
X001530Y005347D02*
X000325Y005347D01*
X000325Y005249D02*
X001530Y005249D01*
X001530Y005150D02*
X000325Y005150D01*
X000325Y005052D02*
X001530Y005052D01*
X001530Y004953D02*
X000325Y004953D01*
X000325Y004855D02*
X001530Y004855D01*
X001530Y004756D02*
X000325Y004756D01*
X000325Y004658D02*
X001530Y004658D01*
X001530Y004559D02*
X000325Y004559D01*
X000325Y004461D02*
X001560Y004461D01*
X001499Y004362D02*
X000325Y004362D01*
X000325Y004264D02*
X001422Y004264D01*
X001390Y004165D02*
X000325Y004165D01*
X000325Y004067D02*
X001390Y004067D01*
X001429Y003968D02*
X000325Y003968D01*
X000325Y003870D02*
X001517Y003870D01*
X001620Y003771D02*
X000325Y003771D01*
X000325Y003673D02*
X001620Y003673D01*
X001620Y003574D02*
X000325Y003574D01*
X000325Y003476D02*
X001620Y003476D01*
X001620Y003377D02*
X000325Y003377D01*
X000325Y003279D02*
X001620Y003279D01*
X001620Y003180D02*
X000325Y003180D01*
X000325Y003082D02*
X001620Y003082D01*
X001620Y002983D02*
X000325Y002983D01*
X000325Y002885D02*
X001620Y002885D01*
X001620Y002786D02*
X000325Y002786D01*
X000325Y002688D02*
X001620Y002688D01*
X001620Y002589D02*
X000325Y002589D01*
X000325Y002491D02*
X001630Y002491D01*
X001728Y002392D02*
X000325Y002392D01*
X000325Y002294D02*
X001827Y002294D01*
X001925Y002195D02*
X000325Y002195D01*
X000325Y002097D02*
X002024Y002097D01*
X001972Y001998D02*
X000325Y001998D01*
X000325Y001900D02*
X001931Y001900D01*
X001900Y001801D02*
X000325Y001801D01*
X000325Y001703D02*
X001900Y001703D01*
X001909Y001604D02*
X000325Y001604D01*
X000325Y001506D02*
X001950Y001506D01*
X002011Y001407D02*
X000325Y001407D01*
X000325Y001309D02*
X002109Y001309D01*
X002264Y001210D02*
X000325Y001210D01*
X000325Y001112D02*
X002079Y001112D01*
X001981Y001013D02*
X000325Y001013D01*
X000325Y000915D02*
X001937Y000915D01*
X001900Y000816D02*
X000325Y000816D01*
X000325Y000718D02*
X001900Y000718D01*
X001903Y000619D02*
X000325Y000619D01*
X000325Y000521D02*
X001944Y000521D01*
X001996Y000422D02*
X000325Y000422D01*
X002301Y001225D02*
X002499Y001225D01*
X002683Y001149D01*
X002770Y001062D01*
X002770Y001388D01*
X002683Y001301D01*
X002499Y001225D01*
X002301Y001225D01*
X002536Y001210D02*
X002770Y001210D01*
X002770Y001112D02*
X002721Y001112D01*
X002691Y001309D02*
X002770Y001309D01*
X003130Y001309D02*
X003330Y001309D01*
X003330Y001388D02*
X003330Y001062D01*
X003455Y000761D01*
X003455Y000761D01*
X003686Y000530D01*
X003987Y000405D01*
X004113Y000405D01*
X004313Y000405D01*
X004614Y000530D01*
X004614Y000530D01*
X004845Y000761D01*
X004970Y001062D01*
X004970Y001388D01*
X004845Y001689D01*
X004845Y001689D01*
X004614Y001920D01*
X004313Y002045D01*
X003987Y002045D01*
X003686Y001920D01*
X003455Y001689D01*
X003455Y001689D01*
X003330Y001388D01*
X003338Y001407D02*
X003130Y001407D01*
X003130Y001506D02*
X003379Y001506D01*
X003419Y001604D02*
X003130Y001604D01*
X003132Y001703D02*
X003468Y001703D01*
X003566Y001801D02*
X003231Y001801D01*
X003329Y001900D02*
X003665Y001900D01*
X003873Y001998D02*
X003428Y001998D01*
X003526Y002097D02*
X004774Y002097D01*
X004675Y002195D02*
X003625Y002195D01*
X003600Y002425D02*
X004700Y002425D01*
X005400Y001725D01*
X008500Y001725D01*
X009100Y002325D01*
X009100Y002744D01*
X009100Y002745D01*
X009462Y002885D02*
X009526Y002885D01*
X009500Y002786D02*
X009488Y002786D01*
X009488Y002688D02*
X009500Y002688D01*
X009533Y002589D02*
X009455Y002589D01*
X009394Y002491D02*
X009594Y002491D01*
X009225Y002195D02*
X011037Y002195D01*
X011110Y002225D02*
X010911Y002143D01*
X010758Y001990D01*
X010675Y001790D01*
X010675Y001574D01*
X010758Y001374D01*
X010911Y001221D01*
X011110Y001138D01*
X011327Y001138D01*
X011526Y001221D01*
X011679Y001374D01*
X011762Y001574D01*
X011762Y001790D01*
X011679Y001990D01*
X011526Y002143D01*
X011327Y002225D01*
X011110Y002225D01*
X011302Y002392D02*
X010836Y002392D01*
X010969Y002491D02*
X011169Y002491D01*
X011108Y002589D02*
X011030Y002589D01*
X011063Y002688D02*
X011075Y002688D01*
X011063Y002786D02*
X011075Y002786D01*
X011101Y002885D02*
X011037Y002885D01*
X010985Y002983D02*
X011153Y002983D01*
X011263Y003082D02*
X010875Y003082D01*
X010476Y003082D02*
X010087Y003082D01*
X010197Y002983D02*
X010366Y002983D01*
X009670Y003082D02*
X009300Y003082D01*
X009410Y002983D02*
X009578Y002983D01*
X008646Y003574D02*
X008127Y003574D01*
X008127Y003673D02*
X008548Y003673D01*
X008470Y003771D02*
X008127Y003771D01*
X008127Y003870D02*
X008470Y003870D01*
X008470Y003968D02*
X008127Y003968D01*
X008127Y004067D02*
X008470Y004067D01*
X008470Y004165D02*
X008073Y004165D01*
X008127Y004264D02*
X008470Y004264D01*
X008470Y004362D02*
X008127Y004362D01*
X008127Y004461D02*
X008128Y004461D01*
X007800Y004510D02*
X007615Y004510D01*
X007250Y004875D01*
X007427Y004953D02*
X007498Y004953D01*
X007498Y005052D02*
X007402Y005052D01*
X007402Y005150D02*
X007498Y005150D01*
X007738Y004953D02*
X007740Y004953D01*
X007739Y004954D02*
X007739Y004954D01*
X007548Y004855D02*
X007525Y004855D01*
X007103Y005150D02*
X006327Y005150D01*
X006000Y005290D02*
X005885Y005225D01*
X005500Y005225D01*
X005000Y005290D02*
X004515Y005290D01*
X004450Y005225D01*
X005000Y004510D02*
X002935Y004510D01*
X002400Y004725D02*
X002150Y004725D01*
X001900Y004975D01*
X001900Y006075D01*
X002050Y006225D01*
X002600Y006225D01*
X002700Y006125D01*
X004935Y006125D01*
X005000Y005960D01*
X004799Y006529D02*
X002860Y006529D01*
X002800Y006325D02*
X002400Y006725D01*
X001900Y006726D02*
X001890Y006726D01*
X001890Y006628D02*
X001900Y006628D01*
X001900Y006626D02*
X001976Y006442D01*
X002013Y006405D01*
X001975Y006405D01*
X001890Y006320D01*
X001890Y007510D01*
X001925Y007545D01*
X001933Y007545D01*
X001976Y007442D01*
X002117Y007301D01*
X002301Y007225D01*
X002499Y007225D01*
X002301Y007225D01*
X002117Y007149D01*
X001976Y007008D01*
X001900Y006824D01*
X001900Y006626D01*
X001890Y006529D02*
X001940Y006529D01*
X001987Y006431D02*
X001890Y006431D01*
X001890Y006332D02*
X001902Y006332D01*
X001890Y006825D02*
X001900Y006825D01*
X001890Y006923D02*
X001941Y006923D01*
X001989Y007022D02*
X001890Y007022D01*
X001890Y007120D02*
X002088Y007120D01*
X002285Y007219D02*
X001890Y007219D01*
X001890Y007317D02*
X002101Y007317D01*
X002002Y007416D02*
X001890Y007416D01*
X001894Y007514D02*
X001946Y007514D01*
X002515Y007219D02*
X008870Y007219D01*
X008830Y007317D02*
X008937Y007317D01*
X008993Y007416D02*
X009036Y007416D01*
X009067Y007514D02*
X009154Y007514D01*
X009113Y007613D02*
X009105Y007613D01*
X008735Y007613D02*
X008678Y007613D01*
X008678Y007514D02*
X008735Y007514D01*
X008735Y007416D02*
X008678Y007416D01*
X008678Y007317D02*
X008735Y007317D01*
X008735Y007810D02*
X008678Y007810D01*
X008678Y007908D02*
X008735Y007908D01*
X008735Y008007D02*
X008678Y008007D01*
X008678Y008105D02*
X008735Y008105D01*
X008788Y008105D02*
X014975Y008105D01*
X014975Y008007D02*
X012890Y008007D01*
X012863Y008034D02*
X012721Y008093D01*
X012567Y008093D01*
X012424Y008034D01*
X012315Y007925D01*
X012256Y007782D01*
X012256Y007628D01*
X012315Y007486D01*
X012424Y007377D01*
X012567Y007318D01*
X012721Y007318D01*
X012863Y007377D01*
X012972Y007486D01*
X013031Y007628D01*
X013031Y007782D01*
X012972Y007925D01*
X012863Y008034D01*
X012979Y007908D02*
X014975Y007908D01*
X014975Y007810D02*
X013020Y007810D01*
X013031Y007711D02*
X014975Y007711D01*
X014975Y007613D02*
X013025Y007613D01*
X012984Y007514D02*
X014975Y007514D01*
X014975Y007416D02*
X012902Y007416D01*
X012386Y007416D02*
X012114Y007416D01*
X012196Y007514D02*
X012304Y007514D01*
X012263Y007613D02*
X012237Y007613D01*
X012244Y007711D02*
X012256Y007711D01*
X012267Y007810D02*
X012233Y007810D01*
X012192Y007908D02*
X012308Y007908D01*
X012397Y008007D02*
X012103Y008007D01*
X011069Y007705D02*
X011050Y007686D01*
X011050Y007325D01*
X009665Y005940D01*
X009050Y005940D01*
X009377Y006135D02*
X009605Y006135D01*
X009704Y006234D02*
X009354Y006234D01*
X009370Y006332D02*
X009802Y006332D01*
X009901Y006431D02*
X009377Y006431D01*
X009377Y006529D02*
X009999Y006529D01*
X008650Y005525D02*
X008215Y005960D01*
X008000Y005960D01*
X007450Y005960D01*
X007015Y006675D02*
X006750Y006675D01*
X006500Y006425D01*
X006250Y006675D01*
X005835Y006675D01*
X005750Y006325D02*
X002800Y006325D01*
X001975Y008007D02*
X000325Y008007D01*
X000325Y008105D02*
X002073Y008105D01*
X002249Y008204D02*
X000325Y008204D01*
X000325Y008302D02*
X002116Y008302D01*
X002017Y008401D02*
X000325Y008401D01*
X000325Y008499D02*
X001952Y008499D01*
X001912Y008598D02*
X000325Y008598D01*
X000325Y008696D02*
X001900Y008696D01*
X001900Y008795D02*
X000325Y008795D01*
X000325Y008893D02*
X001928Y008893D01*
X001969Y008992D02*
X000325Y008992D01*
X000325Y009090D02*
X002058Y009090D01*
X002212Y009189D02*
X000325Y009189D01*
X000325Y009287D02*
X002118Y009287D01*
X002004Y009386D02*
X000325Y009386D01*
X000325Y009484D02*
X001939Y009484D01*
X001900Y009583D02*
X000325Y009583D01*
X000325Y009681D02*
X002350Y009681D01*
X001882Y009780D02*
X000325Y009780D01*
X000325Y009878D02*
X001903Y009878D01*
X001945Y009977D02*
X000325Y009977D01*
X002855Y009977D02*
X003822Y009977D01*
X003643Y009878D02*
X002897Y009878D01*
X002918Y009780D02*
X003545Y009780D01*
X002684Y008302D02*
X010923Y008302D01*
X008626Y008105D02*
X006426Y008105D01*
X006373Y008105D02*
X006316Y008105D01*
X006263Y008105D02*
X002727Y008105D01*
X002551Y008204D02*
X014975Y008204D01*
X008432Y008007D02*
X008166Y008007D01*
X008255Y007908D02*
X008353Y007908D01*
X008312Y007810D02*
X008296Y007810D01*
X007673Y008007D02*
X007379Y008007D01*
X007467Y007908D02*
X007584Y007908D01*
X007543Y007810D02*
X007508Y007810D01*
X007519Y007711D02*
X007532Y007711D01*
X007538Y007613D02*
X007513Y007613D01*
X007472Y007514D02*
X007579Y007514D01*
X007661Y007416D02*
X007390Y007416D01*
X006874Y007416D02*
X006631Y007416D01*
X006704Y007514D02*
X006792Y007514D01*
X006751Y007613D02*
X006742Y007613D01*
X006744Y007711D02*
X006373Y007711D01*
X006373Y007613D02*
X006316Y007613D01*
X006316Y007514D02*
X006373Y007514D01*
X006373Y007416D02*
X006316Y007416D01*
X006058Y007416D02*
X005815Y007416D01*
X005897Y007514D02*
X005985Y007514D01*
X005947Y007613D02*
X005938Y007613D01*
X006316Y007810D02*
X006373Y007810D01*
X006373Y007908D02*
X006316Y007908D01*
X006316Y008007D02*
X006373Y008007D01*
X006620Y008007D02*
X006885Y008007D01*
X006796Y007908D02*
X006699Y007908D01*
X006739Y007810D02*
X006756Y007810D01*
X006669Y006923D02*
X006181Y006923D01*
X006355Y006825D02*
X006645Y006825D01*
X006000Y006075D02*
X005750Y006325D01*
X006000Y006075D02*
X006000Y005960D01*
X008000Y005290D02*
X008300Y004990D01*
X008300Y004725D01*
X007800Y003840D02*
X007800Y003825D01*
X007500Y003525D01*
X006950Y003325D02*
X006950Y003840D01*
X005950Y003840D01*
X005490Y003185D02*
X004990Y003685D01*
X004990Y003830D01*
X005000Y003840D01*
X005000Y004510D02*
X005950Y004510D01*
X006015Y004525D01*
X006450Y004525D01*
X007130Y003005D02*
X007130Y002255D01*
X006800Y001925D01*
X005500Y001925D01*
X004800Y002625D01*
X003400Y002625D01*
X002500Y001725D01*
X002400Y001725D01*
X002950Y001775D02*
X003600Y002425D01*
X003250Y002825D02*
X002650Y002225D01*
X002150Y002225D01*
X001800Y002575D01*
X001800Y004025D01*
X001700Y004125D01*
X003250Y002825D02*
X004900Y002825D01*
X005600Y002125D01*
X006600Y002125D01*
X006738Y002263D01*
X006738Y002745D01*
X007310Y002195D02*
X008715Y002195D01*
X008617Y002097D02*
X007226Y002097D01*
X007128Y001998D02*
X008518Y001998D01*
X008831Y001801D02*
X010679Y001801D01*
X010675Y001703D02*
X008732Y001703D01*
X008634Y001604D02*
X010675Y001604D01*
X010703Y001506D02*
X004921Y001506D01*
X004881Y001604D02*
X005266Y001604D01*
X005168Y001703D02*
X004832Y001703D01*
X004734Y001801D02*
X005069Y001801D01*
X004971Y001900D02*
X004635Y001900D01*
X004614Y001920D02*
X004614Y001920D01*
X004427Y001998D02*
X004872Y001998D01*
X004962Y001407D02*
X010744Y001407D01*
X010823Y001309D02*
X004970Y001309D01*
X004970Y001210D02*
X010937Y001210D01*
X011501Y001210D02*
X013330Y001210D01*
X013330Y001112D02*
X004970Y001112D01*
X004950Y001013D02*
X013350Y001013D01*
X013330Y001062D02*
X013455Y000761D01*
X013455Y000761D01*
X013686Y000530D01*
X013987Y000405D01*
X014113Y000405D01*
X014313Y000405D01*
X014614Y000530D01*
X014845Y000761D01*
X014970Y001062D01*
X014970Y001388D01*
X014845Y001689D01*
X014845Y001689D01*
X014614Y001920D01*
X014313Y002045D01*
X013987Y002045D01*
X013686Y001920D01*
X013686Y001920D01*
X013455Y001689D01*
X013330Y001388D01*
X013330Y001062D01*
X013391Y000915D02*
X004909Y000915D01*
X004868Y000816D02*
X013432Y000816D01*
X013498Y000718D02*
X004802Y000718D01*
X004845Y000761D02*
X004845Y000761D01*
X004704Y000619D02*
X013596Y000619D01*
X013686Y000530D02*
X013686Y000530D01*
X013708Y000521D02*
X004592Y000521D01*
X004354Y000422D02*
X013946Y000422D01*
X014354Y000422D02*
X014975Y000422D01*
X014975Y000521D02*
X014592Y000521D01*
X014614Y000530D02*
X014614Y000530D01*
X014704Y000619D02*
X014975Y000619D01*
X014975Y000718D02*
X014802Y000718D01*
X014845Y000761D02*
X014845Y000761D01*
X014868Y000816D02*
X014975Y000816D01*
X014975Y000915D02*
X014909Y000915D01*
X014950Y001013D02*
X014975Y001013D01*
X014970Y001112D02*
X014975Y001112D01*
X014970Y001210D02*
X014975Y001210D01*
X014970Y001309D02*
X014975Y001309D01*
X014962Y001407D02*
X014975Y001407D01*
X014975Y001506D02*
X014921Y001506D01*
X014881Y001604D02*
X014975Y001604D01*
X014975Y001703D02*
X014832Y001703D01*
X014734Y001801D02*
X014975Y001801D01*
X014975Y001900D02*
X014635Y001900D01*
X014614Y001920D02*
X014614Y001920D01*
X014614Y001920D01*
X014427Y001998D02*
X014975Y001998D01*
X014975Y002097D02*
X011573Y002097D01*
X011671Y001998D02*
X013873Y001998D01*
X013665Y001900D02*
X011717Y001900D01*
X011758Y001801D02*
X013566Y001801D01*
X013468Y001703D02*
X011762Y001703D01*
X011762Y001604D02*
X013419Y001604D01*
X013455Y001689D02*
X013455Y001689D01*
X013379Y001506D02*
X011734Y001506D01*
X011693Y001407D02*
X013338Y001407D01*
X013330Y001309D02*
X011614Y001309D01*
X010720Y001900D02*
X008929Y001900D01*
X009028Y001998D02*
X010766Y001998D01*
X010864Y002097D02*
X009126Y002097D01*
X011400Y002195D02*
X014975Y002195D01*
X012876Y002392D02*
X012455Y002392D01*
X012569Y002491D02*
X012744Y002491D01*
X012682Y002589D02*
X012628Y002589D01*
X012633Y002885D02*
X012676Y002885D01*
X012728Y002983D02*
X012581Y002983D01*
X012480Y003082D02*
X012838Y003082D01*
X012279Y003082D02*
X012221Y003082D01*
X012221Y002983D02*
X012279Y002983D01*
X012279Y002885D02*
X012221Y002885D01*
X012221Y002786D02*
X012279Y002786D01*
X012279Y002688D02*
X012221Y002688D01*
X012221Y002589D02*
X012279Y002589D01*
X012279Y002491D02*
X012221Y002491D01*
X012221Y002392D02*
X012279Y002392D01*
X012045Y002392D02*
X011624Y002392D01*
X011756Y002491D02*
X011931Y002491D01*
X011872Y002589D02*
X011818Y002589D01*
X011824Y002885D02*
X011867Y002885D01*
X011919Y002983D02*
X011772Y002983D01*
X011662Y003082D02*
X012020Y003082D01*
X003987Y002045D02*
X003987Y002045D01*
X002950Y001775D02*
X002950Y000925D01*
X002750Y000725D01*
X002400Y000725D01*
X002856Y000521D02*
X003708Y000521D01*
X003686Y000530D02*
X003686Y000530D01*
X003596Y000619D02*
X002899Y000619D01*
X002997Y000718D02*
X003498Y000718D01*
X003432Y000816D02*
X003096Y000816D01*
X003130Y000915D02*
X003391Y000915D01*
X003350Y001013D02*
X003130Y001013D01*
X003130Y001112D02*
X003330Y001112D01*
X003330Y001210D02*
X003130Y001210D01*
X002804Y000422D02*
X003946Y000422D01*
D18*
X005490Y003185D03*
X006950Y003325D03*
X006450Y004525D03*
X005500Y005225D03*
X004450Y005225D03*
X003300Y004875D03*
X001700Y004125D03*
X006500Y006425D03*
X008300Y004725D03*
M02*
