%
M48
M72
T01C0.0200
T02C0.0315
T03C0.0400
T04C0.0787
T05C0.1300
T06C0.2500
%
T01
X5730Y1175
X5730Y5375
X6630Y9125
X6880Y9875
X10880Y9625
T02
X10799Y7855
X11586Y7855
X12374Y7855
X10011Y7855
X9224Y7855
X8437Y7855
X7649Y7855
X6862Y7855
X6074Y7855
X5287Y7855
X5681Y2895
X6468Y2895
X7256Y2895
X8043Y2895
X8830Y2895
X9618Y2895
X10405Y2895
X11193Y2895
X11980Y2895
X12767Y2895
T03
X680Y875
X680Y1875
X680Y2875
X680Y3875
X680Y4875
X680Y5875
X680Y6875
X680Y7875
X680Y8875
X680Y9875
T04
X10949Y8918
X10949Y1832
T05
X14180Y1375
X2680Y1375
X2680Y9375
X14180Y9375
T06
X10949Y5375
M30
